SplineFontDB: 3.0
FontName: CPixel
FullName: CPixel
FamilyName: CPixel
Weight: Regular
Copyright: Copyright (c) 2019, Administrator
UComments: "2019-5-26: Created with FontForge (http://fontforge.org)"
Version: 001.000
ItalicAngle: 0
UnderlinePosition: -100
UnderlineWidth: 50
Ascent: 800
Descent: 200
InvalidEm: 0
LayerCount: 2
Layer: 0 0 "Back" 1
Layer: 1 0 "Fore" 0
XUID: [1021 455 683538641 31133]
StyleMap: 0x0000
FSType: 0
OS2Version: 0
OS2_WeightWidthSlopeOnly: 0
OS2_UseTypoMetrics: 1
CreationTime: 1558844203
ModificationTime: 1563887268
OS2TypoAscent: 0
OS2TypoAOffset: 1
OS2TypoDescent: 0
OS2TypoDOffset: 1
OS2TypoLinegap: 90
OS2WinAscent: 0
OS2WinAOffset: 1
OS2WinDescent: 0
OS2WinDOffset: 1
HheadAscent: 0
HheadAOffset: 1
HheadDescent: 0
HheadDOffset: 1
OS2Vendor: 'PfEd'
MarkAttachClasses: 1
DEI: 91125
LangName: 1033
Encoding: UnicodeBmp
UnicodeInterp: none
NameList: AGL For New Fonts
DisplaySize: -48
AntiAlias: 1
FitToEm: 0
WinInfo: 21800 25 9
BeginPrivate: 0
EndPrivate
BeginChars: 65536 112

StartChar: uni4E66
Encoding: 20070 20070 0
Width: 1000
VWidth: 0
Flags: H
LayerCount: 2
Fore
SplineSet
375 706.25 m 1
 375 800 l 1
 406.25 800 l 1
 437.5 800 l 1
 437.5 706.25 l 1
 437.5 612.5 l 1
 562.5 612.5 l 1
 687.5 612.5 l 1
 687.5 456.25 l 1
 687.5 300 l 1
 781.25 300 l 1
 875 300 l 1
 875 143.75 l 1
 875 -12.5 l 1
 843.75 -12.5 l 1
 812.5 -12.5 l 1
 812.5 -43.75 l 1
 812.5 -75 l 1
 781.25 -75 l 1
 750 -75 l 1
 750 -106.25 l 1
 750 -137.5 l 1
 718.75 -137.5 l 1
 687.5 -137.5 l 1
 687.5 -106.25 l 1
 687.5 -75 l 1
 656.25 -75 l 1
 625 -75 l 1
 625 -43.75 l 1
 625 -12.5 l 1
 656.25 -12.5 l 1
 687.5 -12.5 l 1
 687.5 -43.75 l 1
 687.5 -75 l 1
 718.75 -75 l 1
 750 -75 l 1
 750 -43.75 l 1
 750 -12.5 l 1
 781.25 -12.5 l 1
 812.5 -12.5 l 1
 812.5 112.5 l 1
 812.5 237.5 l 1
 625 237.5 l 1
 437.5 237.5 l 1
 437.5 18.75 l 1
 437.5 -200 l 1
 406.25 -200 l 1
 375 -200 l 1
 375 18.75 l 1
 375 237.5 l 1
 187.5 237.5 l 1
 0 237.5 l 1
 0 268.75 l 1
 0 300 l 1
 187.5 300 l 1
 375 300 l 1
 375 425 l 1
 375 550 l 1
 218.75 550 l 1
 62.5 550 l 1
 62.5 581.25 l 1
 62.5 612.5 l 1
 218.75 612.5 l 1
 375 612.5 l 1
 375 706.25 l 1
625 425 m 1
 625 550 l 1
 531.25 550 l 1
 437.5 550 l 1
 437.5 425 l 1
 437.5 300 l 1
 531.25 300 l 1
 625 300 l 1
 625 425 l 1
687.5 706.25 m 1
 687.5 737.5 l 1
 718.75 737.5 l 1
 750 737.5 l 1
 750 706.25 l 1
 750 675 l 1
 812.5 675 l 1
 875 675 l 1
 875 612.5 l 1
 875 550 l 1
 843.75 550 l 1
 812.5 550 l 1
 812.5 581.25 l 1
 812.5 612.5 l 1
 781.25 612.5 l 1
 750 612.5 l 1
 750 643.75 l 1
 750 675 l 1
 718.75 675 l 1
 687.5 675 l 1
 687.5 706.25 l 1
EndSplineSet
EndChar

StartChar: uni8839
Encoding: 34873 34873 1
Width: 1000
VWidth: 0
Flags: H
LayerCount: 2
Fore
SplineSet
437.5 768.75 m 1
 437.5 800 l 1
 468.75 800 l 1
 500 800 l 1
 500 768.75 l 1
 500 737.5 l 1
 687.5 737.5 l 1
 875 737.5 l 1
 875 706.25 l 1
 875 675 l 1
 781.25 675 l 1
 687.5 675 l 1
 687.5 643.75 l 1
 687.5 612.5 l 1
 812.5 612.5 l 1
 937.5 612.5 l 1
 937.5 550 l 1
 937.5 487.5 l 1
 906.25 487.5 l 1
 875 487.5 l 1
 875 456.25 l 1
 875 425 l 1
 843.75 425 l 1
 812.5 425 l 1
 812.5 456.25 l 1
 812.5 487.5 l 1
 843.75 487.5 l 1
 875 487.5 l 1
 875 518.75 l 1
 875 550 l 1
 500 550 l 1
 125 550 l 1
 125 518.75 l 1
 125 487.5 l 1
 93.75 487.5 l 1
 62.5 487.5 l 1
 62.5 456.25 l 1
 62.5 425 l 1
 31.25 425 l 1
 0 425 l 1
 0 456.25 l 1
 0 487.5 l 1
 31.25 487.5 l 1
 62.5 487.5 l 1
 62.5 550 l 1
 62.5 612.5 l 1
 156.25 612.5 l 1
 250 612.5 l 1
 250 643.75 l 1
 250 675 l 1
 156.25 675 l 1
 62.5 675 l 1
 62.5 706.25 l 1
 62.5 737.5 l 1
 250 737.5 l 1
 437.5 737.5 l 1
 437.5 768.75 l 1
437.5 643.75 m 1
 437.5 675 l 1
 375 675 l 1
 312.5 675 l 1
 312.5 643.75 l 1
 312.5 612.5 l 1
 375 612.5 l 1
 437.5 612.5 l 1
 437.5 643.75 l 1
625 643.75 m 1
 625 675 l 1
 562.5 675 l 1
 500 675 l 1
 500 643.75 l 1
 500 612.5 l 1
 562.5 612.5 l 1
 625 612.5 l 1
 625 643.75 l 1
187.5 456.25 m 1
 187.5 487.5 l 1
 468.75 487.5 l 1
 750 487.5 l 1
 750 456.25 l 1
 750 425 l 1
 562.5 425 l 1
 375 425 l 1
 375 393.75 l 1
 375 362.5 l 1
 562.5 362.5 l 1
 750 362.5 l 1
 750 268.75 l 1
 77.5 737.5 l 1
 312.5 737.5 l 1
 312.5 487.5 l 1
 312.5 237.5 l 1
 343.75 237.5 l 1
 375 237.5 l 1
 375 300 l 1
 375 362.5 l 1
 406.25 362.5 l 1
 437.5 362.5 l 1
 437.5 331.25 l 1
 437.5 300 l 1
 500 300 l 1
 562.5 300 l 1
 562.5 362.5 l 1
 562.5 425 l 1
 468.75 425 l 1
 375 425 l 1
 375 581.25 l 1
 375 737.5 l 1
 562.5 737.5 l 1
 750 737.5 l 1
 750 768.75 l 1025
250 581.25 m 1
 250 675 l 1
 187.5 675 l 1
 125 675 l 1
 125 581.25 l 1
 125 487.5 l 1
 187.5 487.5 l 1
 250 487.5 l 1
 250 581.25 l 1
750 643.75 m 1
 750 675 l 1
 593.75 675 l 1
 437.5 675 l 1
 437.5 643.75 l 1
 437.5 612.5 l 1
 593.75 612.5 l 1
 750 612.5 l 1
 750 643.75 l 1
750 518.75 m 1
 750 550 l 1
 593.75 550 l 1
 437.5 550 l 1
 437.5 518.75 l 1
 437.5 487.5 l 1
 593.75 487.5 l 1
 750 487.5 l 1
 750 518.75 l 1
250 331.25 m 1
 250 425 l 1
 187.5 425 l 1
 125 425 l 1
 125 331.25 l 1
 125 237.5 l 1
 187.5 237.5 l 1
 250 237.5 l 1
 250 331.25 l 1
562.5 175 m 1
 562.5 237.5 l 1
 468.75 237.5 l 1
 375 237.5 l 1
 375 206.25 l 1
 375 175 l 1
 343.75 175 l 1
 312.5 175 l 1
 312.5 50 l 1
 312.5 -75 l 1
 437.5 -75 l 1
 562.5 -75 l 1
 562.5 -12.5 l 1
 562.5 50 l 1
 468.75 50 l 1
 375 50 l 1
 375 81.25 l 1
 375 112.5 l 1
 468.75 112.5 l 1
 562.5 112.5 l 1
 562.5 175 l 1
EndSplineSet
EndChar

StartChar: uni54A7
Encoding: 21671 21671 2
Width: 1000
VWidth: 0
Flags: H
LayerCount: 2
Fore
SplineSet
562.5 768.75 m 1
 562.5 800 l 1
 593.75 800 l 1
 625 800 l 1
 625 768.75 l 1
 625 737.5 l 1
 656.25 737.5 l 1
 687.5 737.5 l 1
 687.5 706.25 l 1
 687.5 675 l 1
 593.75 675 l 1
 500 675 l 1
 500 612.5 l 1
 500 550 l 1
 562.5 550 l 1
 625 550 l 1
 625 393.75 l 1
 625 237.5 l 1
 593.75 237.5 l 1
 562.5 237.5 l 1
 562.5 175 l 1
 562.5 112.5 l 1
 531.25 112.5 l 1
 500 112.5 l 1
 500 50 l 1
 500 -12.5 l 1
 468.75 -12.5 l 1
 437.5 -12.5 l 1
 437.5 -43.75 l 1
 437.5 -75 l 1
 406.25 -75 l 1
 375 -75 l 1
 375 -106.25 l 1
 375 -137.5 l 1
 343.75 -137.5 l 1
 312.5 -137.5 l 1
 312.5 -168.75 l 1
 312.5 -200 l 1
 281.25 -200 l 1
 250 -200 l 1
 250 -168.75 l 1
 250 -137.5 l 1
 281.25 -137.5 l 1
 312.5 -137.5 l 1
 312.5 -106.25 l 1
 312.5 -75 l 1
 343.75 -75 l 1
 375 -75 l 1
 375 -43.75 l 1
 375 -12.5 l 1
 406.25 -12.5 l 1
 437.5 -12.5 l 1
 437.5 50 l 1
 437.5 112.5 l 1
 468.75 112.5 l 1
 500 112.5 l 1
 500 175 l 1
 500 237.5 l 1
 468.75 237.5 l 1
 437.5 237.5 l 1
 437.5 268.75 l 1
 437.5 300 l 1
 406.25 300 l 1
 375 300 l 1
 375 268.75 l 1
 375 237.5 l 1
 343.75 237.5 l 1
 312.5 237.5 l 1
 312.5 112.5 l 1
 312.5 -12.5 l 1
 281.25 -12.5 l 1
 250 -12.5 l 1
 250 18.75 l 1
 250 50 l 1
 187.5 50 l 1
 125 50 l 1
 125 18.75 l 1
 125 -12.5 l 1
 93.75 -12.5 l 1
 62.5 -12.5 l 1
 62.5 300 l 1
 62.5 612.5 l 1
 156.25 612.5 l 1
 250 612.5 l 1
 250 643.75 l 1
 250 675 l 1
 281.25 675 l 1
 312.5 675 l 1
 312.5 706.25 l 1
 312.5 737.5 l 1
 437.5 737.5 l 1
 562.5 737.5 l 1
 562.5 768.75 l 1
437.5 581.25 m 1
 437.5 675 l 1
 375 675 l 1
 312.5 675 l 1
 312.5 643.75 l 1
 312.5 612.5 l 1
 343.75 612.5 l 1
 375 612.5 l 1
 375 581.25 l 1
 375 550 l 1
 343.75 550 l 1
 312.5 550 l 1
 312.5 425 l 1
 312.5 300 l 1
 343.75 300 l 1
 375 300 l 1
 375 393.75 l 1
 375 487.5 l 1
 406.25 487.5 l 1
 437.5 487.5 l 1
 437.5 393.75 l 1
 437.5 300 l 1
 468.75 300 l 1
 500 300 l 1
 500 268.75 l 1
 500 237.5 l 1
 531.25 237.5 l 1
 562.5 237.5 l 1
 562.5 362.5 l 1
 562.5 487.5 l 1
 500 487.5 l 1
 437.5 487.5 l 1
 437.5 581.25 l 1
250 331.25 m 1
 250 550 l 1
 187.5 550 l 1
 125 550 l 1
 125 331.25 l 1
 125 112.5 l 1
 187.5 112.5 l 1
 250 112.5 l 1
 250 331.25 l 1
812.5 331.25 m 1
 812.5 800 l 1
 843.75 800 l 1
 875 800 l 1
 875 331.25 l 1
 875 -137.5 l 1
 843.75 -137.5 l 1
 812.5 -137.5 l 1
 812.5 -168.75 l 1
 812.5 -200 l 1
 781.25 -200 l 1
 750 -200 l 1
 750 -168.75 l 1
 750 -137.5 l 1
 718.75 -137.5 l 1
 687.5 -137.5 l 1
 687.5 -106.25 l 1
 687.5 -75 l 1
 718.75 -75 l 1
 750 -75 l 1
 750 -106.25 l 1
 750 -137.5 l 1
 781.25 -137.5 l 1
 812.5 -137.5 l 1
 812.5 331.25 l 1
687.5 300 m 1
 687.5 550 l 1
 718.75 550 l 1
 750 550 l 1
 750 300 l 1
 750 50 l 1
 718.75 50 l 1
 687.5 50 l 1
 687.5 300 l 1
EndSplineSet
EndChar

StartChar: uni7FD5
Encoding: 32725 32725 3
Width: 1000
VWidth: 0
Flags: H
LayerCount: 2
Fore
SplineSet
437.5 768.75 m 1
 437.5 800 l 1
 468.75 800 l 1
 500 800 l 1
 500 768.75 l 1
 500 737.5 l 1
 531.25 737.5 l 1
 562.5 737.5 l 1
 562.5 706.25 l 1
 562.5 675 l 1
 625 675 l 1
 687.5 675 l 1
 687.5 643.75 l 1
 687.5 612.5 l 1
 750 612.5 l 1
 812.5 612.5 l 1
 812.5 581.25 l 1
 812.5 550 l 1
 875 550 l 1
 937.5 550 l 1
 937.5 518.75 l 1
 937.5 487.5 l 1
 875 487.5 l 1
 812.5 487.5 l 1
 812.5 518.75 l 1
 812.5 550 l 1
 750 550 l 1
 687.5 550 l 1
 687.5 581.25 l 1
 687.5 612.5 l 1
 656.25 612.5 l 1
 625 612.5 l 1
 625 581.25 l 1
 625 550 l 1
 468.75 550 l 1
 312.5 550 l 1
 312.5 581.25 l 1
 312.5 612.5 l 1
 281.25 612.5 l 1
 250 612.5 l 1
 250 581.25 l 1
 250 550 l 1
 187.5 550 l 1
 125 550 l 1
 125 518.75 l 1
 125 487.5 l 1
 62.5 487.5 l 1
 0 487.5 l 1
 0 518.75 l 1
 0 550 l 1
 62.5 550 l 1
 125 550 l 1
 125 581.25 l 1
 125 612.5 l 1
 187.5 612.5 l 1
 250 612.5 l 1
 250 643.75 l 1
 250 675 l 1
 312.5 675 l 1
 375 675 l 1
 375 706.25 l 1
 375 737.5 l 1
 406.25 737.5 l 1
 437.5 737.5 l 1
 437.5 768.75 l 1
500 706.25 m 1
 500 737.5 l 1
 468.75 737.5 l 1
 437.5 737.5 l 1
 437.5 706.25 l 1
 437.5 675 l 1
 406.25 675 l 1
 375 675 l 1
 375 643.75 l 1
 375 612.5 l 1
 468.75 612.5 l 1
 562.5 612.5 l 1
 562.5 643.75 l 1
 562.5 675 l 1
 531.25 675 l 1
 500 675 l 1
 500 706.25 l 1
187.5 393.75 m 1
 187.5 487.5 l 1
 468.75 487.5 l 1
 750 487.5 l 1
 750 393.75 l 1
 750 300 l 1
 781.25 300 l 1
 812.5 300 l 1
 812.5 268.75 l 1
 812.5 237.5 l 1
 843.75 237.5 l 1
 875 237.5 l 1
 875 206.25 l 1
 875 175 l 1
 843.75 175 l 1
 812.5 175 l 1
 812.5 18.75 l 1
 812.5 -137.5 l 1
 781.25 -137.5 l 1
 750 -137.5 l 1
 750 -168.75 l 1
 750 -200 l 1
 718.75 -200 l 1
 687.5 -200 l 1
 687.5 -168.75 l 1
 687.5 -137.5 l 1
 656.25 -137.5 l 1
 625 -137.5 l 1
 625 -106.25 l 1
 625 -75 l 1
 656.25 -75 l 1
 687.5 -75 l 1
 687.5 -106.25 l 1
 687.5 -137.5 l 1
 718.75 -137.5 l 1
 750 -137.5 l 1
 750 18.75 l 1
 750 175 l 1
 687.5 175 l 1
 625 175 l 1
 625 143.75 l 1
 625 112.5 l 1
 656.25 112.5 l 1
 687.5 112.5 l 1
 687.5 81.25 l 1
 687.5 50 l 1
 656.25 50 l 1
 625 50 l 1
 625 18.75 l 1
 625 -12.5 l 1
 593.75 -12.5 l 1
 562.5 -12.5 l 1
 562.5 -43.75 l 1
 562.5 -75 l 1
 531.25 -75 l 1
 500 -75 l 1
 500 -43.75 l 1
 500 -12.5 l 1
 531.25 -12.5 l 1
 562.5 -12.5 l 1
 562.5 18.75 l 1
 562.5 50 l 1
 593.75 50 l 1
 625 50 l 1
 625 81.25 l 1
 625 112.5 l 1
 593.75 112.5 l 1
 562.5 112.5 l 1
 562.5 143.75 l 1
 562.5 175 l 1
 500 175 l 1
 437.5 175 l 1
 437.5 18.75 l 1
 437.5 -137.5 l 1
 406.25 -137.5 l 1
 375 -137.5 l 1
 375 -168.75 l 1
 375 -200 l 1
 343.75 -200 l 1
 312.5 -200 l 1
 312.5 -168.75 l 1
 312.5 -137.5 l 1
 281.25 -137.5 l 1
 250 -137.5 l 1
 250 -106.25 l 1
 250 -75 l 1
 281.25 -75 l 1
 312.5 -75 l 1
 312.5 -106.25 l 1
 312.5 -137.5 l 1
 343.75 -137.5 l 1
 375 -137.5 l 1
 375 18.75 l 1
 375 175 l 1
 312.5 175 l 1
 250 175 l 1
 250 143.75 l 1
 250 112.5 l 1
 281.25 112.5 l 1
 312.5 112.5 l 1
 312.5 81.25 l 1
 312.5 50 l 1
 281.25 50 l 1
 250 50 l 1
 250 18.75 l 1
 250 -12.5 l 1
 218.75 -12.5 l 1
 187.5 -12.5 l 1
 187.5 -43.75 l 1
 187.5 -75 l 1
 156.25 -75 l 1
 125 -75 l 1
 125 -43.75 l 1
 125 -12.5 l 1
 156.25 -12.5 l 1
 187.5 -12.5 l 1
 187.5 18.75 l 1
 187.5 50 l 1
 218.75 50 l 1
 250 50 l 1
 250 81.25 l 1
 250 112.5 l 1
 218.75 112.5 l 1
 187.5 112.5 l 1
 187.5 143.75 l 1
 187.5 175 l 1
 125 175 l 1
 62.5 175 l 1
 62.5 206.25 l 1
 62.5 237.5 l 1
 218.75 237.5 l 1
 375 237.5 l 1
 375 268.75 l 1
 375 300 l 1
 281.25 300 l 1
 187.5 300 l 1
 187.5 393.75 l 1
687.5 393.75 m 1
 687.5 425 l 1
 468.75 425 l 1
 250 425 l 1
 250 393.75 l 1
 250 362.5 l 1
 468.75 362.5 l 1
 687.5 362.5 l 1
 687.5 393.75 l 1
750 268.75 m 1
 750 300 l 1
 593.75 300 l 1
 437.5 300 l 1
 437.5 268.75 l 1
 437.5 237.5 l 1
 593.75 237.5 l 1
 750 237.5 l 1
 750 268.75 l 1
EndSplineSet
EndChar

StartChar: uni7FE5
Encoding: 32741 32741 4
Width: 1000
VWidth: 0
Flags: H
LayerCount: 2
Fore
SplineSet
375 768.75 m 1
 375 800 l 1
 406.25 800 l 1
 437.5 800 l 1
 437.5 768.75 l 1
 437.5 737.5 l 1
 531.25 737.5 l 1
 625 737.5 l 1
 625 768.75 l 1
 625 800 l 1
 656.25 800 l 1
 687.5 800 l 1
 687.5 768.75 l 1
 687.5 737.5 l 1
 656.25 737.5 l 1
 625 737.5 l 1
 625 706.25 l 1
 625 675 l 1
 593.75 675 l 1
 562.5 675 l 1
 562.5 643.75 l 1
 562.5 612.5 l 1
 687.5 612.5 l 1
 812.5 612.5 l 1
 812.5 643.75 l 1
 812.5 675 l 1
 843.75 675 l 1
 875 675 l 1
 875 643.75 l 1
 875 612.5 l 1
 906.25 612.5 l 1
 937.5 612.5 l 1
 937.5 581.25 l 1
 937.5 550 l 1
 687.5 550 l 1
 437.5 550 l 1
 437.5 518.75 l 1
 437.5 487.5 l 1
 625 487.5 l 1
 812.5 487.5 l 1
 812.5 331.25 l 1
 812.5 175 l 1
 843.75 175 l 1
 875 175 l 1
 875 143.75 l 1
 875 112.5 l 1
 906.25 112.5 l 1
 937.5 112.5 l 1
 937.5 81.25 l 1
 937.5 50 l 1
 906.25 50 l 1
 875 50 l 1
 875 -75 l 1
 875 -200 l 1
 812.5 -200 l 1
 750 -200 l 1
 750 -168.75 l 1
 750 -137.5 l 1
 781.25 -137.5 l 1
 812.5 -137.5 l 1
 812.5 -43.75 l 1
 812.5 50 l 1
 718.75 50 l 1
 625 50 l 1
 625 18.75 l 1
 625 -12.5 l 1
 687.5 -12.5 l 1
 750 -12.5 l 1
 750 -43.75 l 1
 750 -75 l 1
 687.5 -75 l 1
 625 -75 l 1
 625 -106.25 l 1
 625 -137.5 l 1
 562.5 -137.5 l 1
 500 -137.5 l 1
 500 -106.25 l 1
 500 -75 l 1
 562.5 -75 l 1
 625 -75 l 1
 625 -43.75 l 1
 625 -12.5 l 1
 593.75 -12.5 l 1
 562.5 -12.5 l 1
 562.5 18.75 l 1
 562.5 50 l 1
 531.25 50 l 1
 500 50 l 1
 500 81.25 l 1
 500 112.5 l 1
 656.25 112.5 l 1
 812.5 112.5 l 1
 812.5 143.75 l 1
 812.5 175 l 1
 531.25 175 l 1
 250 175 l 1
 250 268.75 l 1
 250 362.5 l 1
 187.5 362.5 l 1
 125 362.5 l 1
 125 331.25 l 1
 125 300 l 1
 62.5 300 l 1
 0 300 l 1
 0 331.25 l 1
 0 362.5 l 1
 62.5 362.5 l 1
 125 362.5 l 1
 125 393.75 l 1
 125 425 l 1
 187.5 425 l 1
 250 425 l 1
 250 456.25 l 1
 250 487.5 l 1
 312.5 487.5 l 1
 375 487.5 l 1
 375 518.75 l 1
 375 550 l 1
 187.5 550 l 1
 0 550 l 1
 0 581.25 l 1
 0 612.5 l 1
 187.5 612.5 l 1
 375 612.5 l 1
 375 643.75 l 1
 375 675 l 1
 281.25 675 l 1
 187.5 675 l 1
 187.5 706.25 l 1
 187.5 737.5 l 1
 281.25 737.5 l 1
 375 737.5 l 1
 375 768.75 l 1
500 643.75 m 1
 500 675 l 1
 468.75 675 l 1
 437.5 675 l 1
 437.5 643.75 l 1
 437.5 612.5 l 1
 468.75 612.5 l 1
 500 612.5 l 1
 500 643.75 l 1
750 393.75 m 1
 750 425 l 1
 531.25 425 l 1
 312.5 425 l 1
 312.5 393.75 l 1
 312.5 362.5 l 1
 531.25 362.5 l 1
 750 362.5 l 1
 750 393.75 l 1
750 268.75 m 1
 750 300 l 1
 531.25 300 l 1
 312.5 300 l 1
 312.5 268.75 l 1
 312.5 237.5 l 1
 531.25 237.5 l 1
 750 237.5 l 1
 750 268.75 l 1
62.5 81.25 m 1
 62.5 112.5 l 1
 250 112.5 l 1
 437.5 112.5 l 1
 437.5 -43.75 l 1
 437.5 -200 l 1
 375 -200 l 1
 312.5 -200 l 1
 312.5 -168.75 l 1
 312.5 -137.5 l 1
 343.75 -137.5 l 1
 375 -137.5 l 1
 375 -43.75 l 1
 375 50 l 1
 281.25 50 l 1
 187.5 50 l 1
 187.5 18.75 l 1
 187.5 -12.5 l 1
 250 -12.5 l 1
 312.5 -12.5 l 1
 312.5 -43.75 l 1
 312.5 -75 l 1
 250 -75 l 1
 187.5 -75 l 1
 187.5 -106.25 l 1
 187.5 -137.5 l 1
 125 -137.5 l 1
 62.5 -137.5 l 1
 62.5 -106.25 l 1
 62.5 -75 l 1
 125 -75 l 1
 187.5 -75 l 1
 187.5 -43.75 l 1
 187.5 -12.5 l 1
 156.25 -12.5 l 1
 125 -12.5 l 1
 125 18.75 l 1
 125 50 l 1
 93.75 50 l 1
 62.5 50 l 1
 62.5 81.25 l 1
EndSplineSet
EndChar

StartChar: uni63E0
Encoding: 25568 25568 5
Width: 1000
VWidth: 0
Flags: H
LayerCount: 2
Fore
SplineSet
187.5 675 m 1
 187.5 800 l 1
 218.75 800 l 1
 250 800 l 1
 250 675 l 1
 250 550 l 1
 281.25 550 l 1
 312.5 550 l 1
 312.5 643.75 l 1
 312.5 737.5 l 1
 531.25 737.5 l 1
 750 737.5 l 1
 750 768.75 l 1
 750 800 l 1
 781.25 800 l 1
 812.5 800 l 1
 812.5 768.75 l 1
 812.5 737.5 l 1
 843.75 737.5 l 1
 875 737.5 l 1
 875 706.25 l 1
 875 675 l 1
 625 675 l 1
 375 675 l 1
 375 456.25 l 1
 375 237.5 l 1
 468.75 237.5 l 1
 562.5 237.5 l 1
 562.5 268.75 l 1
 562.5 300 l 1
 500 300 l 1
 437.5 300 l 1
 437.5 456.25 l 1
 437.5 612.5 l 1
 625 612.5 l 1
 812.5 612.5 l 1
 812.5 456.25 l 1
 812.5 300 l 1
 718.75 300 l 1
 625 300 l 1
 625 268.75 l 1
 625 237.5 l 1
 781.25 237.5 l 1
 937.5 237.5 l 1
 937.5 206.25 l 1
 937.5 175 l 1
 875 175 l 1
 812.5 175 l 1
 812.5 143.75 l 1
 812.5 112.5 l 1
 781.25 112.5 l 1
 750 112.5 l 1
 750 81.25 l 1
 750 50 l 1
 718.75 50 l 1
 687.5 50 l 1
 687.5 18.75 l 1
 687.5 -12.5 l 1
 750 -12.5 l 1
 812.5 -12.5 l 1
 812.5 -43.75 l 1
 687.5 -137.5 l 1
 656.25 -137.5 l 1
 625 -137.5 l 1
 625 -106.25 l 1
 625 -75 l 1
 656.25 -75 l 1
 687.5 -75 l 1
 687.5 -106.25 l 1
 687.5 -137.5 l 1
 718.75 -137.5 l 1
 750 -137.5 l 1
 750 50 l 1
 750 237.5 l 1
 593.75 237.5 l 1
 437.5 237.5 l 1
 437.5 112.5 l 1
 437.5 -12.5 l 1
 500 -12.5 l 1
 562.5 -12.5 l 1
 562.5 18.75 l 1
 562.5 50 l 1
 593.75 50 l 1
 625 50 l 1
 625 81.25 l 1
 625 112.5 l 1
 593.75 112.5 l 1
 562.5 112.5 l 1
 562.5 143.75 l 1
 562.5 175 l 1
 593.75 175 l 1
 625 175 l 1
 625 143.75 l 1
 625 112.5 l 1
 656.25 112.5 l 1
 687.5 112.5 l 1
 687.5 81.25 l 1
 687.5 50 l 1
 656.25 50 l 1
 625 50 l 1
 625 18.75 l 1
 625 -12.5 l 1
 593.75 -12.5 l 1
 562.5 -12.5 l 1
 562.5 -43.75 l 1
 562.5 -75 l 1
 500 -75 l 1
 437.5 -75 l 1
 437.5 -106.25 l 1
 437.5 -137.5 l 1
 406.25 -137.5 l 1
 375 -137.5 l 1
 375 -168.75 l 1
 375 -200 l 1
 343.75 -200 l 1
 312.5 -200 l 1
 312.5 -168.75 l 1
 312.5 -137.5 l 1
 281.25 -137.5 l 1
 250 -137.5 l 1
 250 -106.25 l 1
 250 -75 l 1
 281.25 -75 l 1
 312.5 -75 l 1
 312.5 -106.25 l 1
 312.5 -137.5 l 1
 343.75 -137.5 l 1
 375 -137.5 l 1
 375 50 l 1
 375 237.5 l 1
 281.25 237.5 l 1
 187.5 237.5 l 1
 187.5 206.25 l 1
 187.5 175 l 1
 218.75 175 l 1
 250 175 l 1
 250 143.75 l 1
 250 112.5 l 1
 281.25 112.5 l 1
 312.5 112.5 l 1
 312.5 81.25 l 1
 312.5 50 l 1
 281.25 50 l 1
 250 50 l 1
 250 18.75 l 1
 250 -12.5 l 1
 218.75 -12.5 l 1
 187.5 -12.5 l 1
 187.5 -43.75 l 1
 187.5 -75 l 1
 125 -75 l 1
 62.5 -75 l 1
 62.5 -43.75 l 1
 62.5 -12.5 l 1
 125 -12.5 l 1
 187.5 -12.5 l 1
 187.5 18.75 l 1
 187.5 50 l 1
 218.75 50 l 1
 250 50 l 1
 250 81.25 l 1
 250 112.5 l 1
 218.75 112.5 l 1
 187.5 112.5 l 1
 187.5 143.75 l 1
 187.5 175 l 1
 156.25 175 l 1
 125 175 l 1
 125 206.25 l 1
 125 237.5 l 1
 93.75 237.5 l 1
 62.5 237.5 l 1
 62.5 268.75 l 1
 62.5 300 l 1
 218.75 300 l 1
 375 300 l 1
 375 331.25 l 1
 375 362.5 l 1
 187.5 362.5 l 1
 0 362.5 l 1
 0 393.75 l 1
 0 425 l 1
 187.5 425 l 1
 375 425 l 1
 375 456.25 l 1
 375 487.5 l 1
 250 487.5 l 1
 125 487.5 l 1
 125 518.75 l 1
 125 550 l 1
 250 550 l 1
 375 550 l 1
 375 581.25 l 1
 375 612.5 l 1
 218.75 612.5 l 1
 62.5 612.5 l 1
 62.5 643.75 l 1
 62.5 675 l 1
 218.75 675 l 1
 375 675 l 1
 375 737.5 l 1025
750 331.25 m 1
 750 362.5 l 1
 656.25 362.5 l 1
 562.5 362.5 l 1
 562.5 331.25 l 1
 562.5 300 l 1
 656.25 300 l 1
 750 300 l 1
 750 331.25 l 1
EndSplineSet
EndChar

StartChar: uni9CD0
Encoding: 40144 40144 6
Width: 1000
VWidth: 0
Flags: H
LayerCount: 2
Fore
SplineSet
125 706.25 m 1
 125 800 l 1
 156.25 800 l 1
 187.5 800 l 1
 187.5 737.5 l 1
 187.5 675 l 1
 281.25 675 l 1
 375 675 l 1
 375 643.75 l 1
 375 612.5 l 1
 343.75 612.5 l 1
 312.5 612.5 l 1
 312.5 581.25 l 1
 312.5 550 l 1
 281.25 550 l 1
 250 550 l 1
 250 518.75 l 1
 250 487.5 l 1
 312.5 487.5 l 1
 375 487.5 l 1
 375 331.25 l 1
 375 175 l 1
 500 175 l 1
 625 175 l 1
 625 237.5 l 1
 625 300 l 1
 562.5 300 l 1
 500 300 l 1
 500 268.75 l 1
 500 237.5 l 1
 468.75 237.5 l 1
 437.5 237.5 l 1
 437.5 268.75 l 1
 437.5 300 l 1
 468.75 300 l 1
 500 300 l 1
 500 393.75 l 1
 500 487.5 l 1
 468.75 487.5 l 1
 437.5 487.5 l 1
 437.5 518.75 l 1
 437.5 550 l 1
 468.75 550 l 1
 500 550 l 1
 500 518.75 l 1
 500 487.5 l 1
 531.25 487.5 l 1
 562.5 487.5 l 1
 562.5 425 l 1
 562.5 362.5 l 1
 718.75 362.5 l 1
 875 362.5 l 1
 875 331.25 l 1
 875 300 l 1
 781.25 300 l 1
 687.5 300 l 1
 687.5 237.5 l 1
 687.5 175 l 1
 750 175 l 1
 812.5 175 l 1
 812.5 206.25 l 1
 812.5 237.5 l 1
 843.75 237.5 l 1
 875 237.5 l 1
 875 206.25 l 1
 875 175 l 1
 906.25 175 l 1
 937.5 175 l 0
 937.5 143.75 l 1
 937.5 112.5 l 1
 812.5 112.5 l 1
 687.5 112.5 l 1
 687.5 18.75 l 1
 687.5 -75 l 1
 750 -75 l 1
 812.5 -75 l 1
 812.5 -12.5 l 1
 812.5 50 l 1
 843.75 50 l 1
 875 50 l 1
 875 -75 l 1
 875 -200 l 1
 843.75 -200 l 1
 812.5 -200 l 1
 812.5 -168.75 l 1
 812.5 -137.5 l 1
 656.25 -137.5 l 1
 500 -137.5 l 1
 500 -168.75 l 1
 500 -200 l 1
 468.75 -200 l 1
 437.5 -200 l 1
 437.5 -75 l 1
 437.5 50 l 1
 468.75 50 l 1
 500 50 l 1
 500 -12.5 l 1
 500 -75 l 1
 562.5 -75 l 1
 625 -75 l 1
 625 18.75 l 1
 625 112.5 l 1
 500 112.5 l 1
 375 112.5 l 1
 375 81.25 l 1
 375 50 l 1
 218.75 50 l 1
 62.5 50 l 1
 62.5 268.75 l 1
 62.5 487.5 l 1
 31.25 487.5 l 1
 0 487.5 l 1
 0 518.75 l 1
 0 550 l 1
 31.25 550 l 1
 62.5 550 l 1
 62.5 581.25 l 1
 62.5 612.5 l 1
 93.75 612.5 l 1
 125 612.5 l 1
 125 706.25 l 1
250 581.25 m 1
 250 612.5 l 1
 187.5 612.5 l 1
 125 612.5 l 1
 125 581.25 l 1
 125 550 l 1
 93.75 550 l 1
 62.5 550 l 1
 62.5 518.75 l 1
 62.5 487.5 l 1
 125 487.5 l 1
 187.5 487.5 l 1
 187.5 518.75 l 1
 187.5 550 l 1
 218.75 550 l 1
 250 550 l 1
 250 581.25 l 1
187.5 362.5 m 1
 187.5 425 l 1
 156.25 425 l 1
 125 425 l 1
 125 362.5 l 1
 125 300 l 1
 156.25 300 l 1
 187.5 300 l 1
 187.5 362.5 l 1
312.5 362.5 m 1
 312.5 425 l 1
 281.25 425 l 1
 250 425 l 1
 250 362.5 l 1
 250 300 l 1
 281.25 300 l 1
 312.5 300 l 1
 312.5 362.5 l 1
187.5 175 m 1
 187.5 237.5 l 1
 156.25 237.5 l 1
 125 237.5 l 1
 125 175 l 1
 125 112.5 l 1
 156.25 112.5 l 1
 187.5 112.5 l 1
 187.5 175 l 1
312.5 175 m 1
 312.5 237.5 l 1
 281.25 237.5 l 1
 250 237.5 l 1
 250 175 l 1
 250 112.5 l 1
 281.25 112.5 l 1
 312.5 112.5 l 1
 312.5 175 l 1
750 768.75 m 1
 750 800 l 1
 781.25 800 l 1
 812.5 800 l 1
 812.5 768.75 l 1
 812.5 737.5 l 1
 843.75 737.5 l 1
 875 737.5 l 1
 875 706.25 l 1
 875 675 l 1
 781.25 675 l 1
 687.5 675 l 1
 687.5 643.75 l 1
 687.5 612.5 l 1
 562.5 612.5 l 1
 437.5 612.5 l 1
 437.5 643.75 l 1
 437.5 675 l 1
 562.5 675 l 1
 687.5 675 l 1
 687.5 706.25 l 1
 687.5 737.5 l 1
 718.75 737.5 l 1
 750 737.5 l 1
 750 768.75 l 1
812.5 550 m 1
 812.5 612.5 l 1
 843.75 612.5 l 1
 875 612.5 l 1
 875 550 l 1
 875 487.5 l 1
 843.75 487.5 l 1
 812.5 487.5 l 1
 812.5 456.25 l 1
 812.5 425 l 1
 781.25 425 l 1
 750 425 l 1
 750 456.25 l 1
 750 487.5 l 1
 781.25 487.5 l 1
 812.5 487.5 l 1
 812.5 550 l 1
625 487.5 m 1
 625 550 l 1
 656.25 550 l 1
 687.5 550 l 1
 687.5 487.5 l 1
 687.5 425 l 1
 656.25 425 l 1
 625 425 l 1
 625 487.5 l 1
187.5 -43.75 m 1
 187.5 -12.5 l 1
 281.25 -12.5 l 1
 375 -12.5 l 1
 375 -43.75 l 1
 375 -75 l 1
 281.25 -75 l 1
 187.5 -75 l 1
 187.5 -106.25 l 1
 187.5 -137.5 l 1
 156.25 -137.5 l 1
 125 -137.5 l 1
 125 -168.75 l 1
 125 -200 l 1
 93.75 -200 l 1
 62.5 -200 l 1
 62.5 -168.75 l 1
 62.5 -137.5 l 1
 31.25 -137.5 l 1
 0 -137.5 l 1
 0 -106.25 l 1
 0 -75 l 1
 93.75 -75 l 1
 187.5 -75 l 1
 187.5 -43.75 l 1
EndSplineSet
EndChar

StartChar: uni9CD3
Encoding: 40147 40147 7
Width: 1000
VWidth: 0
Flags: H
LayerCount: 2
Fore
SplineSet
125 737.5 m 1
 125 800 l 1
 156.25 800 l 1
 187.5 800 l 1
 187.5 737.5 l 1
 187.5 675 l 1
 312.5 675 l 1
 437.5 675 l 1
 437.5 737.5 l 1
 437.5 800 l 1
 468.75 800 l 1
 500 800 l 1
 500 737.5 l 1
 500 675 l 1
 531.25 675 l 1
 562.5 675 l 1
 562.5 737.5 l 1
 562.5 800 l 1
 593.75 800 l 1
 625 800 l 1
 625 737.5 l 1
 625 675 l 1
 687.5 675 l 1
 750 675 l 1
 750 737.5 l 1
 750 800 l 1
 781.25 800 l 1
 812.5 800 l 1
 812.5 643.75 l 1
 812.5 487.5 l 1
 875 487.5 l 1
 937.5 487.5 l 1
 937.5 143.75 l 1
 937.5 -200 l 1
 875 -200 l 1
 812.5 -200 l 1
 812.5 -168.75 l 1
 812.5 -137.5 l 1
 843.75 -137.5 l 1
 875 -137.5 l 1
 875 143.75 l 1
 875 425 l 1
 843.75 425 l 1
 812.5 425 l 1
 812.5 175 l 1
 812.5 -75 l 1
 781.25 -75 l 1
 750 -75 l 1
 750 -106.25 l 1
 750 -137.5 l 1
 718.75 -137.5 l 1
 687.5 -137.5 l 1
 687.5 -168.75 l 1
 687.5 -200 l 1
 656.25 -200 l 1
 625 -200 l 1
 625 -168.75 l 1
 625 -137.5 l 1
 656.25 -137.5 l 1
 687.5 -137.5 l 1
 687.5 -106.25 l 1
 687.5 -75 l 1
 718.75 -75 l 1
 750 -75 l 1
 750 175 l 1
 750 425 l 1
 718.75 425 l 1
 687.5 425 l 1
 687.5 268.75 l 1
 687.5 112.5 l 1
 625 112.5 l 1
 562.5 112.5 l 1
 562.5 81.25 l 1
 562.5 50 l 1
 625 50 l 1
 687.5 50 l 1
 687.5 18.75 l 1
 687.5 -12.5 l 1
 625 -12.5 l 1
 562.5 -12.5 l 1
 562.5 -106.25 l 1
 562.5 -200 l 1
 531.25 -200 l 1
 500 -200 l 1
 500 -106.25 l 1
 500 -12.5 l 1
 406.25 -12.5 l 1
 312.5 -12.5 l 1
 312.5 -43.75 l 1
 312.5 -75 l 1
 250 -75 l 1
 187.5 -75 l 1
 187.5 -106.25 l 1
 187.5 -137.5 l 1
 156.25 -137.5 l 1
 125 -137.5 l 1
 125 -168.75 l 1
 125 -200 l 1
 93.75 -200 l 1
 62.5 -200 l 1
 62.5 -168.75 l 1
 62.5 -137.5 l 1
 31.25 -137.5 l 1
 0 -137.5 l 1
 0 -106.25 l 1
 0 -75 l 1
 93.75 -75 l 1
 187.5 -75 l 1
 187.5 -43.75 l 1
 187.5 -12.5 l 1
 250 -12.5 l 1
 312.5 -12.5 l 1
 312.5 18.75 l 1
 312.5 50 l 1
 156.25 50 l 1
 0 50 l 1
 0 268.75 l 1
 0 487.5 l 1
 62.5 487.5 l 1
 125 487.5 l 1
 125 518.75 l 1
 125 550 l 1
 156.25 550 l 1
 187.5 550 l 1
 187.5 581.25 l 1
 187.5 612.5 l 1
 125 612.5 l 1
 62.5 612.5 l 1
 62.5 581.25 l 1
 62.5 550 l 1
 31.25 550 l 1
 0 550 l 1
 0 581.25 l 1
 0 612.5 l 1
 31.25 612.5 l 1
 62.5 612.5 l 1
 62.5 643.75 l 1
 62.5 675 l 1
 93.75 675 l 1
 125 675 l 1
 125 737.5 l 1
437.5 550 m 1
 437.5 612.5 l 1
 343.75 612.5 l 1
 250 612.5 l 1
 250 581.25 l 1
 250 550 l 1
 218.75 550 l 1
 187.5 550 l 1
 187.5 518.75 l 1
 187.5 487.5 l 1
 250 487.5 l 1
 312.5 487.5 l 1
 312.5 268.75 l 1
 312.5 50 l 1
 406.25 50 l 1
 500 50 l 1
 500 81.25 l 1
 500 112.5 l 1
 437.5 112.5 l 1
 375 112.5 l 1
 375 268.75 l 1
 375 425 l 1
 437.5 425 l 1
 500 425 l 1
 500 456.25 l 1
 500 487.5 l 1
 468.75 487.5 l 1
 437.5 487.5 l 1
 437.5 550 l 1
562.5 581.25 m 1
 562.5 612.5 l 1
 531.25 612.5 l 1
 500 612.5 l 1
 500 581.25 l 1
 500 550 l 1
 531.25 550 l 1
 562.5 550 l 1
 562.5 581.25 l 1
750 550 m 1
 750 612.5 l 1
 687.5 612.5 l 1
 625 612.5 l 1
 625 550 l 1
 625 487.5 l 1
 593.75 487.5 l 1
 562.5 487.5 l 1
 562.5 456.25 l 1
 562.5 425 l 1
 625 425 l 1
 687.5 425 l 1
 687.5 456.25 l 1
 687.5 487.5 l 1
 718.75 487.5 l 1
 750 487.5 l 1
 750 550 l 1
125 362.5 m 1
 125 425 l 1
 93.75 425 l 1
 62.5 425 l 1
 62.5 362.5 l 1
 62.5 300 l 1
 93.75 300 l 1
 125 300 l 1
 125 362.5 l 1
250 362.5 m 1
 250 425 l 1
 218.75 425 l 1
 187.5 425 l 1
 187.5 362.5 l 1
 187.5 300 l 1
 218.75 300 l 1
 250 300 l 1
 250 362.5 l 1
500 268.75 m 1
 500 362.5 l 1
 468.75 362.5 l 1
 437.5 362.5 l 1
 437.5 268.75 l 1
 437.5 175 l 1
 468.75 175 l 1
 500 175 l 1
 500 268.75 l 1
625 268.75 m 1
 625 362.5 l 1
 593.75 362.5 l 1
 562.5 362.5 l 1
 562.5 268.75 l 1
 562.5 175 l 1
 593.75 175 l 1
 625 175 l 1
 625 268.75 l 1
125 175 m 1
 125 237.5 l 1
 93.75 237.5 l 1
 62.5 237.5 l 1
 62.5 175 l 1
 62.5 112.5 l 1
 93.75 112.5 l 1
 125 112.5 l 1
 125 175 l 1
250 175 m 1
 250 237.5 l 1
 218.75 237.5 l 1
 187.5 237.5 l 1
 187.5 175 l 1
 187.5 112.5 l 1
 218.75 112.5 l 1
 250 112.5 l 1
 250 175 l 1
EndSplineSet
EndChar

StartChar: uni4FBF
Encoding: 20415 20415 8
Width: 1000
VWidth: 0
Flags: H
LayerCount: 2
Fore
SplineSet
187.5 675 m 1
 187.5 800 l 1
 218.75 800 l 1
 250 800 l 1
 250 675 l 1
 250 550 l 1
 218.75 550 l 1
 187.5 550 l 1
 187.5 175 l 1
 187.5 -200 l 1
 156.25 -200 l 1
 125 -200 l 1
 125 81.25 l 1
 125 362.5 l 1
 93.75 362.5 l 1
 62.5 362.5 l 1
 62.5 331.25 l 1
 62.5 300 l 1
 31.25 300 l 1
 0 300 l 1
 0 331.25 l 1
 0 362.5 l 1
 31.25 362.5 l 1
 62.5 362.5 l 1
 62.5 393.75 l 1
 62.5 425 l 1
 93.75 425 l 1
 125 425 l 1
 125 487.5 l 1
 125 550 l 1
 156.25 550 l 1
 187.5 550 l 1
 187.5 675 l 1
812.5 768.75 m 1
 812.5 800 l 1
 843.75 800 l 1
 875 800 l 1
 875 768.75 l 1
 875 737.5 l 1
 906.25 737.5 l 1
 937.5 737.5 l 1
 937.5 706.25 l 1
 937.5 675 l 1
 781.25 675 l 1
 625 675 l 1
 625 612.5 l 1
 625 550 l 1
 718.75 550 l 1
 812.5 550 l 1
 812.5 581.25 l 1
 812.5 612.5 l 1
 843.75 612.5 l 1
 875 612.5 l 1
 875 581.25 l 1
 875 550 l 1
 906.25 550 l 1
 937.5 550 l 1
 937.5 518.75 l 1
 937.5 487.5 l 1
 906.25 487.5 l 1
 875 487.5 l 1
 875 331.25 l 1
 875 175 l 1
 843.75 175 l 1
 812.5 175 l 1
 812.5 206.25 l 1
 812.5 237.5 l 1
 718.75 237.5 l 1
 625 237.5 l 1
 625 143.75 l 1
 625 50 l 1
 593.75 50 l 1
 562.5 50 l 1
 562.5 18.75 l 1
 562.5 -12.5 l 1
 625 -12.5 l 1
 687.5 -12.5 l 1
 687.5 -43.75 l 1
 687.5 -75 l 1
 812.5 -75 l 1
 937.5 -75 l 1
 937.5 -106.25 l 1
 937.5 -137.5 l 1
 906.25 -137.5 l 1
 875 -137.5 l 1
 875 -168.75 l 1
 875 -200 l 1
 843.75 -200 l 1
 812.5 -200 l 1
 812.5 -168.75 l 1
 812.5 -137.5 l 1
 750 -137.5 l 1
 687.5 -137.5 l 1
 687.5 -106.25 l 1
 687.5 -75 l 1
 625 -75 l 1
 562.5 -75 l 1
 562.5 -43.75 l 1
 562.5 -12.5 l 1
 531.25 -12.5 l 1
 500 -12.5 l 1
 500 -43.75 l 1
 500 -75 l 1
 468.75 -75 l 1
 437.5 -75 l 1
 437.5 -106.25 l 1
 437.5 -137.5 l 1
 406.25 -137.5 l 1
 375 -137.5 l 1
 375 -168.75 l 1
 375 -200 l 1
 312.5 -200 l 1
 250 -200 l 1
 250 -168.75 l 1
 250 -137.5 l 1
 312.5 -137.5 l 1
 375 -137.5 l 1
 375 -106.25 l 1
 375 -75 l 1
 406.25 -75 l 1
 437.5 -75 l 1
 437.5 -43.75 l 1
 437.5 -12.5 l 1
 468.75 -12.5 l 1
 500 -12.5 l 1
 500 18.75 l 1
 500 50 l 1
 468.75 50 l 1
 437.5 50 l 1
 437.5 81.25 l 1
 437.5 112.5 l 1
 406.25 112.5 l 1
 375 112.5 l 1
 375 143.75 l 1
 375 175 l 1
 343.75 175 l 1
 312.5 175 l 1
 312.5 362.5 l 1
 312.5 550 l 1
 437.5 550 l 1
 562.5 550 l 1
 562.5 612.5 l 1
 562.5 675 l 1
 437.5 675 l 1
 312.5 675 l 1
 312.5 706.25 l 1
 312.5 737.5 l 1
 562.5 737.5 l 1
 812.5 737.5 l 1
 812.5 768.75 l 1
562.5 456.25 m 1
 562.5 487.5 l 1
 468.75 487.5 l 1
 375 487.5 l 1
 375 456.25 l 1
 375 425 l 1
 468.75 425 l 1
 562.5 425 l 1
 562.5 456.25 l 1
812.5 456.25 m 1
 812.5 487.5 l 1
 718.75 487.5 l 1
 625 487.5 l 1
 625 456.25 l 1
 625 425 l 1
 718.75 425 l 1
 812.5 425 l 1
 812.5 456.25 l 1
562.5 331.25 m 1
 562.5 362.5 l 1
 468.75 362.5 l 1
 375 362.5 l 1
 375 331.25 l 1
 375 300 l 1
 468.75 300 l 1
 562.5 300 l 1
 562.5 331.25 l 1
812.5 331.25 m 1
 812.5 362.5 l 1
 718.75 362.5 l 1
 625 362.5 l 1
 625 331.25 l 1
 625 300 l 1
 718.75 300 l 1
 812.5 300 l 1
 812.5 331.25 l 1
562.5 143.75 m 1
 562.5 237.5 l 1
 468.75 237.5 l 1
 375 237.5 l 1
 375 206.25 l 1
 375 175 l 1
 406.25 175 l 1
 437.5 175 l 1
 437.5 143.75 l 1
 437.5 112.5 l 1
 468.75 112.5 l 1
 500 112.5 l 1
 500 81.25 l 1
 500 50 l 1
 531.25 50 l 1
 562.5 50 l 1
 562.5 143.75 l 1
EndSplineSet
EndChar

StartChar: uni53D8
Encoding: 21464 21464 9
Width: 1000
VWidth: 0
Flags: H
LayerCount: 2
Fore
SplineSet
375 768.75 m 1
 375 800 l 1
 406.25 800 l 1
 437.5 800 l 1
 437.5 768.75 l 1
 437.5 737.5 l 1
 468.75 737.5 l 1
 500 737.5 l 1
 500 706.25 l 1
 500 675 l 1
 625 675 l 1
 750 675 l 1
 750 706.25 l 1
 750 737.5 l 1
 781.25 737.5 l 1
 812.5 737.5 l 1
 812.5 706.25 l 1
 812.5 675 l 1
 843.75 675 l 1
 875 675 l 1
 875 643.75 l 1
 875 612.5 l 1
 750 612.5 l 1
 625 612.5 l 1
 625 456.25 l 1
 625 300 l 1
 687.5 300 l 1
 750 300 l 1
 750 268.75 l 1
 750 237.5 l 1
 718.75 237.5 l 1
 687.5 237.5 l 1
 687.5 206.25 l 1
 687.5 175 l 1
 656.25 175 l 1
 625 175 l 1
 625 143.75 l 1
 625 112.5 l 1
 593.75 112.5 l 1
 562.5 112.5 l 1
 562.5 81.25 l 1
 562.5 50 l 1
 531.25 50 l 1
 500 50 l 1
 500 18.75 l 1
 500 -12.5 l 1
 562.5 -12.5 l 1
 625 -12.5 l 1
 625 -43.75 l 1
 625 -75 l 1
 750 -75 l 1
 875 -75 l 1
 875 -106.25 l 1
 875 -137.5 l 1
 843.75 -137.5 l 1
 812.5 -137.5 l 1
 812.5 -168.75 l 1
 812.5 -200 l 1
 781.25 -200 l 1
 750 -200 l 1
 750 -168.75 l 1
 750 -137.5 l 1
 687.5 -137.5 l 1
 625 -137.5 l 1
 625 -106.25 l 1
 625 -75 l 1
 562.5 -75 l 1
 500 -75 l 1
 500 -43.75 l 1
 500 -12.5 l 1
 468.75 -12.5 l 1
 437.5 -12.5 l 1
 437.5 -43.75 l 1
 437.5 -75 l 1
 406.25 -75 l 1
 375 -75 l 1
 375 -106.25 l 1
 375 -137.5 l 1
 312.5 -137.5 l 1
 250 -137.5 l 1
 250 -168.75 l 1
 250 -200 l 1
 187.5 -200 l 1
 125 -200 l 1
 125 -168.75 l 1
 125 -137.5 l 1
 187.5 -137.5 l 1
 250 -137.5 l 1
 250 -106.25 l 1
 250 -75 l 1
 312.5 -75 l 1
 375 -75 l 1
 375 -43.75 l 1
 375 -12.5 l 1
 406.25 -12.5 l 1
 437.5 -12.5 l 1
 437.5 18.75 l 1
 437.5 50 l 1
 406.25 50 l 1
 375 50 l 1
 375 81.25 l 1
 375 112.5 l 1
 343.75 112.5 l 1
 312.5 112.5 l 1
 312.5 143.75 l 1
 312.5 175 l 1
 281.25 175 l 1
 250 175 l 1
 250 206.25 l 1
 250 237.5 l 1
 218.75 237.5 l 1
 187.5 237.5 l 1
 187.5 268.75 l 1
 187.5 300 l 1
 250 300 l 1
 312.5 300 l 1
 312.5 456.25 l 1
 312.5 612.5 l 1
 187.5 612.5 l 1
 62.5 612.5 l 1
 62.5 643.75 l 1
 62.5 675 l 1
 250 675 l 1
 437.5 675 l 1
 437.5 706.25 l 1
 437.5 737.5 l 1
 406.25 737.5 l 1
 375 737.5 l 1
 375 768.75 l 1
562.5 456.25 m 1
 562.5 612.5 l 1
 468.75 612.5 l 1
 375 612.5 l 1
 375 456.25 l 1
 375 300 l 1
 468.75 300 l 1
 562.5 300 l 1
 562.5 456.25 l 1
625 206.25 m 1
 625 237.5 l 1
 468.75 237.5 l 1
 312.5 237.5 l 1
 312.5 206.25 l 1
 312.5 175 l 1
 343.75 175 l 1
 375 175 l 1
 375 143.75 l 1
 375 112.5 l 1
 406.25 112.5 l 1
 437.5 112.5 l 1
 437.5 81.25 l 1
 437.5 50 l 1
 468.75 50 l 1
 500 50 l 1
 500 81.25 l 1
 500 112.5 l 1
 531.25 112.5 l 1
 562.5 112.5 l 1
 562.5 143.75 l 1
 562.5 175 l 1
 593.75 175 l 1
 625 175 l 1
 625 206.25 l 1
187.5 487.5 m 1
 187.5 550 l 1
 218.75 550 l 1
 250 550 l 1
 250 487.5 l 1
 250 425 l 1
 218.75 425 l 1
 187.5 425 l 1
 187.5 393.75 l 1
 187.5 362.5 l 1
 156.25 362.5 l 1
 125 362.5 l 1
 125 331.25 l 1
 125 300 l 1
 93.75 300 l 1
 62.5 300 l 1
 62.5 331.25 l 1
 62.5 362.5 l 1
 93.75 362.5 l 1
 125 362.5 l 1
 125 393.75 l 1
 125 425 l 1
 156.25 425 l 1
 187.5 425 l 1
 187.5 487.5 l 1
687.5 518.75 m 1
 687.5 550 l 1
 718.75 550 l 1
 750 550 l 1
 750 518.75 l 1
 750 487.5 l 1
 781.25 487.5 l 1
 812.5 487.5 l 1
 812.5 456.25 l 1
 812.5 425 l 1
 843.75 425 l 1
 875 425 l 1
 875 362.5 l 1
 875 300 l 1
 843.75 300 l 1
 812.5 300 l 1
 812.5 331.25 l 1
 812.5 362.5 l 1
 781.25 362.5 l 1
 750 362.5 l 1
 750 425 l 1
 750 487.5 l 1
 718.75 487.5 l 1
 687.5 487.5 l 1
 687.5 518.75 l 1
EndSplineSet
EndChar

StartChar: uni535E
Encoding: 21342 21342 10
Width: 1000
VWidth: 0
Flags: H
LayerCount: 2
Fore
SplineSet
375 768.75 m 1
 375 800 l 1
 406.25 800 l 1
 437.5 800 l 1
 437.5 768.75 l 1
 437.5 737.5 l 1
 468.75 737.5 l 1
 500 737.5 l 1
 500 675 l 1
 500 612.5 l 1
 468.75 612.5 l 1
 437.5 612.5 l 1
 437.5 675 l 1
 437.5 737.5 l 1
 406.25 737.5 l 1
 375 737.5 l 1
 375 768.75 l 1
812.5 581.25 m 1
 812.5 612.5 l 1
 843.75 612.5 l 1
 875 612.5 l 1
 875 581.25 l 1
 875 550 l 1
 906.25 550 l 1
 937.5 550 l 1
 937.5 518.75 l 1
 937.5 487.5 l 1
 718.75 487.5 l 1
 500 487.5 l 1
 500 143.75 l 1
 500 -200 l 1
 468.75 -200 l 1
 437.5 -200 l 1
 437.5 143.75 l 1
 437.5 487.5 l 1
 218.75 487.5 l 1
 0 487.5 l 1
 0 518.75 l 1
 0 550 l 1
 406.25 550 l 1
 812.5 550 l 1
 812.5 581.25 l 1
562.5 331.25 m 1
 562.5 362.5 l 1
 593.75 362.5 l 1
 625 362.5 l 1
 625 331.25 l 1
 625 300 l 1
 656.25 300 l 1
 687.5 300 l 1
 687.5 268.75 l 1
 687.5 237.5 l 1
 718.75 237.5 l 1
 750 237.5 l 1
 750 175 l 1
 750 112.5 l 1
 718.75 112.5 l 1
 687.5 112.5 l 1
 687.5 175 l 1
 687.5 237.5 l 1
 656.25 237.5 l 1
 625 237.5 l 1
 625 268.75 l 1
 625 300 l 1
 593.75 300 l 1
 562.5 300 l 1
 562.5 331.25 l 1
EndSplineSet
EndChar

StartChar: uni8FA8
Encoding: 36776 36776 11
Width: 1000
VWidth: 0
Flags: H
LayerCount: 2
Fore
SplineSet
125 768.75 m 1
 125 800 l 1
 156.25 800 l 1
 187.5 800 l 1
 187.5 768.75 l 1
 187.5 737.5 l 1
 218.75 737.5 l 1
 250 737.5 l 1
 250 675 l 1
 250 612.5 l 1
 312.5 612.5 l 1
 375 612.5 l 1
 375 581.25 l 1
 375 550 l 1
 343.75 550 l 1
 312.5 550 l 1
 312.5 456.25 l 1
 312.5 362.5 l 1
 343.75 362.5 l 1
 375 362.5 l 1
 375 425 l 1
 375 487.5 l 1
 406.25 487.5 l 1
 437.5 487.5 l 1
 437.5 362.5 l 1
 437.5 237.5 l 1
 406.25 237.5 l 1
 375 237.5 l 1
 375 268.75 l 1
 375 300 l 1
 312.5 300 l 1
 250 300 l 1
 250 237.5 l 1
 250 175 l 1
 312.5 175 l 1
 375 175 l 1
 375 143.75 l 1
 375 112.5 l 1
 312.5 112.5 l 1
 250 112.5 l 1
 250 18.75 l 1
 250 -75 l 1
 218.75 -75 l 1
 187.5 -75 l 1
 187.5 -106.25 l 1
 187.5 -137.5 l 1
 156.25 -137.5 l 1
 125 -137.5 l 1
 125 -168.75 l 1
 125 -200 l 1
 93.75 -200 l 1
 62.5 -200 l 1
 62.5 -168.75 l 1
 62.5 -137.5 l 1
 93.75 -137.5 l 1
 125 -137.5 l 1
 125 -106.25 l 1
 125 -75 l 1
 156.25 -75 l 1
 187.5 -75 l 1
 187.5 18.75 l 1
 187.5 112.5 l 1
 93.75 112.5 l 1
 0 112.5 l 1
 0 143.75 l 1
 0 175 l 1
 93.75 175 l 1
 187.5 175 l 1
 187.5 237.5 l 1
 187.5 300 l 1
 93.75 300 l 1
 0 300 l 1
 0 331.25 l 1
 0 362.5 l 1
 62.5 362.5 l 1
 125 362.5 l 1
 125 425 l 1
 125 487.5 l 1
 156.25 487.5 l 1
 187.5 487.5 l 1
 187.5 425 l 1
 187.5 362.5 l 1
 218.75 362.5 l 1
 250 362.5 l 1
 250 456.25 l 1
 250 550 l 1
 156.25 550 l 1
 62.5 550 l 1
 62.5 581.25 l 1
 62.5 612.5 l 1
 125 612.5 l 1
 187.5 612.5 l 1
 187.5 675 l 1
 187.5 737.5 l 1
 156.25 737.5 l 1
 125 737.5 l 1
 125 768.75 l 1
687.5 768.75 m 1
 687.5 800 l 1
 718.75 800 l 1
 750 800 l 1
 750 768.75 l 1
 750 737.5 l 1
 781.25 737.5 l 1
 812.5 737.5 l 1
 812.5 675 l 1
 812.5 612.5 l 1
 875 612.5 l 1
 937.5 612.5 l 1
 937.5 581.25 l 1
 937.5 550 l 1
 906.25 550 l 1
 875 550 l 1
 875 456.25 l 1
 875 362.5 l 1
 906.25 362.5 l 1
 937.5 362.5 l 1
 937.5 331.25 l 1
 937.5 300 l 1
 875 300 l 1
 812.5 300 l 1
 812.5 237.5 l 1
 812.5 175 l 1
 875 175 l 1
 937.5 175 l 1
 937.5 143.75 l 1
 937.5 112.5 l 1
 875 112.5 l 1
 812.5 112.5 l 1
 812.5 -43.75 l 1
 812.5 -200 l 1
 781.25 -200 l 1
 750 -200 l 1
 750 -43.75 l 1
 750 112.5 l 1
 687.5 112.5 l 1
 625 112.5 l 1
 625 143.75 l 1
 625 175 l 1
 687.5 175 l 1
 750 175 l 1
 750 237.5 l 1
 750 300 l 1
 687.5 300 l 1
 625 300 l 1
 625 331.25 l 1
 625 362.5 l 1
 656.25 362.5 l 1
 687.5 362.5 l 1
 687.5 425 l 1
 687.5 487.5 l 1
 718.75 487.5 l 1
 750 487.5 l 1
 750 425 l 1
 750 362.5 l 1
 781.25 362.5 l 1
 812.5 362.5 l 1
 812.5 456.25 l 1
 812.5 550 l 1
 718.75 550 l 1
 625 550 l 1
 625 581.25 l 1
 625 612.5 l 1
 687.5 612.5 l 1
 750 612.5 l 1
 750 675 l 1
 750 737.5 l 1
 718.75 737.5 l 1
 687.5 737.5 l 1
 687.5 768.75 l 1
500 425 m 1
 500 737.5 l 1
 531.25 737.5 l 1
 562.5 737.5 l 1
 562.5 425 l 1
 562.5 112.5 l 1
 531.25 112.5 l 1
 500 112.5 l 1
 500 50 l 1
 500 -12.5 l 1
 468.75 -12.5 l 1
 437.5 -12.5 l 1
 437.5 -43.75 l 1
 437.5 -75 l 1
 406.25 -75 l 1
 375 -75 l 1
 375 -106.25 l 1
 375 -137.5 l 1
 343.75 -137.5 l 1
 312.5 -137.5 l 1
 312.5 -106.25 l 1
 312.5 -75 l 1
 343.75 -75 l 1
 375 -75 l 1
 375 -43.75 l 1
 375 -12.5 l 1
 406.25 -12.5 l 1
 437.5 -12.5 l 1
 437.5 50 l 1
 437.5 112.5 l 1
 468.75 112.5 l 1
 500 112.5 l 1
 500 425 l 1
EndSplineSet
EndChar

StartChar: uni969C
Encoding: 38556 38556 12
Width: 1000
VWidth: 0
Flags: H
LayerCount: 2
Fore
SplineSet
562.5 768.75 m 1
 562.5 800 l 1
 593.75 800 l 1
 625 800 l 1
 625 768.75 l 1
 625 737.5 l 1
 718.75 737.5 l 1
 812.5 737.5 l 1
 812.5 706.25 l 1
 812.5 675 l 1
 781.25 675 l 1
 750 675 l 1
 750 643.75 l 1
 750 612.5 l 1
 718.75 612.5 l 1
 687.5 612.5 l 1
 687.5 581.25 l 1
 687.5 550 l 1
 750 550 l 1
 812.5 550 l 1
 812.5 581.25 l 1
 812.5 612.5 l 1
 843.75 612.5 l 1
 875 612.5 l 1
 875 581.25 l 1
 875 550 l 1
 906.25 550 l 1
 937.5 550 l 1
 937.5 518.75 l 1
 937.5 487.5 l 1
 875 487.5 l 1
 812.5 487.5 l 1
 812.5 456.25 l 1
 812.5 425 l 1
 843.75 425 l 1
 875 425 l 1
 875 393.75 l 1
 875 362.5 l 1
 843.75 362.5 l 1
 812.5 362.5 l 1
 812.5 237.5 l 1
 812.5 112.5 l 1
 718.75 112.5 l 1
 625 112.5 l 1
 625 81.25 l 1
 625 50 l 1
 781.25 50 l 1
 937.5 50 l 1
 937.5 18.75 l 1
 937.5 -12.5 l 1
 781.25 -12.5 l 1
 625 -12.5 l 1
 625 -106.25 l 1
 625 -200 l 1
 593.75 -200 l 1
 562.5 -200 l 1
 562.5 -106.25 l 1
 562.5 -12.5 l 1
 406.25 -12.5 l 1
 250 -12.5 l 1
 250 18.75 l 1
 250 50 l 1
 218.75 50 l 1
 187.5 50 l 1
 187.5 81.25 l 1
 187.5 112.5 l 1
 156.25 112.5 l 1
 125 112.5 l 1
 125 -43.75 l 1
 125 -200 l 1
 93.75 -200 l 1
 62.5 -200 l 1
 62.5 268.75 l 1
 62.5 737.5 l 1
 187.5 737.5 l 1
 312.5 737.5 l 1
 312.5 675 l 1
 312.5 612.5 l 1
 281.25 612.5 l 1
 250 612.5 l 1
 250 550 l 1
 250 487.5 l 1
 218.75 487.5 l 1
 187.5 487.5 l 1
 187.5 456.25 l 1
 187.5 425 l 1
 218.75 425 l 1
 250 425 l 1
 250 393.75 l 1
 250 362.5 l 1
 281.25 362.5 l 1
 312.5 362.5 l 1
 312.5 237.5 l 1
 312.5 112.5 l 1
 281.25 112.5 l 1
 250 112.5 l 1
 250 81.25 l 1
 250 50 l 1
 406.25 50 l 1
 562.5 50 l 1
 562.5 81.25 l 1
 562.5 112.5 l 1
 468.75 112.5 l 1
 375 112.5 l 1
 375 268.75 l 1
 375 425 l 1
 562.5 425 l 1
 750 425 l 1
 750 456.25 l 1
 750 487.5 l 1
 531.25 487.5 l 1
 312.5 487.5 l 1
 312.5 518.75 l 1
 312.5 550 l 1
 406.25 550 l 1
 500 550 l 1
 500 581.25 l 1
 500 612.5 l 1
 468.75 612.5 l 1
 437.5 612.5 l 1
 437.5 643.75 l 1
 437.5 675 l 1
 406.25 675 l 1
 375 675 l 1
 375 706.25 l 1
 375 737.5 l 1
 468.75 737.5 l 1
 562.5 737.5 l 1
 562.5 768.75 l 1
250 643.75 m 1
 250 675 l 1
 187.5 675 l 1
 125 675 l 1
 125 581.25 l 1
 125 487.5 l 1
 156.25 487.5 l 1
 187.5 487.5 l 1
 187.5 550 l 1
 187.5 612.5 l 1
 218.75 612.5 l 1
 250 612.5 l 1
 250 643.75 l 1
687.5 643.75 m 1
 687.5 675 l 1
 593.75 675 l 1
 500 675 l 1
 500 643.75 l 1
 500 612.5 l 1
 531.25 612.5 l 1
 562.5 612.5 l 1
 562.5 581.25 l 1
 562.5 550 l 1
 593.75 550 l 1
 625 550 l 1
 625 581.25 l 1
 625 612.5 l 1
 656.25 612.5 l 1
 687.5 612.5 l 1
 687.5 643.75 l 1
187.5 393.75 m 1
 187.5 425 l 1
 156.25 425 l 1
 125 425 l 1
 125 300 l 1
 125 175 l 1
 156.25 175 l 1
 187.5 175 l 1
 187.5 143.75 l 1
 187.5 112.5 l 1
 218.75 112.5 l 1
 250 112.5 l 1
 250 237.5 l 1
 250 362.5 l 1
 218.75 362.5 l 1
 187.5 362.5 l 1
 187.5 393.75 l 1
750 331.25 m 1
 750 362.5 l 1
 593.75 362.5 l 1
 437.5 362.5 l 1
 437.5 331.25 l 1
 437.5 300 l 1
 593.75 300 l 1
 750 300 l 1
 750 331.25 l 1
750 206.25 m 1
 750 237.5 l 1
 593.75 237.5 l 1
 437.5 237.5 l 1
 437.5 206.25 l 1
 437.5 175 l 1
 593.75 175 l 1
 750 175 l 1
 750 206.25 l 1
EndSplineSet
EndChar

StartChar: uni62DB
Encoding: 25307 25307 13
Width: 1000
VWidth: 0
Flags: H
LayerCount: 2
Fore
SplineSet
187.5 675 m 1
 187.5 800 l 1
 218.75 800 l 1
 250 800 l 1
 250 675 l 1
 250 550 l 1
 312.5 550 l 1
 375 550 l 1
 375 518.75 l 1
 375 487.5 l 1
 312.5 487.5 l 1
 250 487.5 l 1
 250 425 l 1
 250 362.5 l 1
 281.25 362.5 l 1
 312.5 362.5 l 1
 312.5 393.75 l 1
 312.5 425 l 1
 343.75 425 l 1
 375 425 l 1
 375 393.75 l 1
 375 362.5 l 1
 343.75 362.5 l 1
 312.5 362.5 l 1
 312.5 331.25 l 1
 312.5 300 l 1
 281.25 300 l 1
 250 300 l 1
 250 81.25 l 1
 250 -137.5 l 1
 218.75 -137.5 l 1
 187.5 -137.5 l 1
 187.5 -168.75 l 1
 187.5 -200 l 1
 156.25 -200 l 1
 125 -200 l 1
 125 -168.75 l 1
 125 -137.5 l 1
 93.75 -137.5 l 1
 62.5 -137.5 l 1
 62.5 -106.25 l 1
 62.5 -75 l 1
 93.75 -75 l 1
 125 -75 l 1
 125 -106.25 l 1
 125 -137.5 l 1
 156.25 -137.5 l 1
 187.5 -137.5 l 1
 187.5 50 l 1
 187.5 237.5 l 1
 156.25 237.5 l 1
 125 237.5 l 1
 125 206.25 l 1
 125 175 l 1
 62.5 175 l 1
 0 175 l 1
 0 206.25 l 1
 0 237.5 l 1
 62.5 237.5 l 1
 125 237.5 l 1
 125 268.75 l 1
 125 300 l 1
 156.25 300 l 1
 187.5 300 l 1
 187.5 393.75 l 1
 187.5 487.5 l 1
 93.75 487.5 l 1
 0 487.5 l 1
 0 518.75 l 1
 0 550 l 1
 93.75 550 l 1
 187.5 550 l 1
 187.5 675 l 1
812.5 768.75 m 1
 812.5 800 l 1
 843.75 800 l 1
 875 800 l 1
 875 768.75 l 1
 875 737.5 l 1
 906.25 737.5 l 1
 937.5 737.5 l 1
 937.5 706.25 l 1
 937.5 675 l 1
 906.25 675 l 1
 875 675 l 1
 875 518.75 l 1
 875 362.5 l 1
 843.75 362.5 l 1
 812.5 362.5 l 1
 812.5 331.25 l 1
 812.5 300 l 1
 843.75 300 l 1
 875 300 l 1
 875 268.75 l 1
 875 237.5 l 1
 906.25 237.5 l 1
 937.5 237.5 l 1
 937.5 206.25 l 1
 937.5 175 l 1
 906.25 175 l 1
 875 175 l 1
 875 -12.5 l 1
 875 -200 l 1
 843.75 -200 l 1
 812.5 -200 l 1
 812.5 -168.75 l 1
 812.5 -137.5 l 1
 656.25 -137.5 l 1
 500 -137.5 l 1
 500 -168.75 l 1
 500 -200 l 1
 468.75 -200 l 1
 437.5 -200 l 1
 437.5 18.75 l 1
 437.5 237.5 l 1
 406.25 237.5 l 1
 375 237.5 l 1
 375 206.25 l 1
 375 175 l 1
 343.75 175 l 1
 312.5 175 l 1
 312.5 206.25 l 1
 312.5 237.5 l 1
 343.75 237.5 l 1
 375 237.5 l 1
 375 268.75 l 1
 375 300 l 1
 406.25 300 l 1
 437.5 300 l 1
 437.5 362.5 l 1
 437.5 425 l 1
 468.75 425 l 1
 500 425 l 1
 500 550 l 1
 500 675 l 1
 437.5 675 l 1
 375 675 l 1
 375 706.25 l 1
 375 737.5 l 1
 593.75 737.5 l 1
 812.5 737.5 l 1
 812.5 768.75 l 1
812.5 518.75 m 1
 812.5 675 l 1
 687.5 675 l 1
 562.5 675 l 1
 562.5 550 l 1
 562.5 425 l 1
 531.25 425 l 1
 500 425 l 1
 500 362.5 l 1
 500 300 l 1
 468.75 300 l 1
 437.5 300 l 1
 437.5 268.75 l 1
 437.5 237.5 l 1
 625 237.5 l 1
 812.5 237.5 l 1
 812.5 268.75 l 1
 812.5 300 l 1
 781.25 300 l 1
 750 300 l 1
 750 331.25 l 1
 750 362.5 l 1
 781.25 362.5 l 1
 812.5 362.5 l 1
 812.5 518.75 l 1
812.5 50 m 1
 812.5 175 l 1
 656.25 175 l 1
 500 175 l 1
 500 50 l 1
 500 -75 l 1
 656.25 -75 l 1
 812.5 -75 l 1
 812.5 50 l 1
687.5 393.75 m 1
 687.5 425 l 1
 718.75 425 l 1
 750 425 l 1
 750 393.75 l 1
 750 362.5 l 1
 718.75 362.5 l 1
 687.5 362.5 l 1
 687.5 393.75 l 1
EndSplineSet
EndChar

StartChar: uni628A
Encoding: 25226 25226 14
Width: 1000
VWidth: 0
Flags: H
LayerCount: 2
Fore
SplineSet
187.5 675 m 1
 187.5 800 l 1
 218.75 800 l 1
 250 800 l 1
 250 675 l 1
 250 550 l 1
 312.5 550 l 1
 375 550 l 1
 375 518.75 l 1
 375 487.5 l 1
 312.5 487.5 l 1
 250 487.5 l 1
 250 425 l 1
 250 362.5 l 1
 281.25 362.5 l 1
 312.5 362.5 l 1
 312.5 393.75 l 1
 312.5 425 l 1
 343.75 425 l 1
 375 425 l 1
 375 393.75 l 1
 375 362.5 l 1
 343.75 362.5 l 1
 312.5 362.5 l 1
 312.5 331.25 l 1
 312.5 300 l 1
 281.25 300 l 1
 250 300 l 1
 250 81.25 l 1
 250 -137.5 l 1
 218.75 -137.5 l 1
 187.5 -137.5 l 1
 187.5 -168.75 l 1
 187.5 -200 l 1
 156.25 -200 l 1
 125 -200 l 1
 125 -168.75 l 1
 125 -137.5 l 1
 93.75 -137.5 l 1
 62.5 -137.5 l 1
 62.5 -106.25 l 1
 62.5 -75 l 1
 93.75 -75 l 1
 125 -75 l 1
 125 -106.25 l 1
 125 -137.5 l 1
 156.25 -137.5 l 1
 187.5 -137.5 l 1
 187.5 50 l 1
 187.5 237.5 l 1
 156.25 237.5 l 1
 125 237.5 l 1
 125 206.25 l 1
 125 175 l 1
 62.5 175 l 1
 0 175 l 1
 0 206.25 l 1
 0 237.5 l 1
 62.5 237.5 l 1
 125 237.5 l 1
 125 268.75 l 1
 125 300 l 1
 156.25 300 l 1
 187.5 300 l 1
 187.5 393.75 l 1
 187.5 487.5 l 1
 93.75 487.5 l 1
 0 487.5 l 1
 0 518.75 l 1
 0 550 l 1
 93.75 550 l 1
 187.5 550 l 1
 187.5 675 l 1
812.5 706.25 m 1
 812.5 737.5 l 1
 843.75 737.5 l 1
 875 737.5 l 1
 875 706.25 l 1
 875 675 l 1
 906.25 675 l 1
 937.5 675 l 1
 937.5 643.75 l 1
 937.5 612.5 l 1
 906.25 612.5 l 1
 875 612.5 l 1
 875 425 l 1
 875 237.5 l 1
 843.75 237.5 l 1
 812.5 237.5 l 1
 812.5 268.75 l 1
 812.5 300 l 1
 656.25 300 l 1
 500 300 l 1
 500 112.5 l 1
 500 -75 l 1
 687.5 -75 l 1
 875 -75 l 1
 875 -12.5 l 1
 875 50 l 1
 906.25 50 l 1
 937.5 50 l 1
 937.5 -43.75 l 1
 937.5 -137.5 l 1
 718.75 -137.5 l 1
 500 -137.5 l 1
 500 -106.25 l 1
 500 -75 l 1
 468.75 -75 l 1
 437.5 -75 l 1
 437.5 300 l 1
 437.5 675 l 1
 625 675 l 1
 812.5 675 l 1
 812.5 706.25 l 1
625 487.5 m 1
 625 612.5 l 1
 562.5 612.5 l 1
 500 612.5 l 1
 500 487.5 l 1
 500 362.5 l 1
 562.5 362.5 l 1
 625 362.5 l 1
 625 487.5 l 1
812.5 487.5 m 1
 812.5 612.5 l 1
 750 612.5 l 1
 687.5 612.5 l 1
 687.5 487.5 l 1
 687.5 362.5 l 1
 750 362.5 l 1
 812.5 362.5 l 1
 812.5 487.5 l 1
EndSplineSet
EndChar

StartChar: uni8019
Encoding: 32793 32793 15
Width: 1000
VWidth: 0
Flags: H
LayerCount: 2
Fore
SplineSet
187.5 706.25 m 1
 187.5 800 l 1
 218.75 800 l 1
 250 800 l 1
 250 706.25 l 1
 250 612.5 l 1
 281.25 612.5 l 1
 312.5 612.5 l 1
 312.5 643.75 l 1
 312.5 675 l 1
 343.75 675 l 1
 375 675 l 1
 375 643.75 l 1
 375 612.5 l 1
 406.25 612.5 l 1
 437.5 612.5 l 1
 437.5 643.75 l 1
 437.5 675 l 1
 625 675 l 1
 812.5 675 l 1
 812.5 706.25 l 1
 812.5 737.5 l 1
 843.75 737.5 l 1
 875 737.5 l 1
 875 706.25 l 1
 875 675 l 1
 906.25 675 l 1
 937.5 675 l 1
 937.5 643.75 l 1
 937.5 612.5 l 1
 906.25 612.5 l 1
 875 612.5 l 1
 875 425 l 1
 875 237.5 l 1
 843.75 237.5 l 1
 812.5 237.5 l 1
 812.5 268.75 l 1
 812.5 300 l 1
 656.25 300 l 1
 500 300 l 1
 500 112.5 l 1
 500 -75 l 1
 687.5 -75 l 1
 875 -75 l 1
 875 -12.5 l 1
 875 50 l 1
 906.25 50 l 1
 937.5 50 l 1
 937.5 -43.75 l 1
 937.5 -137.5 l 1
 718.75 -137.5 l 1
 500 -137.5 l 1
 500 -106.25 l 1
 500 -75 l 1
 468.75 -75 l 1
 437.5 -75 l 1
 437.5 112.5 l 1
 437.5 300 l 1
 343.75 300 l 1
 250 300 l 1
 250 237.5 l 1
 250 175 l 1
 281.25 175 l 1
 312.5 175 l 1
 312.5 143.75 l 1
 312.5 112.5 l 1
 343.75 112.5 l 1
 375 112.5 l 1
 375 50 l 1
 375 -12.5 l 1
 343.75 -12.5 l 1
 312.5 -12.5 l 1
 312.5 50 l 1
 312.5 112.5 l 1
 281.25 112.5 l 1
 250 112.5 l 1
 250 -43.75 l 1
 250 -200 l 1
 218.75 -200 l 1
 187.5 -200 l 1
 187.5 -43.75 l 1
 187.5 112.5 l 1
 156.25 112.5 l 1
 125 112.5 l 1
 125 50 l 1
 125 -12.5 l 1
 93.75 -12.5 l 1
 62.5 -12.5 l 1
 62.5 -43.75 l 1
 62.5 -75 l 1
 31.25 -75 l 1
 0 -75 l 1
 0 -43.75 l 1
 0 -12.5 l 1
 31.25 -12.5 l 1
 62.5 -12.5 l 1
 62.5 50 l 1
 62.5 112.5 l 1
 93.75 112.5 l 1
 125 112.5 l 1
 125 175 l 1
 125 237.5 l 1
 156.25 237.5 l 1
 187.5 237.5 l 1
 187.5 268.75 l 1
 187.5 300 l 1
 93.75 300 l 1
 0 300 l 1
 0 331.25 l 1
 0 362.5 l 1
 93.75 362.5 l 1
 187.5 362.5 l 1
 187.5 393.75 l 1
 187.5 425 l 1
 125 425 l 1
 62.5 425 l 1
 62.5 456.25 l 1
 62.5 487.5 l 1
 125 487.5 l 1
 187.5 487.5 l 1
 187.5 518.75 l 1
 187.5 550 l 1
 93.75 550 l 1
 0 550 l 1
 0 581.25 l 1
 0 612.5 l 1
 93.75 612.5 l 1
 187.5 612.5 l 1
 187.5 706.25 l 1
625 487.5 m 1
 625 612.5 l 1
 562.5 612.5 l 1
 500 612.5 l 1
 500 487.5 l 1
 500 362.5 l 1
 562.5 362.5 l 1
 625 362.5 l 1
 625 487.5 l 1
812.5 487.5 m 1
 812.5 612.5 l 1
 750 612.5 l 1
 687.5 612.5 l 1
 687.5 487.5 l 1
 687.5 362.5 l 1
 750 362.5 l 1
 812.5 362.5 l 1
 812.5 487.5 l 1
437.5 456.25 m 1
 437.5 550 l 1
 343.75 550 l 1
 250 550 l 1
 250 518.75 l 1
 250 487.5 l 1
 312.5 487.5 l 1
 375 487.5 l 1
 375 456.25 l 1
 375 425 l 1
 312.5 425 l 1
 250 425 l 1
 250 393.75 l 1
 250 362.5 l 1
 343.75 362.5 l 1
 437.5 362.5 l 1
 437.5 456.25 l 1
EndSplineSet
EndChar

StartChar: uni575D
Encoding: 22365 22365 16
Width: 1000
VWidth: 0
Flags: H
LayerCount: 2
Fore
SplineSet
187.5 643.75 m 1
 187.5 800 l 1
 218.75 800 l 1
 250 800 l 1
 250 643.75 l 1
 250 487.5 l 1
 312.5 487.5 l 1
 375 487.5 l 1
 375 456.25 l 1
 375 425 l 1
 312.5 425 l 1
 250 425 l 1
 250 300 l 1
 250 175 l 1
 312.5 175 l 1
 375 175 l 1
 375 143.75 l 1
 375 112.5 l 1
 312.5 112.5 l 1
 250 112.5 l 1
 250 81.25 l 1
 250 50 l 1
 187.5 50 l 1
 125 50 l 1
 125 18.75 l 1
 125 -12.5 l 1
 93.75 -12.5 l 1
 62.5 -12.5 l 1
 62.5 18.75 l 1
 62.5 50 l 1
 31.25 50 l 1
 0 50 l 1
 0 81.25 l 1
 0 112.5 l 1
 93.75 112.5 l 1
 187.5 112.5 l 1
 187.5 268.75 l 1
 187.5 425 l 1
 93.75 425 l 1
 0 425 l 1
 0 456.25 l 1
 0 487.5 l 1
 93.75 487.5 l 1
 187.5 487.5 l 1
 187.5 643.75 l 1
812.5 768.75 m 1
 812.5 800 l 1
 843.75 800 l 1
 875 800 l 1
 875 768.75 l 1
 875 737.5 l 1
 906.25 737.5 l 1
 937.5 737.5 l 1
 937.5 706.25 l 1
 937.5 675 l 1
 906.25 675 l 1
 875 675 l 1
 875 362.5 l 1
 875 50 l 1
 843.75 50 l 1
 812.5 50 l 1
 812.5 362.5 l 1
 812.5 675 l 1
 656.25 675 l 1
 500 675 l 1
 500 362.5 l 1
 500 50 l 1
 468.75 50 l 1
 437.5 50 l 1
 437.5 393.75 l 1
 437.5 737.5 l 1
 625 737.5 l 1
 812.5 737.5 l 1
 812.5 768.75 l 1
625 331.25 m 1
 625 612.5 l 1
 656.25 612.5 l 1
 687.5 612.5 l 1
 687.5 331.25 l 1
 687.5 50 l 1
 718.75 50 l 1
 750 50 l 1
 750 18.75 l 1
 750 -12.5 l 1
 781.25 -12.5 l 1
 812.5 -12.5 l 1
 812.5 -43.75 l 1
 812.5 -75 l 1
 875 -75 l 1
 937.5 -75 l 1
 937.5 -137.5 l 1
 937.5 -200 l 1
 906.25 -200 l 1
 875 -200 l 1
 875 -168.75 l 1
 875 -137.5 l 1
 843.75 -137.5 l 1
 812.5 -137.5 l 1
 812.5 -106.25 l 1
 812.5 -75 l 1
 781.25 -75 l 1
 750 -75 l 1
 750 -43.75 l 1
 750 -12.5 l 1
 718.75 -12.5 l 1
 687.5 -12.5 l 1
 687.5 18.75 l 1
 687.5 50 l 1
 656.25 50 l 1
 625 50 l 1
 625 -12.5 l 1
 625 -75 l 1
 593.75 -75 l 1
 562.5 -75 l 1
 562.5 -106.25 l 1
 562.5 -137.5 l 1
 531.25 -137.5 l 1
 500 -137.5 l 1
 500 -168.75 l 1
 500 -200 l 1
 437.5 -200 l 1
 375 -200 l 1
 375 -168.75 l 1
 375 -137.5 l 1
 437.5 -137.5 l 1
 500 -137.5 l 1
 500 -106.25 l 1
 500 -75 l 1
 531.25 -75 l 1
 562.5 -75 l 1
 562.5 -12.5 l 1
 562.5 50 l 1
 593.75 50 l 1
 625 50 l 1
 625 331.25 l 1
EndSplineSet
EndChar

StartChar: uni9738
Encoding: 38712 38712 17
Width: 1000
VWidth: 0
Flags: H
LayerCount: 2
Fore
SplineSet
125 768.75 m 1
 125 800 l 1
 468.75 800 l 1
 812.5 800 l 1
 812.5 768.75 l 1
 812.5 737.5 l 1
 656.25 737.5 l 1
 500 737.5 l 1
 500 706.25 l 1
 500 675 l 1
 718.75 675 l 1
 937.5 675 l 1
 937.5 643.75 l 1
 937.5 612.5 l 1
 906.25 612.5 l 1
 875 612.5 l 1
 875 581.25 l 1
 875 550 l 1
 843.75 550 l 1
 812.5 550 l 1
 812.5 518.75 l 1
 812.5 487.5 l 1
 843.75 487.5 l 1
 875 487.5 l 1
 875 456.25 l 1
 875 425 l 1
 843.75 425 l 1
 812.5 425 l 1
 812.5 112.5 l 1
 812.5 -200 l 1
 750 -200 l 1
 687.5 -200 l 1
 687.5 -168.75 l 1
 687.5 -137.5 l 1
 718.75 -137.5 l 1
 750 -137.5 l 1
 750 -43.75 l 1
 750 50 l 1
 687.5 50 l 1
 625 50 l 1
 625 -12.5 l 1
 625 -75 l 1
 593.75 -75 l 1
 562.5 -75 l 1
 562.5 -106.25 l 1
 562.5 -137.5 l 1
 531.25 -137.5 l 1
 500 -137.5 l 1
 500 -168.75 l 1
 500 -200 l 1
 468.75 -200 l 1
 437.5 -200 l 1
 437.5 -168.75 l 1
 437.5 -137.5 l 1
 468.75 -137.5 l 1
 500 -137.5 l 1
 500 -106.25 l 1
 500 -75 l 1
 406.25 -75 l 1
 312.5 -75 l 1
 312.5 -137.5 l 1
 312.5 -200 l 1
 281.25 -200 l 1
 250 -200 l 1
 250 -137.5 l 1
 250 -75 l 1
 156.25 -75 l 1
 62.5 -75 l 1
 62.5 -43.75 l 1
 62.5 -12.5 l 1
 156.25 -12.5 l 1
 250 -12.5 l 1
 250 18.75 l 1
 250 50 l 1
 156.25 50 l 1
 62.5 50 l 1
 62.5 143.75 l 1
 62.5 237.5 l 1
 156.25 237.5 l 1
 250 237.5 l 1
 250 268.75 l 1
 250 300 l 1
 187.5 300 l 1
 125 300 l 1
 125 362.5 l 1
 125 425 l 1
 93.75 425 l 1
 62.5 425 l 1
 62.5 456.25 l 1
 62.5 487.5 l 1
 93.75 487.5 l 1
 125 487.5 l 1
 125 518.75 l 1
 125 550 l 1
 156.25 550 l 1
 187.5 550 l 1
 187.5 518.75 l 1
 187.5 487.5 l 1
 281.25 487.5 l 1
 375 487.5 l 1
 375 518.75 l 1
 375 550 l 1
 406.25 550 l 1
 437.5 550 l 1
 437.5 581.25 l 1
 437.5 612.5 l 1
 375 612.5 l 1
 312.5 612.5 l 1
 312.5 581.25 l 1
 312.5 550 l 1
 281.25 550 l 1
 250 550 l 1
 250 581.25 l 1
 250 612.5 l 1
 156.25 612.5 l 1
 62.5 612.5 l 1
 62.5 581.25 l 1
 62.5 550 l 1
 31.25 550 l 1
 0 550 l 1
 0 581.25 l 1
 0 612.5 l 1
 31.25 612.5 l 1
 62.5 612.5 l 1
 62.5 643.75 l 1
 62.5 675 l 1
 250 675 l 1
 437.5 675 l 1
 437.5 706.25 l 1
 437.5 737.5 l 1
 281.25 737.5 l 1
 125 737.5 l 1
 125 768.75 l 1
625 581.25 m 1
 625 612.5 l 1
 562.5 612.5 l 1
 500 612.5 l 1
 500 581.25 l 1
 500 550 l 1
 468.75 550 l 1
 437.5 550 l 1
 437.5 518.75 l 1
 437.5 487.5 l 1
 468.75 487.5 l 1
 500 487.5 l 1
 500 456.25 l 1
 500 425 l 1
 468.75 425 l 1
 437.5 425 l 1
 437.5 362.5 l 1
 437.5 300 l 1
 375 300 l 1
 312.5 300 l 1
 312.5 268.75 l 1
 312.5 237.5 l 1
 406.25 237.5 l 1
 500 237.5 l 1
 500 143.75 l 1
 500 50 l 1
 406.25 50 l 1
 312.5 50 l 1
 312.5 18.75 l 1
 312.5 -12.5 l 1
 406.25 -12.5 l 1
 500 -12.5 l 1
 500 -43.75 l 1
 500 -75 l 1
 531.25 -75 l 1
 562.5 -75 l 1
 562.5 206.25 l 1
 562.5 487.5 l 1
 656.25 487.5 l 1
 750 487.5 l 1
 750 518.75 l 1
 750 550 l 1
 781.25 550 l 1
 812.5 550 l 1
 812.5 581.25 l 1
 812.5 612.5 l 1
 750 612.5 l 1
 687.5 612.5 l 1
 687.5 581.25 l 1
 687.5 550 l 1
 656.25 550 l 1
 625 550 l 1
 625 581.25 l 1
375 393.75 m 1
 375 425 l 1
 281.25 425 l 1
 187.5 425 l 1
 187.5 393.75 l 1
 187.5 362.5 l 1
 281.25 362.5 l 1
 375 362.5 l 1
 375 393.75 l 1
750 362.5 m 1
 750 425 l 1
 687.5 425 l 1
 625 425 l 1
 625 362.5 l 1
 625 300 l 1
 687.5 300 l 1
 750 300 l 1
 750 362.5 l 1
750 175 m 1
 750 237.5 l 1
 687.5 237.5 l 1
 625 237.5 l 1
 625 175 l 1
 625 112.5 l 1
 687.5 112.5 l 1
 750 112.5 l 1
 750 175 l 1
250 143.75 m 1
 250 175 l 1
 187.5 175 l 1
 125 175 l 1
 125 143.75 l 1
 125 112.5 l 1
 187.5 112.5 l 1
 250 112.5 l 1
 250 143.75 l 1
437.5 143.75 m 1
 437.5 175 l 1
 375 175 l 1
 312.5 175 l 1
 312.5 143.75 l 1
 312.5 112.5 l 1
 375 112.5 l 1
 437.5 112.5 l 1
 437.5 143.75 l 1
EndSplineSet
EndChar

StartChar: uni7F62
Encoding: 32610 32610 18
Width: 1000
VWidth: 0
Flags: H
LayerCount: 2
Fore
SplineSet
750 768.75 m 1
 750 800 l 1
 781.25 800 l 1
 812.5 800 l 1
 812.5 768.75 l 1
 812.5 737.5 l 1
 843.75 737.5 l 1
 875 737.5 l 1
 875 706.25 l 1
 875 675 l 1
 843.75 675 l 1
 812.5 675 l 1
 812.5 581.25 l 1
 812.5 487.5 l 1
 656.25 487.5 l 1
 500 487.5 l 1
 500 425 l 1
 500 362.5 l 1
 593.75 362.5 l 1
 687.5 362.5 l 1
 687.5 393.75 l 1
 687.5 425 l 1
 718.75 425 l 1
 750 425 l 1
 750 393.75 l 1
 750 362.5 l 1
 781.25 362.5 l 1
 812.5 362.5 l 1
 812.5 331.25 l 1
 812.5 300 l 1
 656.25 300 l 1
 500 300 l 1
 500 237.5 l 1
 500 175 l 1
 656.25 175 l 1
 812.5 175 l 1
 812.5 206.25 l 1
 812.5 237.5 l 1
 843.75 237.5 l 1
 875 237.5 l 1
 875 206.25 l 1
 875 175 l 1
 906.25 175 l 1
 937.5 175 l 1
 937.5 143.75 l 1
 937.5 112.5 l 1
 687.5 112.5 l 1
 437.5 112.5 l 1
 437.5 81.25 l 1
 437.5 50 l 1
 406.25 50 l 1
 375 50 l 1
 375 18.75 l 1
 375 -12.5 l 1
 343.75 -12.5 l 1
 312.5 -12.5 l 1
 312.5 -43.75 l 1
 312.5 -75 l 1
 500 -75 l 1
 687.5 -75 l 1
 687.5 -43.75 l 1
 687.5 -12.5 l 1
 656.25 -12.5 l 1
 625 -12.5 l 1
 625 18.75 l 1
 625 50 l 1
 656.25 50 l 1
 687.5 50 l 1
 687.5 18.75 l 1
 687.5 -12.5 l 1
 718.75 -12.5 l 1
 750 -12.5 l 1
 750 -43.75 l 1
 750 -75 l 1
 781.25 -75 l 1
 812.5 -75 l 1
 812.5 -137.5 l 1
 812.5 -200 l 1
 781.25 -200 l 1
 750 -200 l 1
 750 -168.75 l 1
 750 -137.5 l 1
 468.75 -137.5 l 1
 187.5 -137.5 l 1
 187.5 -106.25 l 1
 187.5 -75 l 1
 218.75 -75 l 1
 250 -75 l 1
 250 -43.75 l 1
 250 -12.5 l 1
 281.25 -12.5 l 1
 312.5 -12.5 l 1
 312.5 18.75 l 1
 312.5 50 l 1
 343.75 50 l 1
 375 50 l 1
 375 81.25 l 1
 375 112.5 l 1
 187.5 112.5 l 1
 0 112.5 l 1
 0 143.75 l 1
 0 175 l 1
 218.75 175 l 1
 437.5 175 l 1
 437.5 237.5 l 1
 437.5 300 l 1
 281.25 300 l 1
 125 300 l 1
 125 331.25 l 1
 125 362.5 l 1
 281.25 362.5 l 1
 437.5 362.5 l 1
 437.5 425 l 1
 437.5 487.5 l 1
 281.25 487.5 l 1
 125 487.5 l 1
 125 612.5 l 1
 125 737.5 l 1
 437.5 737.5 l 1
 750 737.5 l 1
 750 768.75 l 1
312.5 612.5 m 1
 312.5 675 l 1
 250 675 l 1
 187.5 675 l 1
 187.5 612.5 l 1
 187.5 550 l 1
 250 550 l 1
 312.5 550 l 1
 312.5 612.5 l 1
562.5 612.5 m 1
 562.5 675 l 1
 468.75 675 l 1
 375 675 l 1
 375 612.5 l 1
 375 550 l 1
 468.75 550 l 1
 562.5 550 l 1
 562.5 612.5 l 1
750 612.5 m 1
 750 675 l 1
 687.5 675 l 1
 625 675 l 1
 625 612.5 l 1
 625 550 l 1
 687.5 550 l 1
 750 550 l 1
 750 612.5 l 1
EndSplineSet
EndChar

StartChar: uni7238
Encoding: 29240 29240 19
Width: 1000
VWidth: 0
Flags: H
LayerCount: 2
Fore
SplineSet
312.5 737.5 m 1
 312.5 800 l 1
 343.75 800 l 1
 375 800 l 1
 375 706.25 l 1
 375 612.5 l 1
 406.25 612.5 l 1
 437.5 612.5 l 1
 437.5 581.25 l 1
 437.5 550 l 1
 468.75 550 l 1
 500 550 l 1
 500 581.25 l 1
 500 612.5 l 1
 531.25 612.5 l 1
 562.5 612.5 l 1
 562.5 643.75 l 1
 562.5 675 l 1
 593.75 675 l 1
 625 675 l 1
 625 706.25 l 1
 625 737.5 l 1
 593.75 737.5 l 1
 562.5 737.5 l 1
 562.5 768.75 l 1
 562.5 800 l 1
 593.75 800 l 1
 625 800 l 1
 625 768.75 l 1
 625 737.5 l 1
 656.25 737.5 l 1
 687.5 737.5 l 1
 687.5 706.25 l 1
 687.5 675 l 1
 750 675 l 1
 812.5 675 l 1
 812.5 612.5 l 1
 812.5 550 l 1
 781.25 550 l 1
 750 550 l 1
 750 581.25 l 1
 750 612.5 l 1
 718.75 612.5 l 1
 687.5 612.5 l 1
 687.5 643.75 l 1
 687.5 675 l 1
 656.25 675 l 1
 625 675 l 1
 625 643.75 l 1
 625 612.5 l 1
 593.75 612.5 l 1
 562.5 612.5 l 1
 562.5 581.25 l 1
 562.5 550 l 1
 531.25 550 l 1
 500 550 l 1
 500 518.75 l 1
 500 487.5 l 1
 531.25 487.5 l 1
 562.5 487.5 l 1
 562.5 456.25 l 1
 562.5 425 l 1
 625 425 l 1
 687.5 425 l 1
 687.5 393.75 l 1
 687.5 362.5 l 1
 750 362.5 l 1
 812.5 362.5 l 1
 812.5 331.25 l 1
 812.5 300 l 1
 875 300 l 1
 937.5 300 l 1
 937.5 268.75 l 1
 937.5 237.5 l 1
 875 237.5 l 1
 812.5 237.5 l 1
 812.5 268.75 l 1
 812.5 300 l 1
 781.25 300 l 1
 750 300 l 1
 750 143.75 l 1
 750 -12.5 l 1
 718.75 -12.5 l 1
 687.5 -12.5 l 1
 687.5 18.75 l 1
 687.5 50 l 1
 468.75 50 l 1
 250 50 l 1
 250 -43.75 l 1
 250 -137.5 l 1
 531.25 -137.5 l 1
 812.5 -137.5 l 1
 812.5 -75 l 1
 812.5 -12.5 l 1
 843.75 -12.5 l 1
 875 -12.5 l 1
 875 -106.25 l 1
 875 -200 l 1
 562.5 -200 l 1
 250 -200 l 1
 250 -168.75 l 1
 250 -137.5 l 1
 218.75 -137.5 l 1
 187.5 -137.5 l 1
 187.5 81.25 l 1
 187.5 300 l 1
 156.25 300 l 1
 125 300 l 1
 125 268.75 l 1
 125 237.5 l 1
 62.5 237.5 l 1
 0 237.5 l 1
 0 268.75 l 1
 0 300 l 1
 62.5 300 l 1
 125 300 l 1
 125 331.25 l 1
 125 362.5 l 1
 187.5 362.5 l 1
 250 362.5 l 1
 250 393.75 l 1
 250 425 l 1
 312.5 425 l 1
 375 425 l 1
 375 456.25 l 1
 375 487.5 l 1
 406.25 487.5 l 1
 437.5 487.5 l 1
 437.5 518.75 l 1
 437.5 550 l 1
 406.25 550 l 1
 375 550 l 1
 375 581.25 l 1
 375 612.5 l 1
 312.5 612.5 l 1
 250 612.5 l 1
 250 581.25 l 1
 250 550 l 1
 187.5 550 l 1
 125 550 l 1
 125 581.25 l 1
 125 612.5 l 1
 187.5 612.5 l 1
 250 612.5 l 1
 250 643.75 l 1
 250 675 l 1
 281.25 675 l 1
 312.5 675 l 1
 312.5 737.5 l 1
500 456.25 m 1
 500 487.5 l 1
 468.75 487.5 l 1
 437.5 487.5 l 1
 437.5 456.25 l 1
 437.5 425 l 1
 406.25 425 l 1
 375 425 l 1
 375 393.75 l 1
 375 362.5 l 1
 312.5 362.5 l 1
 250 362.5 l 1
 250 331.25 l 1
 250 300 l 1
 468.75 300 l 1
 687.5 300 l 1
 687.5 331.25 l 1
 687.5 362.5 l 1
 625 362.5 l 1
 562.5 362.5 l 1
 562.5 393.75 l 1
 562.5 425 l 1
 531.25 425 l 1
 500 425 l 1
 500 456.25 l 1
437.5 175 m 1
 437.5 237.5 l 1
 343.75 237.5 l 1
 250 237.5 l 1
 250 175 l 1
 250 112.5 l 1
 343.75 112.5 l 1
 437.5 112.5 l 1
 437.5 175 l 1
687.5 175 m 1
 687.5 237.5 l 1
 593.75 237.5 l 1
 500 237.5 l 1
 500 175 l 1
 500 112.5 l 1
 593.75 112.5 l 1
 687.5 112.5 l 1
 687.5 175 l 1
EndSplineSet
EndChar

StartChar: uni767D
Encoding: 30333 30333 20
Width: 1000
VWidth: 0
Flags: H
LayerCount: 2
Fore
SplineSet
375 768.75 m 1
 375 800 l 1
 406.25 800 l 1
 437.5 800 l 1
 437.5 768.75 l 1
 437.5 737.5 l 1
 406.25 737.5 l 1
 375 737.5 l 1
 375 706.25 l 1
 375 675 l 1
 343.75 675 l 1
 312.5 675 l 1
 312.5 643.75 l 1
 312.5 612.5 l 1
 531.25 612.5 l 1
 750 612.5 l 1
 750 643.75 l 1
 750 675 l 1
 781.25 675 l 1
 812.5 675 l 1
 812.5 643.75 l 1
 812.5 612.5 l 1
 843.75 612.5 l 1
 875 612.5 l 1
 875 581.25 l 1
 875 550 l 1
 843.75 550 l 1
 812.5 550 l 1
 812.5 206.25 l 1
 812.5 -137.5 l 1
 781.25 -137.5 l 1
 750 -137.5 l 1
 750 -106.25 l 1
 750 -75 l 1
 468.75 -75 l 1
 187.5 -75 l 1
 187.5 -106.25 l 1
 187.5 -137.5 l 1
 156.25 -137.5 l 1
 125 -137.5 l 1
 125 237.5 l 1
 125 612.5 l 1
 187.5 612.5 l 1
 250 612.5 l 1
 250 643.75 l 1
 250 675 l 1
 281.25 675 l 1
 312.5 675 l 1
 312.5 706.25 l 1
 312.5 737.5 l 1
 343.75 737.5 l 1
 375 737.5 l 1
 375 768.75 l 1
750 425 m 1
 750 550 l 1
 468.75 550 l 1
 187.5 550 l 1
 187.5 425 l 1
 187.5 300 l 1
 468.75 300 l 1
 750 300 l 1
 750 425 l 1
750 112.5 m 1
 750 237.5 l 1
 468.75 237.5 l 1
 187.5 237.5 l 1
 187.5 112.5 l 1
 187.5 -12.5 l 1
 468.75 -12.5 l 1
 750 -12.5 l 1
 750 112.5 l 1
EndSplineSet
EndChar

StartChar: uni67CF
Encoding: 26575 26575 21
Width: 1000
VWidth: 0
Flags: H
LayerCount: 2
Fore
SplineSet
187.5 675 m 1
 187.5 800 l 1
 218.75 800 l 1
 250 800 l 1
 250 675 l 1
 250 550 l 1
 312.5 550 l 1
 375 550 l 1
 375 518.75 l 1
 375 487.5 l 1
 312.5 487.5 l 1
 250 487.5 l 1
 250 425 l 1
 250 362.5 l 1
 281.25 362.5 l 1
 312.5 362.5 l 1
 312.5 331.25 l 1
 312.5 300 l 1
 343.75 300 l 1
 375 300 l 1
 375 268.75 l 1
 375 237.5 l 1
 343.75 237.5 l 1
 312.5 237.5 l 1
 312.5 268.75 l 1
 312.5 300 l 1
 281.25 300 l 1
 250 300 l 1
 250 50 l 1
 250 -200 l 1
 218.75 -200 l 1
 187.5 -200 l 1
 187.5 50 l 1
 187.5 300 l 1
 156.25 300 l 1
 125 300 l 1
 125 237.5 l 1
 125 175 l 1
 93.75 175 l 1
 62.5 175 l 1
 62.5 143.75 l 1
 62.5 112.5 l 1
 31.25 112.5 l 1
 0 112.5 l 1
 0 143.75 l 1
 0 175 l 1
 31.25 175 l 1
 62.5 175 l 1
 62.5 237.5 l 1
 62.5 300 l 1
 93.75 300 l 1
 125 300 l 1
 125 362.5 l 1
 125 425 l 1
 156.25 425 l 1
 187.5 425 l 1
 187.5 456.25 l 1
 187.5 487.5 l 1
 93.75 487.5 l 1
 0 487.5 l 1
 0 518.75 l 1
 0 550 l 1
 93.75 550 l 1
 187.5 550 l 1
 187.5 675 l 1
625 706.25 m 1
 625 737.5 l 1
 656.25 737.5 l 1
 687.5 737.5 l 1
 687.5 706.25 l 1
 687.5 675 l 1
 656.25 675 l 1
 625 675 l 1
 625 643.75 l 1
 625 612.5 l 1
 593.75 612.5 l 1
 562.5 612.5 l 1
 562.5 581.25 l 1
 562.5 550 l 1
 687.5 550 l 1
 812.5 550 l 1
 812.5 581.25 l 1
 812.5 612.5 l 1
 843.75 612.5 l 1
 875 612.5 l 1
 875 581.25 l 1
 875 550 l 1
 906.25 550 l 1
 937.5 550 l 1
 937.5 518.75 l 1
 937.5 487.5 l 1
 906.25 487.5 l 1
 875 487.5 l 1
 875 143.75 l 1
 875 -200 l 1
 843.75 -200 l 1
 812.5 -200 l 1
 812.5 -168.75 l 1
 812.5 -137.5 l 1
 656.25 -137.5 l 1
 500 -137.5 l 1
 500 -168.75 l 1
 500 -200 l 1
 468.75 -200 l 1
 437.5 -200 l 1
 437.5 175 l 1
 437.5 550 l 1
 468.75 550 l 1
 500 550 l 1
 500 581.25 l 1
 500 612.5 l 1
 531.25 612.5 l 1
 562.5 612.5 l 1
 562.5 643.75 l 1
 562.5 675 l 1
 593.75 675 l 1
 625 675 l 1
 625 706.25 l 1
812.5 362.5 m 1
 812.5 487.5 l 1
 656.25 487.5 l 1
 500 487.5 l 1
 500 362.5 l 1
 500 237.5 l 1
 656.25 237.5 l 1
 812.5 237.5 l 1
 812.5 362.5 l 1
812.5 50 m 1
 812.5 175 l 1
 656.25 175 l 1
 500 175 l 1
 500 50 l 1
 500 -75 l 1
 656.25 -75 l 1
 812.5 -75 l 1
 812.5 50 l 1
EndSplineSet
EndChar

StartChar: uni767E
Encoding: 30334 30334 22
Width: 1000
VWidth: 0
Flags: H
LayerCount: 2
Fore
SplineSet
812.5 768.75 m 1
 812.5 800 l 1
 843.75 800 l 1
 875 800 l 1
 875 768.75 l 1
 875 737.5 l 1
 906.25 737.5 l 1
 937.5 737.5 l 1
 937.5 706.25 l 1
 937.5 675 l 1
 718.75 675 l 1
 500 675 l 1
 500 643.75 l 1
 500 612.5 l 1
 468.75 612.5 l 1
 437.5 612.5 l 1
 437.5 581.25 l 1
 437.5 550 l 1
 406.25 550 l 1
 375 550 l 1
 375 518.75 l 1
 375 487.5 l 1
 531.25 487.5 l 1
 687.5 487.5 l 1
 687.5 518.75 l 1
 687.5 550 l 1
 718.75 550 l 1
 750 550 l 1
 750 518.75 l 1
 750 487.5 l 1
 781.25 487.5 l 1
 812.5 487.5 l 1
 812.5 456.25 l 1
 812.5 425 l 1
 781.25 425 l 1
 750 425 l 1
 750 112.5 l 1
 750 -200 l 1
 718.75 -200 l 1
 687.5 -200 l 1
 687.5 -168.75 l 1
 687.5 -137.5 l 1
 468.75 -137.5 l 1
 250 -137.5 l 1
 250 -168.75 l 1
 250 -200 l 1
 218.75 -200 l 1
 187.5 -200 l 1
 187.5 143.75 l 1
 187.5 487.5 l 1
 250 487.5 l 1
 312.5 487.5 l 1
 312.5 518.75 l 1
 312.5 550 l 1
 343.75 550 l 1
 375 550 l 1
 375 581.25 l 1
 375 612.5 l 1
 406.25 612.5 l 1
 437.5 612.5 l 1
 437.5 643.75 l 1
 437.5 675 l 1
 218.75 675 l 1
 0 675 l 1
 0 706.25 l 1
 0 737.5 l 1
 406.25 737.5 l 1
 812.5 737.5 l 1
 812.5 768.75 l 1
687.5 331.25 m 1
 687.5 425 l 1
 468.75 425 l 1
 250 425 l 1
 250 331.25 l 1
 250 237.5 l 1
 468.75 237.5 l 1
 687.5 237.5 l 1
 687.5 331.25 l 1
687.5 50 m 1
 687.5 175 l 1
 468.75 175 l 1
 250 175 l 1
 250 50 l 1
 250 -75 l 1
 468.75 -75 l 1
 687.5 -75 l 1
 687.5 50 l 1
EndSplineSet
EndChar

StartChar: uni6446
Encoding: 25670 25670 23
Width: 1000
VWidth: 0
Flags: H
LayerCount: 2
Fore
SplineSet
187.5 675 m 1
 187.5 800 l 1
 218.75 800 l 1
 250 800 l 1
 250 675 l 1
 250 550 l 1
 281.25 550 l 1
 312.5 550 l 1
 312.5 643.75 l 1
 312.5 737.5 l 1
 562.5 737.5 l 1
 812.5 737.5 l 1
 812.5 768.75 l 1
 812.5 800 l 1
 843.75 800 l 1
 875 800 l 1
 875 768.75 l 1
 875 737.5 l 1
 906.25 737.5 l 1
 937.5 737.5 l 1
 937.5 706.25 l 1
 937.5 675 l 1
 906.25 675 l 1
 875 675 l 1
 875 550 l 1
 875 425 l 1
 843.75 425 l 1
 812.5 425 l 1
 812.5 456.25 l 1
 812.5 487.5 l 1
 718.75 487.5 l 1
 625 487.5 l 1
 625 425 l 1
 625 362.5 l 1
 656.25 362.5 l 1
 687.5 362.5 l 1
 687.5 393.75 l 1
 687.5 425 l 1
 718.75 425 l 1
 750 425 l 1
 750 393.75 l 1
 750 362.5 l 1
 781.25 362.5 l 1
 812.5 362.5 l 1
 812.5 331.25 l 1
 812.5 300 l 1
 718.75 300 l 1
 625 300 l 1
 625 237.5 l 1
 625 175 l 1
 718.75 175 l 1
 812.5 175 l 1
 812.5 206.25 l 1
 812.5 237.5 l 1
 843.75 237.5 l 1
 875 237.5 l 1
 875 206.25 l 1
 875 175 l 1
 906.25 175 l 1
 937.5 175 l 1
 937.5 143.75 l 1
 937.5 112.5 l 1
 750 112.5 l 1
 562.5 112.5 l 1
 562.5 81.25 l 1
 562.5 50 l 1
 531.25 50 l 1
 500 50 l 1
 500 18.75 l 1
 500 -12.5 l 1
 468.75 -12.5 l 1
 437.5 -12.5 l 1
 437.5 -43.75 l 1
 437.5 -75 l 1
 593.75 -75 l 1
 750 -75 l 1
 750 -43.75 l 1
 750 -12.5 l 1
 718.75 -12.5 l 1
 687.5 -12.5 l 1
 687.5 18.75 l 1
 687.5 50 l 1
 718.75 50 l 1
 750 50 l 1
 750 18.75 l 1
 750 -12.5 l 1
 781.25 -12.5 l 1
 812.5 -12.5 l 1
 812.5 -43.75 l 1
 812.5 -75 l 1
 843.75 -75 l 1
 875 -75 l 1
 875 -137.5 l 1
 875 -200 l 1
 843.75 -200 l 1
 812.5 -200 l 1
 812.5 -168.75 l 1
 812.5 -137.5 l 1
 562.5 -137.5 l 1
 312.5 -137.5 l 1
 312.5 -106.25 l 1
 312.5 -75 l 1
 343.75 -75 l 1
 375 -75 l 1
 375 -43.75 l 1
 375 -12.5 l 1
 406.25 -12.5 l 1
 437.5 -12.5 l 1
 437.5 18.75 l 1
 437.5 50 l 1
 468.75 50 l 1
 500 50 l 1
 500 81.25 l 1
 500 112.5 l 1
 375 112.5 l 1
 250 112.5 l 1
 250 -12.5 l 1
 250 -137.5 l 1
 218.75 -137.5 l 1
 187.5 -137.5 l 1
 187.5 -168.75 l 1
 187.5 -200 l 1
 156.25 -200 l 1
 125 -200 l 1
 125 -168.75 l 1
 125 -137.5 l 1
 93.75 -137.5 l 1
 62.5 -137.5 l 1
 62.5 -106.25 l 1
 62.5 -75 l 1
 93.75 -75 l 1
 125 -75 l 1
 125 -106.25 l 1
 125 -137.5 l 1
 156.25 -137.5 l 1
 187.5 -137.5 l 1
 187.5 50 l 1
 187.5 237.5 l 1
 156.25 237.5 l 1
 125 237.5 l 1
 125 206.25 l 1
 125 175 l 1
 62.5 175 l 1
 0 175 l 1
 0 206.25 l 1
 0 237.5 l 1
 62.5 237.5 l 1
 125 237.5 l 1
 125 268.75 l 1
 125 300 l 1
 156.25 300 l 1
 187.5 300 l 1
 187.5 393.75 l 1
 187.5 487.5 l 1
 93.75 487.5 l 1
 0 487.5 l 1
 0 518.75 l 1
 0 550 l 1
 93.75 550 l 1
 187.5 550 l 1
 187.5 675 l 1
500 612.5 m 1
 500 675 l 1
 437.5 675 l 1
 375 675 l 1
 375 612.5 l 1
 375 550 l 1
 437.5 550 l 1
 500 550 l 1
 500 612.5 l 1
625 612.5 m 1
 625 675 l 1
 593.75 675 l 1
 562.5 675 l 1
 562.5 612.5 l 1
 562.5 550 l 1
 593.75 550 l 1
 625 550 l 1
 625 612.5 l 1
812.5 612.5 m 1
 812.5 675 l 1
 750 675 l 1
 687.5 675 l 1
 687.5 612.5 l 1
 687.5 550 l 1
 750 550 l 1
 812.5 550 l 1
 812.5 612.5 l 1
312.5 456.25 m 1
 312.5 487.5 l 1
 281.25 487.5 l 1
 250 487.5 l 1
 250 425 l 1
 250 362.5 l 1
 281.25 362.5 l 1
 312.5 362.5 l 1
 312.5 331.25 l 1
 312.5 300 l 1
 281.25 300 l 1
 250 300 l 1
 250 237.5 l 1
 250 175 l 1
 406.25 175 l 1
 562.5 175 l 1
 562.5 237.5 l 1
 562.5 300 l 1
 468.75 300 l 1
 375 300 l 1
 375 331.25 l 1
 375 362.5 l 1
 468.75 362.5 l 1
 562.5 362.5 l 1
 562.5 425 l 1
 562.5 487.5 l 1
 468.75 487.5 l 1
 375 487.5 l 1
 375 456.25 l 1
 375 425 l 1
 343.75 425 l 1
 312.5 425 l 1
 312.5 456.25 l 1
EndSplineSet
EndChar

StartChar: uni4F70
Encoding: 20336 20336 24
Width: 1000
VWidth: 0
Flags: H
LayerCount: 2
Fore
SplineSet
250 706.25 m 1
 250 800 l 1
 281.25 800 l 1
 312.5 800 l 1
 312.5 737.5 l 1
 312.5 675 l 1
 562.5 675 l 1
 812.5 675 l 1
 812.5 706.25 l 1
 812.5 737.5 l 1
 843.75 737.5 l 1
 875 737.5 l 1
 875 706.25 l 1
 875 675 l 1
 906.25 675 l 1
 937.5 675 l 1
 937.5 643.75 l 1
 937.5 612.5 l 1
 781.25 612.5 l 1
 625 612.5 l 1
 625 581.25 l 1
 625 550 l 1
 593.75 550 l 1
 562.5 550 l 1
 562.5 518.75 l 1
 562.5 487.5 l 1
 656.25 487.5 l 1
 750 487.5 l 1
 750 518.75 l 1
 750 550 l 1
 781.25 550 l 1
 812.5 550 l 1
 812.5 518.75 l 1
 812.5 487.5 l 1
 843.75 487.5 l 1
 875 487.5 l 1
 875 456.25 l 1
 875 425 l 1
 843.75 425 l 1
 812.5 425 l 1
 812.5 112.5 l 1
 812.5 -200 l 1
 781.25 -200 l 1
 750 -200 l 1
 750 -168.75 l 1
 750 -137.5 l 1
 593.75 -137.5 l 1
 437.5 -137.5 l 1
 437.5 -168.75 l 1
 437.5 -200 l 1
 406.25 -200 l 1
 375 -200 l 1
 375 143.75 l 1
 375 487.5 l 1
 437.5 487.5 l 1
 500 487.5 l 1
 500 518.75 l 1
 500 550 l 1
 531.25 550 l 1
 562.5 550 l 1
 562.5 581.25 l 1
 562.5 612.5 l 1
 406.25 612.5 l 1
 250 612.5 l 1
 250 206.25 l 1
 250 -200 l 1
 218.75 -200 l 1
 187.5 -200 l 1
 187.5 112.5 l 1
 187.5 425 l 1
 156.25 425 l 1
 125 425 l 1
 125 393.75 l 1
 125 362.5 l 1
 93.75 362.5 l 1
 62.5 362.5 l 1
 62.5 331.25 l 1
 62.5 300 l 1
 31.25 300 l 1
 0 300 l 1
 0 331.25 l 1
 0 362.5 l 1
 31.25 362.5 l 1
 62.5 362.5 l 1
 62.5 393.75 l 1
 62.5 425 l 1
 93.75 425 l 1
 125 425 l 1
 125 456.25 l 1
 125 487.5 l 1
 156.25 487.5 l 1
 187.5 487.5 l 1
 187.5 550 l 1
 187.5 612.5 l 1
 218.75 612.5 l 1
 250 612.5 l 1
 250 706.25 l 1
750 331.25 m 1
 750 425 l 1
 593.75 425 l 1
 437.5 425 l 1
 437.5 331.25 l 1
 437.5 237.5 l 1
 593.75 237.5 l 1
 750 237.5 l 1
 750 331.25 l 1
750 50 m 1
 750 175 l 1
 593.75 175 l 1
 437.5 175 l 1
 437.5 50 l 1
 437.5 -75 l 1
 593.75 -75 l 1
 750 -75 l 1
 750 50 l 1
EndSplineSet
EndChar

StartChar: uni8D25
Encoding: 36133 36133 25
Width: 1000
VWidth: 0
Flags: H
LayerCount: 2
Fore
SplineSet
312.5 768.75 m 1
 312.5 800 l 1
 343.75 800 l 1
 375 800 l 1
 375 768.75 l 1
 375 737.5 l 1
 406.25 737.5 l 1
 437.5 737.5 l 1
 437.5 706.25 l 1
 437.5 675 l 1
 406.25 675 l 1
 375 675 l 1
 375 393.75 l 1
 375 112.5 l 1
 343.75 112.5 l 1
 312.5 112.5 l 1
 312.5 393.75 l 1
 312.5 675 l 1
 218.75 675 l 1
 125 675 l 1
 125 393.75 l 1
 125 112.5 l 1
 93.75 112.5 l 1
 62.5 112.5 l 1
 62.5 425 l 1
 62.5 737.5 l 1
 187.5 737.5 l 1
 312.5 737.5 l 1
 312.5 768.75 l 1
562.5 675 m 1
 562.5 800 l 1
 593.75 800 l 1
 625 800 l 1
 625 706.25 l 1
 625 612.5 l 1
 718.75 612.5 l 1
 812.5 612.5 l 1
 812.5 643.75 l 1
 812.5 675 l 1
 843.75 675 l 1
 875 675 l 1
 875 643.75 l 1
 875 612.5 l 1
 906.25 612.5 l 1
 937.5 612.5 l 1
 937.5 581.25 l 1
 937.5 550 l 1
 875 550 l 1
 812.5 550 l 1
 812.5 393.75 l 1
 812.5 237.5 l 1
 781.25 237.5 l 1
 750 237.5 l 1
 750 175 l 1
 750 112.5 l 1
 718.75 112.5 l 1
 687.5 112.5 l 1
 687.5 81.25 l 1
 687.5 50 l 1
 718.75 50 l 1
 750 50 l 1
 750 18.75 l 1
 750 -12.5 l 1
 843.75 -12.5 l 1
 937.5 -12.5 l 1
 937.5 -43.75 l 1
 937.5 -75 l 1
 906.25 -75 l 1
 875 -75 l 1
 875 -106.25 l 1
 875 -137.5 l 1
 843.75 -137.5 l 1
 812.5 -137.5 l 1
 812.5 -106.25 l 1
 812.5 -75 l 1
 781.25 -75 l 1
 750 -75 l 1
 750 -43.75 l 1
 750 -12.5 l 1
 718.75 -12.5 l 1
 687.5 -12.5 l 1
 687.5 18.75 l 1
 687.5 50 l 1
 656.25 50 l 1
 625 50 l 1
 625 18.75 l 1
 625 -12.5 l 1
 593.75 -12.5 l 1
 562.5 -12.5 l 1
 562.5 -43.75 l 1
 562.5 -75 l 1
 531.25 -75 l 1
 500 -75 l 1
 500 -106.25 l 1
 500 -137.5 l 1
 468.75 -137.5 l 1
 437.5 -137.5 l 1
 437.5 -168.75 l 1
 437.5 -200 l 1
 406.25 -200 l 1
 375 -200 l 1
 375 -168.75 l 1
 375 -137.5 l 1
 343.75 -137.5 l 1
 312.5 -137.5 l 1
 312.5 -75 l 1
 312.5 -12.5 l 1
 281.25 -12.5 l 1
 250 -12.5 l 1
 250 18.75 l 1
 250 50 l 1
 218.75 50 l 1
 187.5 50 l 1
 187.5 -12.5 l 1
 187.5 -75 l 1
 156.25 -75 l 1
 125 -75 l 1
 125 -106.25 l 1
 125 -137.5 l 1
 93.75 -137.5 l 1
 62.5 -137.5 l 1
 62.5 -168.75 l 1
 62.5 -200 l 1
 31.25 -200 l 1
 0 -200 l 1
 0 -168.75 l 1
 0 -137.5 l 1
 31.25 -137.5 l 1
 62.5 -137.5 l 1
 62.5 -106.25 l 1
 62.5 -75 l 1
 93.75 -75 l 1
 125 -75 l 1
 125 -12.5 l 1
 125 50 l 1
 156.25 50 l 1
 187.5 50 l 1
 187.5 331.25 l 1
 187.5 612.5 l 1
 218.75 612.5 l 1
 250 612.5 l 1
 250 331.25 l 1
 250 50 l 1
 281.25 50 l 1
 312.5 50 l 1
 312.5 18.75 l 1
 312.5 -12.5 l 1
 343.75 -12.5 l 1
 375 -12.5 l 1
 375 -75 l 1
 375 -137.5 l 1
 406.25 -137.5 l 1
 437.5 -137.5 l 1
 437.5 -106.25 l 1
 437.5 -75 l 1
 468.75 -75 l 1
 500 -75 l 1
 500 -43.75 l 1
 500 -12.5 l 1
 531.25 -12.5 l 1
 562.5 -12.5 l 1
 562.5 18.75 l 1
 562.5 50 l 1
 593.75 50 l 1
 625 50 l 1
 625 81.25 l 1
 625 112.5 l 1
 593.75 112.5 l 1
 562.5 112.5 l 1
 562.5 268.75 l 1
 562.5 425 l 1
 593.75 425 l 1
 625 425 l 1
 625 268.75 l 1
 625 112.5 l 1
 656.25 112.5 l 1
 687.5 112.5 l 1
 687.5 175 l 1
 687.5 237.5 l 1
 718.75 237.5 l 1
 750 237.5 l 1
 750 393.75 l 1
 750 550 l 1
 656.25 550 l 1
 562.5 550 l 1
 562.5 518.75 l 1
 562.5 487.5 l 1
 531.25 487.5 l 1
 500 487.5 l 1
 500 456.25 l 1
 500 425 l 1
 468.75 425 l 1
 437.5 425 l 1
 437.5 456.25 l 1
 437.5 487.5 l 1
 468.75 487.5 l 1
 500 487.5 l 1
 500 518.75 l 1
 500 550 l 1
 531.25 550 l 1
 562.5 550 l 1
 562.5 675 l 1
EndSplineSet
EndChar

StartChar: uni62DC
Encoding: 25308 25308 26
Width: 1000
VWidth: 0
Flags: H
LayerCount: 2
Fore
SplineSet
312.5 768.75 m 1
 312.5 800 l 1
 343.75 800 l 1
 375 800 l 1
 375 768.75 l 1
 375 737.5 l 1
 406.25 737.5 l 1
 437.5 737.5 l 1
 437.5 706.25 l 1
 437.5 675 l 1
 375 675 l 1
 312.5 675 l 1
 312.5 581.25 l 1
 312.5 487.5 l 1
 375 487.5 l 1
 437.5 487.5 l 1
 437.5 456.25 l 1
 437.5 425 l 1
 375 425 l 1
 312.5 425 l 1
 312.5 362.5 l 1
 312.5 300 l 1
 406.25 300 l 1
 500 300 l 1
 500 331.25 l 1
 500 362.5 l 1
 562.5 362.5 l 1
 625 362.5 l 1
 625 425 l 1
 625 487.5 l 1
 562.5 487.5 l 1
 500 487.5 l 1
 500 518.75 l 1
 500 550 l 1
 562.5 550 l 1
 625 550 l 1
 625 612.5 l 1
 625 675 l 1
 562.5 675 l 1
 500 675 l 1
 500 706.25 l 1
 500 737.5 l 1
 625 737.5 l 1
 750 737.5 l 1
 750 768.75 l 1
 750 800 l 1
 781.25 800 l 1
 812.5 800 l 1
 812.5 768.75 l 1
 812.5 737.5 l 1
 843.75 737.5 l 1
 875 737.5 l 1
 875 706.25 l 1
 875 675 l 1
 781.25 675 l 1
 687.5 675 l 1
 687.5 612.5 l 1
 687.5 550 l 1
 718.75 550 l 1
 750 550 l 1
 750 581.25 l 1
 750 612.5 l 1
 781.25 612.5 l 1
 812.5 612.5 l 1
 812.5 581.25 l 1
 812.5 550 l 1
 843.75 550 l 1
 875 550 l 1
 875 518.75 l 1
 875 487.5 l 1
 781.25 487.5 l 1
 687.5 487.5 l 1
 687.5 425 l 1
 687.5 362.5 l 1
 718.75 362.5 l 1
 750 362.5 l 1
 750 393.75 l 1
 750 425 l 1
 781.25 425 l 1
 812.5 425 l 1
 812.5 393.75 l 1
 812.5 362.5 l 1
 843.75 362.5 l 1
 875 362.5 l 1
 875 331.25 l 1
 875 300 l 1
 781.25 300 l 1
 687.5 300 l 1
 687.5 237.5 l 1
 687.5 175 l 1
 750 175 l 1
 812.5 175 l 1
 812.5 206.25 l 1
 812.5 237.5 l 1
 843.75 237.5 l 1
 875 237.5 l 1
 875 206.25 l 1
 875 175 l 1
 906.25 175 l 1
 937.5 175 l 1
 937.5 143.75 l 1
 937.5 112.5 l 1
 812.5 112.5 l 1
 687.5 112.5 l 1
 687.5 -43.75 l 1
 687.5 -200 l 1
 656.25 -200 l 1
 625 -200 l 1
 625 -43.75 l 1
 625 112.5 l 1
 531.25 112.5 l 1
 437.5 112.5 l 1
 437.5 143.75 l 1
 437.5 175 l 1
 531.25 175 l 1
 625 175 l 1
 625 237.5 l 1
 625 300 l 1
 562.5 300 l 1
 500 300 l 1
 500 268.75 l 1
 500 237.5 l 1
 406.25 237.5 l 1
 312.5 237.5 l 1
 312.5 143.75 l 1
 312.5 50 l 1
 281.25 50 l 1
 250 50 l 1
 250 -12.5 l 1
 250 -75 l 1
 218.75 -75 l 1
 187.5 -75 l 1
 187.5 -106.25 l 1
 187.5 -137.5 l 1
 156.25 -137.5 l 1
 125 -137.5 l 1
 125 -168.75 l 1
 125 -200 l 1
 93.75 -200 l 1
 62.5 -200 l 1
 62.5 -168.75 l 1
 62.5 -137.5 l 1
 93.75 -137.5 l 1
 125 -137.5 l 1
 125 -106.25 l 1
 125 -75 l 1
 156.25 -75 l 1
 187.5 -75 l 1
 187.5 -12.5 l 1
 187.5 50 l 1
 218.75 50 l 1
 250 50 l 1
 250 143.75 l 1
 250 237.5 l 1
 125 237.5 l 1
 0 237.5 l 1
 0 268.75 l 1
 0 300 l 1
 125 300 l 1
 250 300 l 1
 250 362.5 l 1
 250 425 l 1
 156.25 425 l 1
 62.5 425 l 1
 62.5 456.25 l 1
 62.5 487.5 l 1
 156.25 487.5 l 1
 250 487.5 l 1
 250 550 l 1
 250 612.5 l 1
 156.25 612.5 l 1
 62.5 612.5 l 1
 62.5 643.75 l 1
 62.5 675 l 1
 156.25 675 l 1
 250 675 l 1
 250 706.25 l 1
 250 737.5 l 1
 281.25 737.5 l 1
 312.5 737.5 l 1
 312.5 768.75 l 1
EndSplineSet
EndChar

StartChar: uni7A17
Encoding: 31255 31255 27
Width: 1000
VWidth: 0
Flags: H
LayerCount: 2
Fore
SplineSet
250 768.75 m 1
 250 800 l 1
 281.25 800 l 1
 312.5 800 l 1
 312.5 768.75 l 1
 312.5 737.5 l 1
 343.75 737.5 l 1
 375 737.5 l 1
 375 706.25 l 1
 375 675 l 1
 312.5 675 l 1
 250 675 l 1
 250 581.25 l 1
 250 487.5 l 1
 312.5 487.5 l 1
 375 487.5 l 1
 375 456.25 l 1
 375 425 l 1
 312.5 425 l 1
 250 425 l 1
 250 393.75 l 1
 250 362.5 l 1
 281.25 362.5 l 1
 312.5 362.5 l 1
 312.5 331.25 l 1
 312.5 300 l 1
 343.75 300 l 1
 375 300 l 1
 375 268.75 l 1
 375 237.5 l 1
 343.75 237.5 l 1
 312.5 237.5 l 1
 312.5 268.75 l 1
 312.5 300 l 1
 281.25 300 l 1
 250 300 l 1
 250 50 l 1
 250 -200 l 1
 218.75 -200 l 1
 187.5 -200 l 1
 187.5 18.75 l 1
 187.5 237.5 l 1
 156.25 237.5 l 1
 125 237.5 l 1
 125 175 l 1
 125 112.5 l 1
 93.75 112.5 l 1
 62.5 112.5 l 1
 62.5 81.25 l 1
 62.5 50 l 1
 31.25 50 l 1
 0 50 l 1
 0 81.25 l 1
 0 112.5 l 1
 31.25 112.5 l 1
 62.5 112.5 l 1
 62.5 175 l 1
 62.5 237.5 l 1
 93.75 237.5 l 1
 125 237.5 l 1
 125 300 l 1
 125 362.5 l 1
 156.25 362.5 l 1
 187.5 362.5 l 1
 187.5 393.75 l 1
 187.5 425 l 1
 93.75 425 l 1
 0 425 l 1
 0 456.25 l 1
 0 487.5 l 1
 93.75 487.5 l 1
 187.5 487.5 l 1
 187.5 550 l 1
 187.5 612.5 l 1
 93.75 612.5 l 1
 0 612.5 l 1
 0 643.75 l 1
 0 675 l 1
 93.75 675 l 1
 187.5 675 l 1
 187.5 706.25 l 1
 187.5 737.5 l 1
 218.75 737.5 l 1
 250 737.5 l 1
 250 768.75 l 1
625 768.75 m 1
 625 800 l 1
 656.25 800 l 1
 687.5 800 l 1
 687.5 768.75 l 1
 687.5 737.5 l 1
 656.25 737.5 l 1
 625 737.5 l 1
 625 706.25 l 1
 625 675 l 1
 718.75 675 l 1
 812.5 675 l 1
 812.5 706.25 l 1
 812.5 737.5 l 1
 843.75 737.5 l 1
 875 737.5 l 1
 875 706.25 l 1
 875 675 l 1
 906.25 675 l 1
 937.5 675 l 1
 937.5 643.75 l 1
 937.5 612.5 l 1
 906.25 612.5 l 1
 875 612.5 l 1
 875 425 l 1
 875 237.5 l 1
 781.25 237.5 l 1
 687.5 237.5 l 1
 687.5 175 l 1
 687.5 112.5 l 1
 750 112.5 l 1
 812.5 112.5 l 1
 812.5 143.75 l 1
 812.5 175 l 1
 843.75 175 l 1
 875 175 l 1
 875 143.75 l 1
 875 112.5 l 1
 906.25 112.5 l 1
 937.5 112.5 l 1
 937.5 81.25 l 1
 937.5 50 l 1
 812.5 50 l 1
 687.5 50 l 1
 687.5 -75 l 1
 687.5 -200 l 1
 656.25 -200 l 1
 625 -200 l 1
 625 -75 l 1
 625 50 l 1
 468.75 50 l 1
 312.5 50 l 1
 312.5 81.25 l 1
 312.5 112.5 l 1
 375 112.5 l 1
 437.5 112.5 l 1
 437.5 143.75 l 1
 437.5 175 l 1
 468.75 175 l 1
 500 175 l 1
 500 206.25 l 1
 500 237.5 l 1
 468.75 237.5 l 1
 437.5 237.5 l 1
 437.5 456.25 l 1
 437.5 675 l 1
 500 675 l 1
 562.5 675 l 1
 562.5 706.25 l 1
 562.5 737.5 l 1
 593.75 737.5 l 1
 625 737.5 l 1
 625 768.75 l 1
625 550 m 1
 625 612.5 l 1
 562.5 612.5 l 1
 500 612.5 l 1
 500 550 l 1
 500 487.5 l 1
 562.5 487.5 l 1
 625 487.5 l 1
 625 550 l 1
812.5 550 m 1
 812.5 612.5 l 1
 750 612.5 l 1
 687.5 612.5 l 1
 687.5 550 l 1
 687.5 487.5 l 1
 750 487.5 l 1
 812.5 487.5 l 1
 812.5 550 l 1
625 393.75 m 1
 625 425 l 1
 562.5 425 l 1
 500 425 l 1
 500 362.5 l 1
 500 300 l 1
 531.25 300 l 1
 562.5 300 l 1
 562.5 331.25 l 1
 562.5 362.5 l 1
 593.75 362.5 l 1
 625 362.5 l 1
 625 331.25 l 1
 625 300 l 1
 718.75 300 l 1
 812.5 300 l 1
 812.5 362.5 l 1
 812.5 425 l 1
 750 425 l 1
 687.5 425 l 1
 687.5 393.75 l 1
 687.5 362.5 l 1
 656.25 362.5 l 1
 625 362.5 l 1
 625 393.75 l 1
625 175 m 1
 625 237.5 l 1
 593.75 237.5 l 1
 562.5 237.5 l 1
 562.5 206.25 l 1
 562.5 175 l 1
 531.25 175 l 1
 500 175 l 1
 500 143.75 l 1
 500 112.5 l 1
 562.5 112.5 l 1
 625 112.5 l 1
 625 175 l 1
EndSplineSet
EndChar

StartChar: uni6591
Encoding: 26001 26001 28
Width: 1000
VWidth: 0
Flags: H
LayerCount: 2
Fore
SplineSet
187.5 706.25 m 1
 187.5 737.5 l 1
 218.75 737.5 l 1
 250 737.5 l 1
 250 706.25 l 1
 250 675 l 1
 281.25 675 l 1
 312.5 675 l 1
 312.5 643.75 l 1
 312.5 612.5 l 1
 250 612.5 l 1
 187.5 612.5 l 1
 187.5 487.5 l 1
 187.5 362.5 l 1
 250 362.5 l 1
 312.5 362.5 l 1
 312.5 393.75 l 1
 312.5 425 l 1
 343.75 425 l 1
 375 425 l 1
 375 393.75 l 1
 375 362.5 l 1
 406.25 362.5 l 1
 437.5 362.5 l 1
 437.5 331.25 l 1
 437.5 300 l 1
 468.75 300 l 1
 500 300 l 1
 500 362.5 l 1
 500 425 l 1
 531.25 425 l 1
 562.5 425 l 1
 562.5 393.75 l 1
 562.5 362.5 l 1
 625 362.5 l 1
 687.5 362.5 l 1
 687.5 487.5 l 1
 687.5 612.5 l 1
 625 612.5 l 1
 562.5 612.5 l 1
 562.5 643.75 l 1
 562.5 675 l 1
 687.5 675 l 1
 812.5 675 l 1
 812.5 706.25 l 1
 812.5 737.5 l 1
 843.75 737.5 l 1
 875 737.5 l 1
 875 706.25 l 1
 875 675 l 1
 906.25 675 l 1
 937.5 675 l 1
 937.5 643.75 l 1
 937.5 612.5 l 1
 843.75 612.5 l 1
 750 612.5 l 1
 750 487.5 l 1
 750 362.5 l 1
 812.5 362.5 l 1
 875 362.5 l 1
 875 331.25 l 1
 875 300 l 1
 812.5 300 l 1
 750 300 l 1
 750 112.5 l 1
 750 -75 l 1
 781.25 -75 l 1
 812.5 -75 l 1
 812.5 -43.75 l 1
 812.5 -12.5 l 1
 843.75 -12.5 l 1
 875 -12.5 l 1
 875 -43.75 l 1
 875 -75 l 1
 906.25 -75 l 1
 937.5 -75 l 1
 937.5 -106.25 l 1
 937.5 -137.5 l 1
 718.75 -137.5 l 1
 500 -137.5 l 1
 500 -106.25 l 1
 500 -75 l 1
 593.75 -75 l 1
 687.5 -75 l 1
 687.5 112.5 l 1
 687.5 300 l 1
 593.75 300 l 1
 500 300 l 1
 500 237.5 l 1
 500 175 l 1
 531.25 175 l 1
 562.5 175 l 1
 562.5 143.75 l 1
 562.5 112.5 l 1
 593.75 112.5 l 1
 625 112.5 l 1
 625 50 l 1
 625 -12.5 l 1
 593.75 -12.5 l 1
 562.5 -12.5 l 1
 562.5 50 l 1
 562.5 112.5 l 1
 531.25 112.5 l 1
 500 112.5 l 1
 500 143.75 l 1
 500 175 l 1
 468.75 175 l 1
 437.5 175 l 1
 437.5 112.5 l 1
 437.5 50 l 1
 406.25 50 l 1
 375 50 l 1
 375 -12.5 l 1
 375 -75 l 1
 343.75 -75 l 1
 312.5 -75 l 1
 312.5 -106.25 l 1
 312.5 -137.5 l 1
 281.25 -137.5 l 1
 250 -137.5 l 1
 250 -106.25 l 1
 250 -75 l 1
 281.25 -75 l 1
 312.5 -75 l 1
 312.5 -43.75 l 1
 312.5 -12.5 l 1
 250 -12.5 l 1
 187.5 -12.5 l 1
 187.5 -43.75 l 1
 187.5 -75 l 1
 156.25 -75 l 1
 125 -75 l 1
 125 -106.25 l 1
 125 -137.5 l 1
 93.75 -137.5 l 1
 62.5 -137.5 l 1
 62.5 -106.25 l 1
 62.5 -75 l 1
 31.25 -75 l 1
 0 -75 l 1
 0 -43.75 l 1
 0 -12.5 l 1
 62.5 -12.5 l 1
 125 -12.5 l 1
 125 143.75 l 1
 125 300 l 1
 62.5 300 l 1
 0 300 l 1
 0 331.25 l 1
 0 362.5 l 1
 62.5 362.5 l 1
 125 362.5 l 1
 125 487.5 l 1
 125 612.5 l 1
 62.5 612.5 l 1
 0 612.5 l 1
 0 643.75 l 1
 0 675 l 1
 93.75 675 l 1
 187.5 675 l 1
 187.5 706.25 l 1
375 331.25 m 1
 375 362.5 l 1
 343.75 362.5 l 1
 312.5 362.5 l 1
 312.5 331.25 l 1
 312.5 300 l 1
 250 300 l 1
 187.5 300 l 1
 187.5 175 l 1
 187.5 50 l 1
 281.25 50 l 1
 375 50 l 1
 375 112.5 l 1
 375 175 l 1
 406.25 175 l 1
 437.5 175 l 1
 437.5 237.5 l 1
 437.5 300 l 1
 406.25 300 l 1
 375 300 l 1
 375 331.25 l 1
375 706.25 m 1
 375 737.5 l 1
 406.25 737.5 l 1
 437.5 737.5 l 1
 437.5 706.25 l 1
 437.5 675 l 1
 468.75 675 l 1
 500 675 l 1
 500 643.75 l 1
 500 612.5 l 1
 468.75 612.5 l 1
 437.5 612.5 l 1
 437.5 643.75 l 1
 437.5 675 l 1
 406.25 675 l 1
 375 675 l 1
 375 706.25 l 1
250 518.75 m 1
 250 550 l 1
 437.5 550 l 1
 625 550 l 1
 625 518.75 l 1
 625 487.5 l 1
 437.5 487.5 l 1
 250 487.5 l 1
 250 518.75 l 1
EndSplineSet
EndChar

StartChar: uni73ED
Encoding: 29677 29677 29
Width: 1000
VWidth: 0
Flags: H
LayerCount: 2
Fore
SplineSet
437.5 456.25 m 1
 437.5 800 l 1
 468.75 800 l 1
 500 800 l 1
 500 456.25 l 1
 500 112.5 l 1
 468.75 112.5 l 1
 437.5 112.5 l 1
 437.5 18.75 l 1
 437.5 -75 l 1
 406.25 -75 l 1
 375 -75 l 1
 375 -106.25 l 1
 375 -137.5 l 1
 343.75 -137.5 l 1
 312.5 -137.5 l 1
 312.5 -168.75 l 1
 312.5 -200 l 1
 281.25 -200 l 1
 250 -200 l 1
 250 -168.75 l 1
 250 -137.5 l 1
 281.25 -137.5 l 1
 312.5 -137.5 l 1
 312.5 -106.25 l 1
 312.5 -75 l 1
 343.75 -75 l 1
 375 -75 l 1
 375 18.75 l 1
 375 112.5 l 1
 406.25 112.5 l 1
 437.5 112.5 l 1
 437.5 456.25 l 1
250 706.25 m 1
 250 737.5 l 1
 281.25 737.5 l 1
 312.5 737.5 l 1
 312.5 706.25 l 1
 312.5 675 l 1
 343.75 675 l 1
 375 675 l 1
 375 643.75 l 1
 375 612.5 l 1
 281.25 612.5 l 1
 187.5 612.5 l 1
 187.5 487.5 l 1
 187.5 362.5 l 1
 218.75 362.5 l 1
 250 362.5 l 1
 250 331.25 l 1
 250 300 l 1
 218.75 300 l 1
 187.5 300 l 1
 187.5 175 l 1
 187.5 50 l 1
 250 50 l 1
 312.5 50 l 1
 312.5 18.75 l 1
 312.5 -12.5 l 1
 250 -12.5 l 1
 187.5 -12.5 l 1
 187.5 -43.75 l 1
 187.5 -75 l 1
 156.25 -75 l 1
 125 -75 l 1
 125 -106.25 l 1
 125 -137.5 l 1
 93.75 -137.5 l 1
 62.5 -137.5 l 1
 62.5 -106.25 l 1
 62.5 -75 l 1
 31.25 -75 l 1
 0 -75 l 1
 0 -43.75 l 1
 0 -12.5 l 1
 62.5 -12.5 l 1
 125 -12.5 l 1
 125 143.75 l 1
 125 300 l 1
 62.5 300 l 1
 0 300 l 1
 0 331.25 l 1
 0 362.5 l 1
 62.5 362.5 l 1
 125 362.5 l 1
 125 487.5 l 1
 125 612.5 l 1
 62.5 612.5 l 1
 0 612.5 l 1
 0 643.75 l 1
 0 675 l 1
 125 675 l 1
 250 675 l 1
 250 706.25 l 1
812.5 706.25 m 1
 812.5 737.5 l 1
 843.75 737.5 l 1
 875 737.5 l 1
 875 706.25 l 1
 875 675 l 1
 906.25 675 l 1
 937.5 675 l 1
 937.5 643.75 l 1
 937.5 612.5 l 1
 843.75 612.5 l 1
 750 612.5 l 1
 750 487.5 l 1
 750 362.5 l 1
 812.5 362.5 l 1
 875 362.5 l 1
 875 331.25 l 1
 875 300 l 1
 812.5 300 l 1
 750 300 l 1
 750 112.5 l 1
 750 -75 l 1
 781.25 -75 l 1
 812.5 -75 l 1
 812.5 -43.75 l 1
 812.5 -12.5 l 1
 843.75 -12.5 l 1
 875 -12.5 l 1
 875 -43.75 l 1
 875 -75 l 1
 906.25 -75 l 1
 937.5 -75 l 1
 937.5 -106.25 l 1
 937.5 -137.5 l 1
 718.75 -137.5 l 1
 500 -137.5 l 1
 500 -106.25 l 1
 500 -75 l 1
 593.75 -75 l 1
 687.5 -75 l 1
 687.5 112.5 l 1
 687.5 300 l 1
 625 300 l 1
 562.5 300 l 1
 562.5 331.25 l 1
 562.5 362.5 l 1
 625 362.5 l 1
 687.5 362.5 l 1
 687.5 487.5 l 1
 687.5 612.5 l 1
 625 612.5 l 1
 562.5 612.5 l 1
 562.5 643.75 l 1
 562.5 675 l 1
 687.5 675 l 1
 812.5 675 l 1
 812.5 706.25 l 1
312.5 393.75 m 1
 312.5 550 l 1
 343.75 550 l 1
 375 550 l 1
 375 393.75 l 1
 375 237.5 l 1
 343.75 237.5 l 1
 312.5 237.5 l 1
 312.5 206.25 l 1
 312.5 175 l 1
 281.25 175 l 1
 250 175 l 1
 250 206.25 l 1
 250 237.5 l 1
 281.25 237.5 l 1
 312.5 237.5 l 1
 312.5 393.75 l 1
EndSplineSet
EndChar

StartChar: uni642C
Encoding: 25644 25644 30
Width: 1000
VWidth: 0
Flags: H
LayerCount: 2
Fore
SplineSet
125 675 m 1
 125 800 l 1
 156.25 800 l 1
 187.5 800 l 1
 187.5 675 l 1
 187.5 550 l 1
 250 550 l 1
 312.5 550 l 1
 312.5 612.5 l 1
 312.5 675 l 1
 343.75 675 l 1
 375 675 l 1
 375 706.25 l 1
 375 737.5 l 1
 406.25 737.5 l 1
 437.5 737.5 l 1
 437.5 768.75 l 1
 437.5 800 l 1
 468.75 800 l 1
 500 800 l 1
 500 768.75 l 1
 500 737.5 l 1
 468.75 737.5 l 1
 437.5 737.5 l 1
 437.5 706.25 l 1
 437.5 675 l 1
 500 675 l 1
 562.5 675 l 1
 562.5 550 l 1
 562.5 425 l 1
 593.75 425 l 1
 625 425 l 1
 625 581.25 l 1
 625 737.5 l 1
 718.75 737.5 l 1
 812.5 737.5 l 1
 812.5 768.75 l 1
 812.5 800 l 1
 843.75 800 l 1
 875 800 l 1
 875 768.75 l 1
 875 737.5 l 1
 906.25 737.5 l 1
 937.5 737.5 l 1
 937.5 706.25 l 1
 937.5 675 l 1
 906.25 675 l 1
 875 675 l 1
 875 550 l 1
 875 425 l 1
 906.25 425 l 1
 937.5 425 l 1
 937.5 393.75 l 1
 937.5 362.5 l 1
 906.25 362.5 l 1
 875 362.5 l 1
 875 237.5 l 1
 875 112.5 l 1
 843.75 112.5 l 1
 812.5 112.5 l 1
 812.5 50 l 1
 812.5 -12.5 l 1
 843.75 -12.5 l 1
 875 -12.5 l 1
 875 -75 l 1
 875 -137.5 l 1
 906.25 -137.5 l 1
 937.5 -137.5 l 1
 937.5 -168.75 l 1
 937.5 -200 l 1
 906.25 -200 l 1
 875 -200 l 1
 875 -168.75 l 1
 875 -137.5 l 1
 843.75 -137.5 l 1
 812.5 -137.5 l 1
 812.5 -75 l 1
 812.5 -12.5 l 1
 781.25 -12.5 l 1
 750 -12.5 l 1
 750 -43.75 l 1
 750 -75 l 1
 718.75 -75 l 1
 687.5 -75 l 1
 687.5 -106.25 l 1
 687.5 -137.5 l 1
 656.25 -137.5 l 1
 625 -137.5 l 1
 625 -168.75 l 1
 625 -200 l 1
 593.75 -200 l 1
 562.5 -200 l 1
 562.5 -168.75 l 1
 562.5 -137.5 l 1
 531.25 -137.5 l 1
 500 -137.5 l 1
 500 -168.75 l 1
 500 -200 l 1
 468.75 -200 l 1
 437.5 -200 l 1
 437.5 -168.75 l 1
 437.5 -137.5 l 1
 406.25 -137.5 l 1
 375 -137.5 l 1
 375 -106.25 l 1
 375 -75 l 1
 406.25 -75 l 1
 437.5 -75 l 1
 437.5 -106.25 l 1
 437.5 -137.5 l 1
 468.75 -137.5 l 1
 500 -137.5 l 1
 500 -12.5 l 1
 500 112.5 l 1
 468.75 112.5 l 1
 437.5 112.5 l 1
 437.5 143.75 l 1
 437.5 175 l 1
 406.25 175 l 1
 375 175 l 1
 375 81.25 l 1
 375 -12.5 l 1
 343.75 -12.5 l 1
 312.5 -12.5 l 1
 312.5 -43.75 l 1
 312.5 -75 l 1
 281.25 -75 l 1
 250 -75 l 1
 250 -106.25 l 1
 250 -137.5 l 1
 187.5 -137.5 l 1
 125 -137.5 l 1
 125 -168.75 l 1
 125 -200 l 1
 93.75 -200 l 1
 62.5 -200 l 1
 62.5 -168.75 l 1
 62.5 -137.5 l 1
 31.25 -137.5 l 1
 0 -137.5 l 1
 0 -106.25 l 1
 0 -75 l 1
 31.25 -75 l 1
 62.5 -75 l 1
 62.5 -106.25 l 1
 62.5 -137.5 l 1
 93.75 -137.5 l 1
 125 -137.5 l 1
 125 18.75 l 1
 125 175 l 1
 62.5 175 l 1
 0 175 l 1
 0 206.25 l 1
 0 237.5 l 1
 62.5 237.5 l 1
 125 237.5 l 1
 125 362.5 l 1
 125 487.5 l 1
 62.5 487.5 l 1
 0 487.5 l 1
 0 518.75 l 1
 0 550 l 1
 62.5 550 l 1
 125 550 l 1
 125 675 l 1
812.5 550 m 1
 812.5 675 l 1
 750 675 l 1
 687.5 675 l 1
 687.5 550 l 1
 687.5 425 l 1
 656.25 425 l 1
 625 425 l 1
 625 393.75 l 1
 625 362.5 l 1
 593.75 362.5 l 1
 562.5 362.5 l 1
 562.5 112.5 l 1
 562.5 -137.5 l 1
 593.75 -137.5 l 1
 625 -137.5 l 1
 625 -106.25 l 1
 625 -75 l 1
 656.25 -75 l 1
 687.5 -75 l 1
 687.5 -43.75 l 1
 687.5 -12.5 l 1
 718.75 -12.5 l 1
 750 -12.5 l 1
 750 18.75 l 1
 750 50 l 1
 718.75 50 l 1
 687.5 50 l 1
 687.5 81.25 l 1
 687.5 112.5 l 1
 750 112.5 l 1
 812.5 112.5 l 1
 812.5 206.25 l 1
 812.5 300 l 1
 750 300 l 1
 687.5 300 l 1
 687.5 206.25 l 1
 687.5 112.5 l 1
 656.25 112.5 l 1
 625 112.5 l 1
 625 237.5 l 1
 625 362.5 l 1
 750 362.5 l 1
 875 362.5 l 1
 875 393.75 l 1
 875 425 l 1
 843.75 425 l 1
 812.5 425 l 1
 812.5 550 l 1
500 550 m 1
 500 612.5 l 1
 437.5 612.5 l 1
 375 612.5 l 1
 375 581.25 l 1
 375 550 l 1
 406.25 550 l 1
 437.5 550 l 1
 437.5 518.75 l 1
 437.5 487.5 l 1
 406.25 487.5 l 1
 375 487.5 l 1
 375 425 l 1
 375 362.5 l 1
 437.5 362.5 l 1
 500 362.5 l 1
 500 393.75 l 1
 500 425 l 1
 468.75 425 l 1
 437.5 425 l 1
 437.5 456.25 l 1
 437.5 487.5 l 1
 468.75 487.5 l 1
 500 487.5 l 1
 500 550 l 1
312.5 425 m 1
 312.5 487.5 l 1
 250 487.5 l 1
 187.5 487.5 l 1
 187.5 393.75 l 1
 187.5 300 l 1
 218.75 300 l 1
 250 300 l 1
 250 268.75 l 1
 250 237.5 l 1
 218.75 237.5 l 1
 187.5 237.5 l 1
 187.5 81.25 l 1
 187.5 -75 l 1
 218.75 -75 l 1
 250 -75 l 1
 250 -43.75 l 1
 250 -12.5 l 1
 281.25 -12.5 l 1
 312.5 -12.5 l 1
 312.5 143.75 l 1
 312.5 300 l 1
 281.25 300 l 1
 250 300 l 1
 250 331.25 l 1
 250 362.5 l 1
 281.25 362.5 l 1
 312.5 362.5 l 1
 312.5 425 l 1
500 237.5 m 1
 500 300 l 1
 437.5 300 l 1
 375 300 l 1
 375 268.75 l 1
 375 237.5 l 1
 406.25 237.5 l 1
 437.5 237.5 l 1
 437.5 206.25 l 1
 437.5 175 l 1
 468.75 175 l 1
 500 175 l 1
 500 237.5 l 1
EndSplineSet
EndChar

StartChar: uni6273
Encoding: 25203 25203 31
Width: 1000
VWidth: 0
Flags: H
LayerCount: 2
Fore
SplineSet
187.5 675 m 1
 187.5 800 l 1
 218.75 800 l 1
 250 800 l 1
 250 675 l 1
 250 550 l 1
 312.5 550 l 1
 375 550 l 1
 375 518.75 l 1
 375 487.5 l 1
 312.5 487.5 l 1
 250 487.5 l 1
 250 393.75 l 1
 250 300 l 1
 281.25 300 l 1
 312.5 300 l 1
 312.5 331.25 l 1
 312.5 362.5 l 1
 343.75 362.5 l 1
 375 362.5 l 1
 375 331.25 l 1
 375 300 l 1
 343.75 300 l 1
 312.5 300 l 1
 312.5 268.75 l 1
 312.5 237.5 l 1
 281.25 237.5 l 1
 250 237.5 l 1
 250 81.25 l 1
 250 -75 l 1
 281.25 -75 l 1
 312.5 -75 l 1
 312.5 -43.75 l 1
 312.5 -12.5 l 1
 343.75 -12.5 l 1
 375 -12.5 l 1
 375 50 l 1
 375 112.5 l 1
 406.25 112.5 l 1
 437.5 112.5 l 1
 437.5 393.75 l 1
 437.5 675 l 1
 562.5 675 l 1
 687.5 675 l 1
 687.5 706.25 l 1
 687.5 737.5 l 1
 718.75 737.5 l 1
 750 737.5 l 1
 750 768.75 l 1
 750 800 l 1
 781.25 800 l 1
 812.5 800 l 1
 812.5 768.75 l 1
 812.5 737.5 l 1
 843.75 737.5 l 1
 875 737.5 l 1
 875 706.25 l 1
 875 675 l 1
 781.25 675 l 1
 687.5 675 l 1
 687.5 643.75 l 1
 687.5 612.5 l 1
 593.75 612.5 l 1
 500 612.5 l 1
 500 550 l 1
 500 487.5 l 1
 687.5 487.5 l 1
 875 487.5 l 1
 875 425 l 1
 875 362.5 l 1
 843.75 362.5 l 1
 812.5 362.5 l 1
 812.5 300 l 1
 812.5 237.5 l 1
 781.25 237.5 l 1
 750 237.5 l 1
 750 175 l 1
 750 112.5 l 1
 718.75 112.5 l 1
 687.5 112.5 l 1
 687.5 81.25 l 1
 687.5 50 l 1
 718.75 50 l 1
 750 50 l 1
 750 18.75 l 1
 750 -12.5 l 1
 843.75 -12.5 l 1
 937.5 -12.5 l 1
 937.5 -43.75 l 1
 937.5 -75 l 1
 906.25 -75 l 1
 875 -75 l 1
 875 -106.25 l 1
 875 -137.5 l 1
 843.75 -137.5 l 1
 812.5 -137.5 l 1
 812.5 -106.25 l 1
 812.5 -75 l 1
 781.25 -75 l 1
 750 -75 l 1
 750 -43.75 l 1
 750 -12.5 l 1
 718.75 -12.5 l 1
 687.5 -12.5 l 1
 687.5 18.75 l 1
 687.5 50 l 1
 656.25 50 l 1
 625 50 l 1
 625 18.75 l 1
 625 -12.5 l 1
 593.75 -12.5 l 1
 562.5 -12.5 l 1
 562.5 -43.75 l 1
 562.5 -75 l 1
 531.25 -75 l 1
 500 -75 l 1
 500 -106.25 l 1
 500 -137.5 l 1
 468.75 -137.5 l 1
 437.5 -137.5 l 1
 437.5 -106.25 l 1
 437.5 -75 l 1
 468.75 -75 l 1
 500 -75 l 1
 500 -43.75 l 1
 500 -12.5 l 1
 531.25 -12.5 l 1
 562.5 -12.5 l 1
 562.5 18.75 l 1
 562.5 50 l 1
 593.75 50 l 1
 625 50 l 1
 625 112.5 l 1
 625 175 l 1
 593.75 175 l 1
 562.5 175 l 1
 562.5 268.75 l 1
 562.5 362.5 l 1
 593.75 362.5 l 1
 625 362.5 l 1
 625 268.75 l 1
 625 175 l 1
 656.25 175 l 1
 687.5 175 l 1
 687.5 206.25 l 1
 687.5 237.5 l 1
 718.75 237.5 l 1
 750 237.5 l 1
 750 300 l 1
 750 362.5 l 1
 781.25 362.5 l 1
 812.5 362.5 l 1
 812.5 393.75 l 1
 812.5 425 l 1
 656.25 425 l 1
 500 425 l 1
 500 268.75 l 1
 500 112.5 l 1
 468.75 112.5 l 1
 437.5 112.5 l 1
 437.5 50 l 1
 437.5 -12.5 l 1
 406.25 -12.5 l 1
 375 -12.5 l 1
 375 -43.75 l 1
 375 -75 l 1
 343.75 -75 l 1
 312.5 -75 l 1
 312.5 -106.25 l 1
 312.5 -137.5 l 1
 250 -137.5 l 1
 187.5 -137.5 l 1
 187.5 -168.75 l 1
 187.5 -200 l 1
 156.25 -200 l 1
 125 -200 l 1
 125 -168.75 l 1
 125 -137.5 l 1
 93.75 -137.5 l 1
 62.5 -137.5 l 1
 62.5 -106.25 l 1
 62.5 -75 l 1
 93.75 -75 l 1
 125 -75 l 1
 125 -106.25 l 1
 125 -137.5 l 1
 156.25 -137.5 l 1
 187.5 -137.5 l 1
 187.5 18.75 l 1
 187.5 175 l 1
 156.25 175 l 1
 125 175 l 1
 125 143.75 l 1
 125 112.5 l 1
 62.5 112.5 l 1
 0 112.5 l 1
 0 143.75 l 1
 0 175 l 1
 62.5 175 l 1
 125 175 l 1
 125 206.25 l 1
 125 237.5 l 1
 156.25 237.5 l 1
 187.5 237.5 l 1
 187.5 362.5 l 1
 187.5 487.5 l 1
 93.75 487.5 l 1
 0 487.5 l 1
 0 518.75 l 1
 0 550 l 1
 93.75 550 l 1
 187.5 550 l 1
 187.5 675 l 1
EndSplineSet
EndChar

StartChar: uni822C
Encoding: 33324 33324 32
Width: 1000
VWidth: 0
Flags: H
LayerCount: 2
Fore
SplineSet
250 768.75 m 1
 250 800 l 1
 281.25 800 l 1
 312.5 800 l 1
 312.5 768.75 l 1
 312.5 737.5 l 1
 281.25 737.5 l 1
 250 737.5 l 1
 250 706.25 l 1
 250 675 l 1
 312.5 675 l 1
 375 675 l 1
 375 706.25 l 1
 375 737.5 l 1
 406.25 737.5 l 1
 437.5 737.5 l 1
 437.5 706.25 l 1
 437.5 675 l 1
 468.75 675 l 1
 500 675 l 1
 500 643.75 l 1
 500 612.5 l 1
 468.75 612.5 l 1
 437.5 612.5 l 1
 437.5 237.5 l 1
 437.5 -137.5 l 1
 468.75 -137.5 l 1
 500 -137.5 l 1
 500 -106.25 l 1
 500 -75 l 1
 531.25 -75 l 1
 562.5 -75 l 1
 562.5 -43.75 l 1
 562.5 -12.5 l 1
 593.75 -12.5 l 1
 625 -12.5 l 1
 625 18.75 l 1
 625 50 l 1
 656.25 50 l 1
 687.5 50 l 1
 687.5 81.25 l 1
 687.5 112.5 l 1
 656.25 112.5 l 1
 625 112.5 l 1
 625 143.75 l 1
 625 175 l 1
 593.75 175 l 1
 562.5 175 l 1
 562.5 237.5 l 1
 562.5 300 l 1
 531.25 300 l 1
 500 300 l 1
 500 331.25 l 1
 500 362.5 l 1
 687.5 362.5 l 1
 875 362.5 l 1
 875 300 l 1
 875 237.5 l 1
 843.75 237.5 l 1
 812.5 237.5 l 1
 812.5 175 l 1
 812.5 112.5 l 1
 781.25 112.5 l 1
 750 112.5 l 1
 750 50 l 1
 750 -12.5 l 1
 781.25 -12.5 l 1
 812.5 -12.5 l 1
 812.5 -43.75 l 1
 812.5 -75 l 1
 875 -75 l 1
 937.5 -75 l 1
 937.5 -106.25 l 1
 937.5 -137.5 l 1
 906.25 -137.5 l 1
 875 -137.5 l 1
 875 -168.75 l 1
 875 -200 l 1
 843.75 -200 l 1
 812.5 -200 l 1
 812.5 -168.75 l 1
 812.5 -137.5 l 1
 781.25 -137.5 l 1
 750 -137.5 l 1
 750 -75 l 1
 750 -12.5 l 1
 687.5 -12.5 l 1
 625 -12.5 l 1
 625 -43.75 l 1
 625 -75 l 1
 593.75 -75 l 1
 562.5 -75 l 1
 562.5 -106.25 l 1
 562.5 -137.5 l 1
 531.25 -137.5 l 1
 500 -137.5 l 1
 500 -168.75 l 1
 500 -200 l 1
 468.75 -200 l 1
 437.5 -200 l 1
 437.5 -168.75 l 1
 437.5 -137.5 l 1
 406.25 -137.5 l 1
 375 -137.5 l 1
 375 -168.75 l 1
 375 -200 l 1
 343.75 -200 l 1
 312.5 -200 l 1
 312.5 -168.75 l 1
 312.5 -137.5 l 1
 281.25 -137.5 l 1
 250 -137.5 l 1
 250 -106.25 l 1
 250 -75 l 1
 281.25 -75 l 1
 312.5 -75 l 1
 312.5 -106.25 l 1
 312.5 -137.5 l 1
 343.75 -137.5 l 1
 375 -137.5 l 1
 375 81.25 l 1
 375 300 l 1
 281.25 300 l 1
 187.5 300 l 1
 187.5 268.75 l 1
 187.5 237.5 l 1
 218.75 237.5 l 1
 250 237.5 l 1
 250 206.25 l 1
 250 175 l 1
 281.25 175 l 1
 312.5 175 l 1
 312.5 143.75 l 1
 312.5 112.5 l 1
 281.25 112.5 l 1
 250 112.5 l 1
 250 143.75 l 1
 250 175 l 1
 218.75 175 l 1
 187.5 175 l 1
 187.5 50 l 1
 187.5 -75 l 1
 156.25 -75 l 1
 125 -75 l 1
 125 -106.25 l 1
 125 -137.5 l 1
 93.75 -137.5 l 1
 62.5 -137.5 l 1
 62.5 -168.75 l 1
 62.5 -200 l 1
 31.25 -200 l 1
 0 -200 l 1
 0 -168.75 l 1
 0 -137.5 l 1
 31.25 -137.5 l 1
 62.5 -137.5 l 1
 62.5 -106.25 l 1
 62.5 -75 l 1
 93.75 -75 l 1
 125 -75 l 1
 125 112.5 l 1
 125 300 l 1
 62.5 300 l 1
 0 300 l 1
 0 331.25 l 1
 0 362.5 l 1
 62.5 362.5 l 1
 125 362.5 l 1
 125 518.75 l 1
 125 675 l 1
 156.25 675 l 1
 187.5 675 l 1
 187.5 706.25 l 1
 187.5 737.5 l 1
 218.75 737.5 l 1
 250 737.5 l 1
 250 768.75 l 1
375 487.5 m 1
 375 612.5 l 1
 281.25 612.5 l 1
 187.5 612.5 l 1
 187.5 581.25 l 1
 187.5 550 l 1
 218.75 550 l 1
 250 550 l 1
 250 518.75 l 1
 250 487.5 l 1
 218.75 487.5 l 1
 187.5 487.5 l 1
 187.5 425 l 1
 187.5 362.5 l 1
 281.25 362.5 l 1
 375 362.5 l 1
 375 487.5 l 1
812.5 268.75 m 1
 812.5 300 l 1
 718.75 300 l 1
 625 300 l 1
 625 237.5 l 1
 625 175 l 1
 656.25 175 l 1
 687.5 175 l 1
 687.5 143.75 l 1
 687.5 112.5 l 1
 718.75 112.5 l 1
 750 112.5 l 1
 750 175 l 1
 750 237.5 l 1
 781.25 237.5 l 1
 812.5 237.5 l 1
 812.5 268.75 l 1
250 456.25 m 1
 250 487.5 l 1
 281.25 487.5 l 1
 312.5 487.5 l 1
 312.5 456.25 l 1
 312.5 425 l 1
 281.25 425 l 1
 250 425 l 1
 250 456.25 l 1
750 768.75 m 1
 750 800 l 1
 781.25 800 l 1
 812.5 800 l 1
 812.5 768.75 l 1
 812.5 737.5 l 1
 843.75 737.5 l 1
 875 737.5 l 1
 875 706.25 l 1
 875 675 l 1
 843.75 675 l 1
 812.5 675 l 1
 812.5 581.25 l 1
 812.5 487.5 l 1
 875 487.5 l 1
 937.5 487.5 l 1
 937.5 456.25 l 1
 937.5 425 l 1
 875 425 l 1
 812.5 425 l 1
 812.5 456.25 l 1
 812.5 487.5 l 1
 781.25 487.5 l 1
 750 487.5 l 1
 750 581.25 l 1
 750 675 l 1
 687.5 675 l 1
 625 675 l 1
 625 581.25 l 1
 625 487.5 l 1
 593.75 487.5 l 1
 562.5 487.5 l 1
 562.5 456.25 l 1
 562.5 425 l 1
 531.25 425 l 1
 500 425 l 1
 500 456.25 l 1
 500 487.5 l 1
 531.25 487.5 l 1
 562.5 487.5 l 1
 562.5 612.5 l 1
 562.5 737.5 l 1
 656.25 737.5 l 1
 750 737.5 l 1
 750 768.75 l 1
EndSplineSet
EndChar

StartChar: uni9881
Encoding: 39041 39041 33
Width: 1000
VWidth: 0
Flags: H
LayerCount: 2
Fore
SplineSet
812.5 768.75 m 1
 812.5 800 l 1
 843.75 800 l 1
 875 800 l 1
 875 768.75 l 1
 875 737.5 l 1
 906.25 737.5 l 1
 937.5 737.5 l 1
 937.5 706.25 l 1
 937.5 675 l 1
 812.5 675 l 1
 687.5 675 l 1
 687.5 643.75 l 1
 687.5 612.5 l 1
 656.25 612.5 l 1
 625 612.5 l 1
 625 581.25 l 1
 625 550 l 1
 718.75 550 l 1
 812.5 550 l 1
 812.5 581.25 l 1
 812.5 612.5 l 1
 843.75 612.5 l 1
 875 612.5 l 1
 875 581.25 l 1
 875 550 l 1
 906.25 550 l 1
 937.5 550 l 1
 937.5 518.75 l 1
 937.5 487.5 l 1
 906.25 487.5 l 1
 875 487.5 l 1
 875 268.75 l 1
 875 50 l 1
 843.75 50 l 1
 812.5 50 l 1
 812.5 268.75 l 1
 812.5 487.5 l 1
 656.25 487.5 l 1
 500 487.5 l 1
 500 268.75 l 1
 500 50 l 1
 468.75 50 l 1
 437.5 50 l 1
 437.5 175 l 1
 437.5 300 l 1
 406.25 300 l 1
 375 300 l 1
 375 81.25 l 1
 375 -137.5 l 1
 437.5 -137.5 l 1
 500 -137.5 l 1
 500 -106.25 l 1
 500 -75 l 1
 531.25 -75 l 1
 562.5 -75 l 1
 562.5 -12.5 l 1
 562.5 50 l 1
 593.75 50 l 1
 625 50 l 1
 625 237.5 l 1
 625 425 l 1
 656.25 425 l 1
 687.5 425 l 1
 687.5 237.5 l 1
 687.5 50 l 1
 718.75 50 l 1
 750 50 l 1
 750 18.75 l 1
 750 -12.5 l 1
 781.25 -12.5 l 1
 812.5 -12.5 l 1
 812.5 -43.75 l 1
 812.5 -75 l 1
 875 -75 l 1
 937.5 -75 l 1
 937.5 -137.5 l 1
 937.5 -200 l 1
 906.25 -200 l 1
 875 -200 l 1
 875 -168.75 l 1
 875 -137.5 l 1
 843.75 -137.5 l 1
 812.5 -137.5 l 1
 812.5 -106.25 l 1
 812.5 -75 l 1
 781.25 -75 l 1
 750 -75 l 1
 750 -43.75 l 1
 750 -12.5 l 1
 718.75 -12.5 l 1
 687.5 -12.5 l 1
 687.5 18.75 l 1
 687.5 50 l 1
 656.25 50 l 1
 625 50 l 1
 625 -12.5 l 1
 625 -75 l 1
 593.75 -75 l 1
 562.5 -75 l 1
 562.5 -106.25 l 1
 562.5 -137.5 l 1
 531.25 -137.5 l 1
 500 -137.5 l 1
 500 -168.75 l 1
 500 -200 l 1
 437.5 -200 l 1
 375 -200 l 1
 375 -168.75 l 1
 375 -137.5 l 1
 312.5 -137.5 l 1
 250 -137.5 l 1
 250 -106.25 l 1
 250 -75 l 1
 281.25 -75 l 1
 312.5 -75 l 1
 312.5 112.5 l 1
 312.5 300 l 1
 250 300 l 1
 187.5 300 l 1
 187.5 112.5 l 1
 187.5 -75 l 1
 156.25 -75 l 1
 125 -75 l 1
 125 -106.25 l 1
 125 -137.5 l 1
 93.75 -137.5 l 1
 62.5 -137.5 l 1
 62.5 -168.75 l 1
 62.5 -200 l 1
 31.25 -200 l 1
 0 -200 l 1
 0 -168.75 l 1
 0 -137.5 l 1
 31.25 -137.5 l 1
 62.5 -137.5 l 1
 62.5 -106.25 l 1
 62.5 -75 l 1
 93.75 -75 l 1
 125 -75 l 1
 125 112.5 l 1
 125 300 l 1
 93.75 300 l 1
 62.5 300 l 1
 62.5 331.25 l 1
 62.5 362.5 l 1
 31.25 362.5 l 1
 0 362.5 l 1
 0 393.75 l 1
 0 425 l 1
 31.25 425 l 1
 62.5 425 l 1
 62.5 487.5 l 1
 62.5 550 l 1
 93.75 550 l 1
 125 550 l 1
 125 643.75 l 1
 125 737.5 l 1
 156.25 737.5 l 1
 187.5 737.5 l 1
 187.5 643.75 l 1
 187.5 550 l 1
 156.25 550 l 1
 125 550 l 1
 125 487.5 l 1
 125 425 l 1
 93.75 425 l 1
 62.5 425 l 1
 62.5 393.75 l 1
 62.5 362.5 l 1
 187.5 362.5 l 1
 312.5 362.5 l 1
 312.5 393.75 l 1
 312.5 425 l 1
 343.75 425 l 1
 375 425 l 1
 375 456.25 l 1
 375 487.5 l 1
 343.75 487.5 l 1
 312.5 487.5 l 1
 312.5 550 l 1
 312.5 612.5 l 1
 281.25 612.5 l 1
 250 612.5 l 1
 250 675 l 1
 250 737.5 l 1
 281.25 737.5 l 1
 312.5 737.5 l 1
 312.5 675 l 1
 312.5 612.5 l 1
 343.75 612.5 l 1
 375 612.5 l 1
 375 550 l 1
 375 487.5 l 1
 406.25 487.5 l 1
 437.5 487.5 l 1
 437.5 518.75 l 1
 437.5 550 l 1
 500 550 l 1
 562.5 550 l 1
 562.5 581.25 l 1
 562.5 612.5 l 1
 593.75 612.5 l 1
 625 612.5 l 1
 625 643.75 l 1
 625 675 l 1
 500 675 l 1
 375 675 l 1
 375 706.25 l 1
 375 737.5 l 1
 593.75 737.5 l 1
 812.5 737.5 l 1
 812.5 768.75 l 1
437.5 393.75 m 1
 437.5 425 l 1
 406.25 425 l 1
 375 425 l 1
 375 393.75 l 1
 375 362.5 l 1
 406.25 362.5 l 1
 437.5 362.5 l 1
 437.5 393.75 l 1
EndSplineSet
EndChar

StartChar: uni677F
Encoding: 26495 26495 34
Width: 1000
VWidth: 0
Flags: H
LayerCount: 2
Fore
SplineSet
187.5 675 m 1
 187.5 800 l 1
 218.75 800 l 1
 250 800 l 1
 250 675 l 1
 250 550 l 1
 312.5 550 l 1
 375 550 l 1
 375 518.75 l 1
 375 487.5 l 1
 312.5 487.5 l 1
 250 487.5 l 1
 250 425 l 1
 250 362.5 l 1
 281.25 362.5 l 1
 312.5 362.5 l 1
 312.5 331.25 l 1
 312.5 300 l 1
 343.75 300 l 1
 375 300 l 1
 375 268.75 l 1
 375 237.5 l 1
 343.75 237.5 l 1
 312.5 237.5 l 1
 312.5 268.75 l 1
 312.5 300 l 1
 281.25 300 l 1
 250 300 l 1
 250 112.5 l 1
 250 -75 l 1
 281.25 -75 l 1
 312.5 -75 l 1
 312.5 -43.75 l 1
 312.5 -12.5 l 1
 343.75 -12.5 l 1
 375 -12.5 l 1
 375 50 l 1
 375 112.5 l 1
 406.25 112.5 l 1
 437.5 112.5 l 1
 437.5 393.75 l 1
 437.5 675 l 1
 562.5 675 l 1
 687.5 675 l 1
 687.5 706.25 l 1
 687.5 737.5 l 1
 718.75 737.5 l 1
 750 737.5 l 1
 750 768.75 l 1
 750 800 l 1
 781.25 800 l 1
 812.5 800 l 1
 812.5 768.75 l 1
 812.5 737.5 l 1
 843.75 737.5 l 1
 875 737.5 l 1
 875 706.25 l 1
 875 675 l 1
 781.25 675 l 1
 687.5 675 l 1
 687.5 643.75 l 1
 687.5 612.5 l 1
 593.75 612.5 l 1
 500 612.5 l 1
 500 550 l 1
 500 487.5 l 1
 687.5 487.5 l 1
 875 487.5 l 1
 875 425 l 1
 875 362.5 l 1
 843.75 362.5 l 1
 812.5 362.5 l 1
 812.5 300 l 1
 812.5 237.5 l 1
 781.25 237.5 l 1
 750 237.5 l 1
 750 175 l 1
 750 112.5 l 1
 718.75 112.5 l 1
 687.5 112.5 l 1
 687.5 81.25 l 1
 687.5 50 l 1
 718.75 50 l 1
 750 50 l 1
 750 18.75 l 1
 750 -12.5 l 1
 843.75 -12.5 l 1
 937.5 -12.5 l 1
 937.5 -43.75 l 1
 937.5 -75 l 1
 906.25 -75 l 1
 875 -75 l 1
 875 -106.25 l 1
 875 -137.5 l 1
 843.75 -137.5 l 1
 812.5 -137.5 l 1
 812.5 -106.25 l 1
 812.5 -75 l 1
 781.25 -75 l 1
 750 -75 l 1
 750 -43.75 l 1
 750 -12.5 l 1
 718.75 -12.5 l 1
 687.5 -12.5 l 1
 687.5 18.75 l 1
 687.5 50 l 1
 656.25 50 l 1
 625 50 l 1
 625 18.75 l 1
 625 -12.5 l 1
 593.75 -12.5 l 1
 562.5 -12.5 l 1
 562.5 -43.75 l 1
 562.5 -75 l 1
 531.25 -75 l 1
 500 -75 l 1
 500 -106.25 l 1
 500 -137.5 l 1
 468.75 -137.5 l 1
 437.5 -137.5 l 1
 437.5 -106.25 l 1
 437.5 -75 l 1
 468.75 -75 l 1
 500 -75 l 1
 500 -43.75 l 1
 500 -12.5 l 1
 531.25 -12.5 l 1
 562.5 -12.5 l 1
 562.5 18.75 l 1
 562.5 50 l 1
 593.75 50 l 1
 625 50 l 1
 625 112.5 l 1
 625 175 l 1
 593.75 175 l 1
 562.5 175 l 1
 562.5 268.75 l 1
 562.5 362.5 l 1
 593.75 362.5 l 1
 625 362.5 l 1
 625 268.75 l 1
 625 175 l 1
 656.25 175 l 1
 687.5 175 l 1
 687.5 206.25 l 1
 687.5 237.5 l 1
 718.75 237.5 l 1
 750 237.5 l 1
 750 300 l 1
 750 362.5 l 1
 781.25 362.5 l 1
 812.5 362.5 l 1
 812.5 393.75 l 1
 812.5 425 l 1
 656.25 425 l 1
 500 425 l 1
 500 268.75 l 1
 500 112.5 l 1
 468.75 112.5 l 1
 437.5 112.5 l 1
 437.5 50 l 1
 437.5 -12.5 l 1
 406.25 -12.5 l 1
 375 -12.5 l 1
 375 -43.75 l 1
 375 -75 l 1
 343.75 -75 l 1
 312.5 -75 l 1
 312.5 -106.25 l 1
 312.5 -137.5 l 1
 281.25 -137.5 l 1
 250 -137.5 l 1
 250 -168.75 l 1
 250 -200 l 1
 218.75 -200 l 1
 187.5 -200 l 1
 187.5 50 l 1
 187.5 300 l 1
 156.25 300 l 1
 125 300 l 1
 125 237.5 l 1
 125 175 l 1
 93.75 175 l 1
 62.5 175 l 1
 62.5 143.75 l 1
 62.5 112.5 l 1
 31.25 112.5 l 1
 0 112.5 l 1
 0 143.75 l 1
 0 175 l 1
 31.25 175 l 1
 62.5 175 l 1
 62.5 237.5 l 1
 62.5 300 l 1
 93.75 300 l 1
 125 300 l 1
 125 362.5 l 1
 125 425 l 1
 156.25 425 l 1
 187.5 425 l 1
 187.5 456.25 l 1
 187.5 487.5 l 1
 93.75 487.5 l 1
 0 487.5 l 1
 0 518.75 l 1
 0 550 l 1
 93.75 550 l 1
 187.5 550 l 1
 187.5 675 l 1
EndSplineSet
EndChar

StartChar: uni7248
Encoding: 29256 29256 35
Width: 1000
VWidth: 0
Flags: H
LayerCount: 2
Fore
SplineSet
250 643.75 m 1
 250 800 l 1
 281.25 800 l 1
 312.5 800 l 1
 312.5 643.75 l 1
 312.5 487.5 l 1
 343.75 487.5 l 1
 375 487.5 l 1
 375 456.25 l 1
 375 425 l 1
 250 425 l 1
 125 425 l 1
 125 362.5 l 1
 125 300 l 1
 218.75 300 l 1
 312.5 300 l 1
 312.5 143.75 l 1
 312.5 -12.5 l 1
 343.75 -12.5 l 1
 375 -12.5 l 1
 375 50 l 1
 375 112.5 l 1
 406.25 112.5 l 1
 437.5 112.5 l 1
 437.5 393.75 l 1
 437.5 675 l 1
 562.5 675 l 1
 687.5 675 l 1
 687.5 706.25 l 1
 687.5 737.5 l 1
 718.75 737.5 l 1
 750 737.5 l 1
 750 768.75 l 1
 750 800 l 1
 781.25 800 l 1
 812.5 800 l 1
 812.5 768.75 l 1
 812.5 737.5 l 1
 843.75 737.5 l 1
 875 737.5 l 1
 875 706.25 l 1
 875 675 l 1
 781.25 675 l 1
 687.5 675 l 1
 687.5 643.75 l 1
 687.5 612.5 l 1
 593.75 612.5 l 1
 500 612.5 l 1
 500 550 l 1
 500 487.5 l 1
 687.5 487.5 l 1
 875 487.5 l 1
 875 425 l 1
 875 362.5 l 1
 843.75 362.5 l 1
 812.5 362.5 l 1
 812.5 300 l 1
 812.5 237.5 l 1
 781.25 237.5 l 1
 750 237.5 l 1
 750 175 l 1
 750 112.5 l 1
 718.75 112.5 l 1
 687.5 112.5 l 1
 687.5 81.25 l 1
 687.5 50 l 1
 718.75 50 l 1
 750 50 l 1
 750 18.75 l 1
 750 -12.5 l 1
 843.75 -12.5 l 1
 937.5 -12.5 l 1
 937.5 -43.75 l 1
 937.5 -75 l 1
 906.25 -75 l 1
 875 -75 l 1
 875 -106.25 l 1
 875 -137.5 l 1
 843.75 -137.5 l 1
 812.5 -137.5 l 1
 812.5 -106.25 l 1
 812.5 -75 l 1
 781.25 -75 l 1
 750 -75 l 1
 750 -43.75 l 1
 750 -12.5 l 1
 718.75 -12.5 l 1
 687.5 -12.5 l 1
 687.5 18.75 l 1
 687.5 50 l 1
 656.25 50 l 1
 625 50 l 1
 625 18.75 l 1
 625 -12.5 l 1
 593.75 -12.5 l 1
 562.5 -12.5 l 1
 562.5 -43.75 l 1
 562.5 -75 l 1
 531.25 -75 l 1
 500 -75 l 1
 500 -106.25 l 1
 500 -137.5 l 1
 468.75 -137.5 l 1
 437.5 -137.5 l 1
 437.5 -106.25 l 1
 437.5 -75 l 1
 468.75 -75 l 1
 500 -75 l 1
 500 -43.75 l 1
 500 -12.5 l 1
 531.25 -12.5 l 1
 562.5 -12.5 l 1
 562.5 18.75 l 1
 562.5 50 l 1
 593.75 50 l 1
 625 50 l 1
 625 112.5 l 1
 625 175 l 1
 593.75 175 l 1
 562.5 175 l 1
 562.5 268.75 l 1
 562.5 362.5 l 1
 593.75 362.5 l 1
 625 362.5 l 1
 625 268.75 l 1
 625 175 l 1
 656.25 175 l 1
 687.5 175 l 1
 687.5 206.25 l 1
 687.5 237.5 l 1
 718.75 237.5 l 1
 750 237.5 l 1
 750 300 l 1
 750 362.5 l 1
 781.25 362.5 l 1
 812.5 362.5 l 1
 812.5 393.75 l 1
 812.5 425 l 1
 656.25 425 l 1
 500 425 l 1
 500 268.75 l 1
 500 112.5 l 1
 468.75 112.5 l 1
 437.5 112.5 l 1
 437.5 50 l 1
 437.5 -12.5 l 1
 406.25 -12.5 l 1
 375 -12.5 l 1
 375 -43.75 l 1
 375 -75 l 1
 343.75 -75 l 1
 312.5 -75 l 1
 312.5 -137.5 l 1
 312.5 -200 l 1
 281.25 -200 l 1
 250 -200 l 1
 250 18.75 l 1
 250 237.5 l 1
 187.5 237.5 l 1
 125 237.5 l 1
 125 81.25 l 1
 125 -75 l 1
 93.75 -75 l 1
 62.5 -75 l 1
 62.5 -106.25 l 1
 62.5 -137.5 l 1
 31.25 -137.5 l 1
 0 -137.5 l 1
 0 -106.25 l 1
 0 -75 l 1
 31.25 -75 l 1
 62.5 -75 l 1
 62.5 331.25 l 1
 62.5 737.5 l 1
 93.75 737.5 l 1
 125 737.5 l 1
 125 612.5 l 1
 125 487.5 l 1
 187.5 487.5 l 1
 250 487.5 l 1
 250 643.75 l 1
EndSplineSet
EndChar

StartChar: uni626E
Encoding: 25198 25198 36
Width: 1000
VWidth: 0
Flags: H
LayerCount: 2
Fore
SplineSet
187.5 675 m 1
 187.5 800 l 1
 218.75 800 l 1
 250 800 l 1
 250 675 l 1
 250 550 l 1
 312.5 550 l 1
 375 550 l 1
 375 518.75 l 1
 375 487.5 l 1
 312.5 487.5 l 1
 250 487.5 l 1
 250 425 l 1
 250 362.5 l 1
 312.5 362.5 l 1
 375 362.5 l 1
 375 393.75 l 1
 375 425 l 1
 406.25 425 l 1
 437.5 425 l 1
 437.5 487.5 l 1
 437.5 550 l 1
 468.75 550 l 1
 500 550 l 1
 500 643.75 l 1
 500 737.5 l 1
 531.25 737.5 l 1
 562.5 737.5 l 1
 562.5 643.75 l 1
 562.5 550 l 1
 531.25 550 l 1
 500 550 l 1
 500 487.5 l 1
 500 425 l 1
 468.75 425 l 1
 437.5 425 l 1
 437.5 393.75 l 1
 437.5 362.5 l 1
 406.25 362.5 l 1
 375 362.5 l 1
 375 331.25 l 1
 375 300 l 1
 562.5 300 l 1
 750 300 l 1
 750 331.25 l 1
 750 362.5 l 1
 781.25 362.5 l 1
 812.5 362.5 l 1
 812.5 393.75 l 1
 812.5 425 l 1
 781.25 425 l 1
 750 425 l 1
 750 456.25 l 1
 750 487.5 l 1
 718.75 487.5 l 1
 687.5 487.5 l 1
 687.5 550 l 1
 687.5 612.5 l 1
 656.25 612.5 l 1
 625 612.5 l 1
 625 706.25 l 1
 625 800 l 1
 656.25 800 l 1
 687.5 800 l 1
 687.5 706.25 l 1
 687.5 612.5 l 1
 718.75 612.5 l 1
 750 612.5 l 1
 750 550 l 1
 750 487.5 l 1
 843.75 487.5 l 1
 937.5 487.5 l 1
 937.5 456.25 l 1
 937.5 425 l 1
 906.25 425 l 1
 875 425 l 1
 875 393.75 l 1
 875 362.5 l 1
 843.75 362.5 l 1
 812.5 362.5 l 1
 812.5 331.25 l 1
 812.5 300 l 1
 843.75 300 l 1
 875 300 l 1
 875 268.75 l 1
 875 237.5 l 1
 843.75 237.5 l 1
 812.5 237.5 l 1
 812.5 50 l 1
 812.5 -137.5 l 1
 781.25 -137.5 l 1
 750 -137.5 l 1
 750 -168.75 l 1
 750 -200 l 1
 718.75 -200 l 1
 687.5 -200 l 1
 687.5 -168.75 l 1
 687.5 -137.5 l 1
 656.25 -137.5 l 1
 625 -137.5 l 1
 625 -106.25 l 1
 625 -75 l 1
 656.25 -75 l 1
 687.5 -75 l 1
 687.5 -106.25 l 1
 687.5 -137.5 l 1
 718.75 -137.5 l 1
 750 -137.5 l 1
 750 50 l 1
 750 237.5 l 1
 656.25 237.5 l 1
 562.5 237.5 l 1
 562.5 143.75 l 1
 562.5 50 l 1
 531.25 50 l 1
 500 50 l 1
 500 -12.5 l 1
 500 -75 l 1
 468.75 -75 l 1
 437.5 -75 l 1
 437.5 -106.25 l 1
 437.5 -137.5 l 1
 406.25 -137.5 l 1
 375 -137.5 l 1
 375 -168.75 l 1
 375 -200 l 1
 343.75 -200 l 1
 312.5 -200 l 1
 312.5 -168.75 l 1
 312.5 -137.5 l 1
 343.75 -137.5 l 1
 375 -137.5 l 1
 375 -106.25 l 1
 375 -75 l 1
 406.25 -75 l 1
 437.5 -75 l 1
 437.5 -12.5 l 1
 437.5 50 l 1
 468.75 50 l 1
 500 50 l 1
 500 143.75 l 1
 500 237.5 l 1
 437.5 237.5 l 1
 375 237.5 l 1
 375 268.75 l 1
 375 300 l 1
 312.5 300 l 1
 250 300 l 1
 250 81.25 l 1
 250 -137.5 l 1
 218.75 -137.5 l 1
 187.5 -137.5 l 1
 187.5 -168.75 l 1
 187.5 -200 l 1
 156.25 -200 l 1
 125 -200 l 1
 125 -168.75 l 1
 125 -137.5 l 1
 93.75 -137.5 l 1
 62.5 -137.5 l 1
 62.5 -106.25 l 1
 62.5 -75 l 1
 93.75 -75 l 1
 125 -75 l 1
 125 -106.25 l 1
 125 -137.5 l 1
 156.25 -137.5 l 1
 187.5 -137.5 l 1
 187.5 50 l 1
 187.5 237.5 l 1
 156.25 237.5 l 1
 125 237.5 l 1
 125 206.25 l 1
 125 175 l 1
 62.5 175 l 1
 0 175 l 1
 0 206.25 l 1
 0 237.5 l 1
 62.5 237.5 l 1
 125 237.5 l 1
 125 268.75 l 1
 125 300 l 1
 156.25 300 l 1
 187.5 300 l 1
 187.5 393.75 l 1
 187.5 487.5 l 1
 93.75 487.5 l 1
 0 487.5 l 1
 0 518.75 l 1
 0 550 l 1
 93.75 550 l 1
 187.5 550 l 1
 187.5 675 l 1
EndSplineSet
EndChar

StartChar: uni62CC
Encoding: 25292 25292 37
Width: 1000
VWidth: 0
Flags: H
LayerCount: 2
Fore
SplineSet
187.5 675 m 1
 187.5 800 l 1
 218.75 800 l 1
 250 800 l 1
 250 675 l 1
 250 550 l 1
 312.5 550 l 1
 375 550 l 1
 375 518.75 l 1
 375 487.5 l 1
 468.75 487.5 l 1
 562.5 487.5 l 1
 562.5 643.75 l 1
 562.5 800 l 1
 593.75 800 l 1
 625 800 l 1
 625 643.75 l 1
 625 487.5 l 1
 750 487.5 l 1
 875 487.5 l 1
 875 456.25 l 1
 875 425 l 1
 750 425 l 1
 625 425 l 1
 625 331.25 l 1
 625 237.5 l 1
 718.75 237.5 l 1
 812.5 237.5 l 1
 812.5 268.75 l 1
 812.5 300 l 1
 843.75 300 l 1
 875 300 l 1
 875 268.75 l 1
 875 237.5 l 1
 906.25 237.5 l 1
 937.5 237.5 l 1
 937.5 206.25 l 1
 937.5 175 l 1
 781.25 175 l 1
 625 175 l 1
 625 -12.5 l 1
 625 -200 l 1
 593.75 -200 l 1
 562.5 -200 l 1
 562.5 -12.5 l 1
 562.5 175 l 1
 437.5 175 l 1
 312.5 175 l 1
 312.5 206.25 l 1
 312.5 237.5 l 1
 437.5 237.5 l 1
 562.5 237.5 l 1
 562.5 331.25 l 1
 562.5 425 l 1
 468.75 425 l 1
 375 425 l 1
 375 393.75 l 1
 375 362.5 l 1
 343.75 362.5 l 1
 312.5 362.5 l 1
 312.5 331.25 l 1
 312.5 300 l 1
 281.25 300 l 1
 250 300 l 1
 250 81.25 l 1
 250 -137.5 l 1
 218.75 -137.5 l 1
 187.5 -137.5 l 1
 187.5 -168.75 l 1
 187.5 -200 l 1
 156.25 -200 l 1
 125 -200 l 1
 125 -168.75 l 1
 125 -137.5 l 1
 93.75 -137.5 l 1
 62.5 -137.5 l 1
 62.5 -106.25 l 1
 62.5 -75 l 1
 93.75 -75 l 1
 125 -75 l 1
 125 -106.25 l 1
 125 -137.5 l 1
 156.25 -137.5 l 1
 187.5 -137.5 l 1
 187.5 50 l 1
 187.5 237.5 l 1
 156.25 237.5 l 1
 125 237.5 l 1
 125 206.25 l 1
 125 175 l 1
 62.5 175 l 1
 0 175 l 1
 0 206.25 l 1
 0 237.5 l 1
 62.5 237.5 l 1
 125 237.5 l 1
 125 268.75 l 1
 125 300 l 1
 156.25 300 l 1
 187.5 300 l 1
 187.5 393.75 l 1
 187.5 487.5 l 1
 93.75 487.5 l 1
 0 487.5 l 1
 0 518.75 l 1
 0 550 l 1
 93.75 550 l 1
 187.5 550 l 1
 187.5 675 l 1
375 456.25 m 1
 375 487.5 l 1
 312.5 487.5 l 1
 250 487.5 l 1
 250 425 l 1
 250 362.5 l 1
 281.25 362.5 l 1
 312.5 362.5 l 1
 312.5 393.75 l 1
 312.5 425 l 1
 343.75 425 l 1
 375 425 l 1
 375 456.25 l 1
375 643.75 m 1
 375 675 l 1
 406.25 675 l 1
 437.5 675 l 1
 437.5 643.75 l 1
 437.5 612.5 l 1
 468.75 612.5 l 1
 500 612.5 l 1
 500 581.25 l 1
 500 550 l 1
 468.75 550 l 1
 437.5 550 l 1
 437.5 581.25 l 1
 437.5 612.5 l 1
 406.25 612.5 l 1
 375 612.5 l 1
 375 643.75 l 1
750 643.75 m 1
 750 675 l 1
 781.25 675 l 1
 812.5 675 l 1
 812.5 643.75 l 1
 812.5 612.5 l 1
 781.25 612.5 l 1
 750 612.5 l 1
 750 581.25 l 1
 750 550 l 1
 718.75 550 l 1
 687.5 550 l 1
 687.5 581.25 l 1
 687.5 612.5 l 1
 718.75 612.5 l 1
 750 612.5 l 1
 750 643.75 l 1
EndSplineSet
EndChar

StartChar: uni4F34
Encoding: 20276 20276 38
Width: 1000
VWidth: 0
Flags: H
LayerCount: 2
Fore
SplineSet
250 706.25 m 1
 250 800 l 1
 281.25 800 l 1
 312.5 800 l 1
 312.5 706.25 l 1
 312.5 612.5 l 1
 281.25 612.5 l 1
 250 612.5 l 1
 250 425 l 1
 250 237.5 l 1
 406.25 237.5 l 1
 562.5 237.5 l 1
 562.5 331.25 l 1
 562.5 425 l 1
 437.5 425 l 1
 312.5 425 l 1
 312.5 456.25 l 1
 312.5 487.5 l 1
 437.5 487.5 l 1
 562.5 487.5 l 1
 562.5 643.75 l 1
 562.5 800 l 1
 593.75 800 l 1
 625 800 l 1
 625 643.75 l 1
 625 487.5 l 1
 750 487.5 l 1
 875 487.5 l 1
 875 456.25 l 1
 875 425 l 1
 750 425 l 1
 625 425 l 1
 625 331.25 l 1
 625 237.5 l 1
 718.75 237.5 l 1
 812.5 237.5 l 1
 812.5 268.75 l 1
 812.5 300 l 1
 843.75 300 l 1
 875 300 l 1
 875 268.75 l 1
 875 237.5 l 1
 906.25 237.5 l 1
 937.5 237.5 l 1
 937.5 206.25 l 1
 937.5 175 l 1
 781.25 175 l 1
 625 175 l 1
 625 -12.5 l 1
 625 -200 l 1
 593.75 -200 l 1
 562.5 -200 l 1
 562.5 -12.5 l 1
 562.5 175 l 1
 406.25 175 l 1
 250 175 l 1
 250 -12.5 l 1
 250 -200 l 1
 218.75 -200 l 1
 187.5 -200 l 1
 187.5 81.25 l 1
 187.5 362.5 l 1
 156.25 362.5 l 1
 125 362.5 l 1
 125 331.25 l 1
 125 300 l 1
 93.75 300 l 1
 62.5 300 l 1
 62.5 268.75 l 1
 62.5 237.5 l 1
 31.25 237.5 l 1
 0 237.5 l 1
 0 268.75 l 1
 0 300 l 1
 31.25 300 l 1
 62.5 300 l 1
 62.5 331.25 l 1
 62.5 362.5 l 1
 93.75 362.5 l 1
 125 362.5 l 1
 125 425 l 1
 125 487.5 l 1
 156.25 487.5 l 1
 187.5 487.5 l 1
 187.5 550 l 1
 187.5 612.5 l 1
 218.75 612.5 l 1
 250 612.5 l 1
 250 706.25 l 1
375 643.75 m 1
 375 675 l 1
 406.25 675 l 1
 437.5 675 l 1
 437.5 643.75 l 1
 437.5 612.5 l 1
 468.75 612.5 l 1
 500 612.5 l 1
 500 581.25 l 1
 500 550 l 1
 468.75 550 l 1
 437.5 550 l 1
 437.5 581.25 l 1
 437.5 612.5 l 1
 406.25 612.5 l 1
 375 612.5 l 1
 375 643.75 l 1
750 643.75 m 1
 750 675 l 1
 781.25 675 l 1
 812.5 675 l 1
 812.5 643.75 l 1
 812.5 612.5 l 1
 781.25 612.5 l 1
 750 612.5 l 1
 750 581.25 l 1
 750 550 l 1
 718.75 550 l 1
 687.5 550 l 1
 687.5 581.25 l 1
 687.5 612.5 l 1
 718.75 612.5 l 1
 750 612.5 l 1
 750 643.75 l 1
EndSplineSet
EndChar

StartChar: uni74E3
Encoding: 29923 29923 39
Width: 1000
VWidth: 0
Flags: H
LayerCount: 2
Fore
SplineSet
62.5 768.75 m 1
 62.5 800 l 1
 93.75 800 l 1
 125 800 l 1
 125 768.75 l 1
 125 737.5 l 1
 156.25 737.5 l 1
 187.5 737.5 l 1
 187.5 706.25 l 1
 187.5 675 l 1
 250 675 l 1
 312.5 675 l 1
 312.5 643.75 l 1
 312.5 612.5 l 1
 406.25 612.5 l 1
 500 612.5 l 1
 500 643.75 l 1
 500 675 l 1
 531.25 675 l 1
 562.5 675 l 1
 562.5 706.25 l 1
 562.5 737.5 l 1
 593.75 737.5 l 1
 625 737.5 l 1
 625 706.25 l 1
 625 675 l 1
 687.5 675 l 1
 750 675 l 1
 750 706.25 l 1
 750 737.5 l 1
 718.75 737.5 l 1
 687.5 737.5 l 1
 687.5 768.75 l 1
 687.5 800 l 1
 718.75 800 l 1
 750 800 l 1
 750 768.75 l 1
 750 737.5 l 1
 781.25 737.5 l 1
 812.5 737.5 l 1
 812.5 706.25 l 1
 812.5 675 l 1
 875 675 l 1
 937.5 675 l 1
 937.5 643.75 l 1
 937.5 612.5 l 1
 781.25 612.5 l 1
 625 612.5 l 1
 625 518.75 l 1
 625 425 l 1
 656.25 425 l 1
 687.5 425 l 1
 687.5 487.5 l 1
 687.5 550 l 1
 718.75 550 l 1
 750 550 l 1
 750 487.5 l 1
 750 425 l 1
 781.25 425 l 1
 812.5 425 l 1
 812.5 487.5 l 1
 812.5 550 l 1
 843.75 550 l 1
 875 550 l 1
 875 487.5 l 1
 875 425 l 1
 906.25 425 l 1
 937.5 425 l 1
 937.5 393.75 l 1
 937.5 362.5 l 1
 875 362.5 l 1
 812.5 362.5 l 1
 812.5 268.75 l 1
 812.5 175 l 1
 875 175 l 1
 937.5 175 l 1
 937.5 143.75 l 1
 937.5 112.5 l 1
 875 112.5 l 1
 812.5 112.5 l 1
 812.5 -43.75 l 1
 812.5 -200 l 1
 781.25 -200 l 1
 750 -200 l 1
 750 -137.5 l 1
 750 -75 l 1
 718.75 -75 l 1
 687.5 -75 l 1
 687.5 -43.75 l 1
 687.5 -12.5 l 1
 656.25 -12.5 l 1
 625 -12.5 l 1
 625 18.75 l 1
 625 50 l 1
 593.75 50 l 1
 562.5 50 l 1
 562.5 -12.5 l 1
 562.5 -75 l 1
 468.75 -75 l 1
 375 -75 l 1
 375 -43.75 l 1
 375 -12.5 l 1
 343.75 -12.5 l 1
 312.5 -12.5 l 1
 312.5 -43.75 l 1
 312.5 -75 l 1
 281.25 -75 l 1
 250 -75 l 1
 250 -106.25 l 1
 250 -137.5 l 1
 218.75 -137.5 l 1
 187.5 -137.5 l 1
 187.5 -106.25 l 1
 187.5 -75 l 1
 218.75 -75 l 1
 250 -75 l 1
 250 -43.75 l 1
 250 -12.5 l 1
 281.25 -12.5 l 1
 312.5 -12.5 l 1
 312.5 50 l 1
 312.5 112.5 l 1
 250 112.5 l 1
 187.5 112.5 l 1
 187.5 50 l 1
 187.5 -12.5 l 1
 156.25 -12.5 l 1
 125 -12.5 l 1
 125 -43.75 l 1
 125 -75 l 1
 93.75 -75 l 1
 62.5 -75 l 1
 62.5 -106.25 l 1
 62.5 -137.5 l 1
 31.25 -137.5 l 1
 0 -137.5 l 1
 0 -106.25 l 1
 0 -75 l 1
 31.25 -75 l 1
 62.5 -75 l 1
 62.5 -43.75 l 1
 62.5 -12.5 l 1
 93.75 -12.5 l 1
 125 -12.5 l 1
 125 18.75 l 1
 125 50 l 1
 62.5 50 l 1
 0 50 l 1
 0 81.25 l 1
 0 112.5 l 1
 62.5 112.5 l 1
 125 112.5 l 1
 125 237.5 l 1
 125 362.5 l 1
 62.5 362.5 l 1
 0 362.5 l 1
 0 393.75 l 1
 0 425 l 1
 31.25 425 l 1
 62.5 425 l 1
 62.5 487.5 l 1
 62.5 550 l 1
 93.75 550 l 1
 125 550 l 1
 125 487.5 l 1
 125 425 l 1
 156.25 425 l 1
 187.5 425 l 1
 187.5 487.5 l 1
 187.5 550 l 1
 218.75 550 l 1
 250 550 l 1
 250 487.5 l 1
 250 425 l 1
 281.25 425 l 1
 312.5 425 l 1
 312.5 518.75 l 1
 312.5 612.5 l 1
 156.25 612.5 l 1
 0 612.5 l 1
 0 643.75 l 1
 0 675 l 1
 62.5 675 l 1
 125 675 l 1
 125 706.25 l 1
 125 737.5 l 1
 93.75 737.5 l 1
 62.5 737.5 l 1
 62.5 768.75 l 1
625 643.75 m 1
 625 675 l 1
 593.75 675 l 1
 562.5 675 l 1
 562.5 643.75 l 1
 562.5 612.5 l 1
 531.25 612.5 l 1
 500 612.5 l 1
 500 581.25 l 1
 500 550 l 1
 437.5 550 l 1
 375 550 l 1
 375 300 l 1
 375 50 l 1
 406.25 50 l 1
 437.5 50 l 1
 437.5 18.75 l 1
 437.5 -12.5 l 1
 468.75 -12.5 l 1
 500 -12.5 l 1
 500 18.75 l 1
 500 50 l 1
 531.25 50 l 1
 562.5 50 l 1
 562.5 331.25 l 1
 562.5 612.5 l 1
 593.75 612.5 l 1
 625 612.5 l 1
 625 643.75 l 1
312.5 268.75 m 1
 312.5 362.5 l 1
 250 362.5 l 1
 187.5 362.5 l 1
 187.5 268.75 l 1
 187.5 175 l 1
 250 175 l 1
 312.5 175 l 1
 312.5 268.75 l 1
750 268.75 m 1
 750 362.5 l 1
 687.5 362.5 l 1
 625 362.5 l 1
 625 268.75 l 1
 625 175 l 1
 687.5 175 l 1
 750 175 l 1
 750 268.75 l 1
750 50 m 1
 750 112.5 l 1
 687.5 112.5 l 1
 625 112.5 l 1
 625 81.25 l 1
 625 50 l 1
 656.25 50 l 1
 687.5 50 l 1
 687.5 18.75 l 1
 687.5 -12.5 l 1
 718.75 -12.5 l 1
 750 -12.5 l 1
 750 50 l 1
437.5 268.75 m 1
 437.5 487.5 l 1
 468.75 487.5 l 1
 500 487.5 l 1
 500 268.75 l 1
 500 50 l 1
 468.75 50 l 1
 437.5 50 l 1
 437.5 268.75 l 1
EndSplineSet
EndChar

StartChar: uni534A
Encoding: 21322 21322 40
Width: 1000
VWidth: 0
Flags: H
LayerCount: 2
Fore
SplineSet
437.5 643.75 m 1
 437.5 800 l 1
 468.75 800 l 1
 500 800 l 1
 500 643.75 l 1
 500 487.5 l 1
 656.25 487.5 l 1
 812.5 487.5 l 1
 812.5 456.25 l 1
 812.5 425 l 1
 656.25 425 l 1
 500 425 l 1
 500 331.25 l 1
 500 237.5 l 1
 656.25 237.5 l 1
 812.5 237.5 l 1
 812.5 268.75 l 1
 812.5 300 l 1
 843.75 300 l 1
 875 300 l 1
 875 268.75 l 1
 875 237.5 l 1
 906.25 237.5 l 1
 937.5 237.5 l 1
 937.5 206.25 l 1
 937.5 175 l 1
 718.75 175 l 1
 500 175 l 1
 500 -12.5 l 1
 500 -200 l 1
 468.75 -200 l 1
 437.5 -200 l 1
 437.5 -12.5 l 1
 437.5 175 l 1
 218.75 175 l 1
 0 175 l 1
 0 206.25 l 1
 0 237.5 l 1
 218.75 237.5 l 1
 437.5 237.5 l 1
 437.5 331.25 l 1
 437.5 425 l 1
 281.25 425 l 1
 125 425 l 1
 125 456.25 l 1
 125 487.5 l 1
 281.25 487.5 l 1
 437.5 487.5 l 1
 437.5 643.75 l 1
125 706.25 m 1
 125 737.5 l 1
 156.25 737.5 l 1
 187.5 737.5 l 1
 187.5 706.25 l 1
 187.5 675 l 1
 250 675 l 1
 312.5 675 l 1
 312.5 612.5 l 1
 312.5 550 l 1
 281.25 550 l 1
 250 550 l 1
 250 581.25 l 1
 250 612.5 l 1
 218.75 612.5 l 1
 187.5 612.5 l 1
 187.5 643.75 l 1
 187.5 675 l 1
 156.25 675 l 1
 125 675 l 1
 125 706.25 l 1
750 706.25 m 1
 750 737.5 l 1
 781.25 737.5 l 1
 812.5 737.5 l 1
 812.5 675 l 1
 812.5 612.5 l 1
 750 612.5 l 1
 687.5 612.5 l 1
 687.5 581.25 l 1
 687.5 550 l 1
 656.25 550 l 1
 625 550 l 1
 625 581.25 l 1
 625 612.5 l 1
 656.25 612.5 l 1
 687.5 612.5 l 1
 687.5 643.75 l 1
 687.5 675 l 1
 718.75 675 l 1
 750 675 l 1
 750 706.25 l 1
EndSplineSet
EndChar

StartChar: uni529E
Encoding: 21150 21150 41
Width: 1000
VWidth: 0
Flags: H
LayerCount: 2
Fore
SplineSet
375 675 m 1
 375 800 l 1
 406.25 800 l 1
 437.5 800 l 1
 437.5 675 l 1
 437.5 550 l 1
 531.25 550 l 1
 625 550 l 1
 625 581.25 l 1
 625 612.5 l 1
 656.25 612.5 l 1
 687.5 612.5 l 1
 687.5 581.25 l 1
 687.5 550 l 1
 718.75 550 l 1
 750 550 l 1
 750 518.75 l 1
 750 487.5 l 1
 718.75 487.5 l 1
 687.5 487.5 l 1
 687.5 425 l 1
 687.5 362.5 l 1
 718.75 362.5 l 1
 750 362.5 l 1
 750 331.25 l 1
 750 300 l 1
 812.5 300 l 1
 875 300 l 1
 875 268.75 l 1
 875 237.5 l 1
 906.25 237.5 l 1
 937.5 237.5 l 1
 937.5 175 l 1
 937.5 112.5 l 1
 906.25 112.5 l 1
 875 112.5 l 1
 875 143.75 l 1
 875 175 l 1
 843.75 175 l 1
 812.5 175 l 1
 812.5 206.25 l 1
 812.5 237.5 l 1
 781.25 237.5 l 1
 750 237.5 l 1
 750 268.75 l 1
 750 300 l 1
 718.75 300 l 1
 687.5 300 l 1
 687.5 112.5 l 1
 687.5 -75 l 1
 656.25 -75 l 1
 625 -75 l 1
 625 -106.25 l 1
 625 -137.5 l 1
 593.75 -137.5 l 1
 562.5 -137.5 l 1
 562.5 -106.25 l 1
 562.5 -75 l 1
 531.25 -75 l 1
 500 -75 l 1
 500 -43.75 l 1
 500 -12.5 l 1
 531.25 -12.5 l 1
 562.5 -12.5 l 1
 562.5 -43.75 l 1
 562.5 -75 l 1
 593.75 -75 l 1
 625 -75 l 1
 625 206.25 l 1
 625 487.5 l 1
 531.25 487.5 l 1
 437.5 487.5 l 1
 437.5 331.25 l 1
 437.5 175 l 1
 406.25 175 l 1
 375 175 l 1
 375 112.5 l 1
 375 50 l 1
 343.75 50 l 1
 312.5 50 l 1
 312.5 18.75 l 1
 312.5 -12.5 l 1
 281.25 -12.5 l 1
 250 -12.5 l 1
 250 -43.75 l 1
 250 -75 l 1
 218.75 -75 l 1
 187.5 -75 l 1
 187.5 -106.25 l 1
 187.5 -137.5 l 1
 156.25 -137.5 l 1
 125 -137.5 l 1
 125 -106.25 l 1
 125 -75 l 1
 156.25 -75 l 1
 187.5 -75 l 1
 187.5 -43.75 l 1
 187.5 -12.5 l 1
 218.75 -12.5 l 1
 250 -12.5 l 1
 250 18.75 l 1
 250 50 l 1
 281.25 50 l 1
 312.5 50 l 1
 312.5 112.5 l 1
 312.5 175 l 1
 343.75 175 l 1
 375 175 l 1
 375 331.25 l 1
 375 487.5 l 1
 250 487.5 l 1
 125 487.5 l 1
 125 518.75 l 1
 125 550 l 1
 250 550 l 1
 375 550 l 1
 375 675 l 1
187.5 331.25 m 1
 187.5 362.5 l 1
 218.75 362.5 l 1
 250 362.5 l 1
 250 300 l 1
 250 237.5 l 1
 218.75 237.5 l 1
 187.5 237.5 l 1
 187.5 206.25 l 1
 187.5 175 l 1
 156.25 175 l 1
 125 175 l 1
 125 143.75 l 1
 125 112.5 l 1
 93.75 112.5 l 1
 62.5 112.5 l 1
 62.5 81.25 l 1
 62.5 50 l 1
 31.25 50 l 1
 0 50 l 1
 0 81.25 l 1
 0 112.5 l 1
 31.25 112.5 l 1
 62.5 112.5 l 1
 62.5 143.75 l 1
 62.5 175 l 1
 93.75 175 l 1
 125 175 l 1
 125 237.5 l 1
 125 300 l 1
 156.25 300 l 1
 187.5 300 l 1
 187.5 331.25 l 1
EndSplineSet
EndChar

StartChar: uni7ECA
Encoding: 32458 32458 42
Width: 1000
VWidth: 0
Flags: H
LayerCount: 2
Fore
SplineSet
187.5 737.5 m 1
 187.5 800 l 1
 218.75 800 l 1
 250 800 l 1
 250 737.5 l 1
 250 675 l 1
 218.75 675 l 1
 187.5 675 l 1
 187.5 612.5 l 1
 187.5 550 l 1
 156.25 550 l 1
 125 550 l 1
 125 518.75 l 1
 125 487.5 l 1
 218.75 487.5 l 1
 312.5 487.5 l 1
 312.5 518.75 l 1
 312.5 550 l 1
 343.75 550 l 1
 375 550 l 1
 375 518.75 l 1
 375 487.5 l 1
 343.75 487.5 l 1
 312.5 487.5 l 1
 312.5 456.25 l 1
 312.5 425 l 1
 281.25 425 l 1
 250 425 l 1
 250 393.75 l 1
 250 362.5 l 1
 218.75 362.5 l 1
 187.5 362.5 l 1
 187.5 331.25 l 1
 187.5 300 l 1
 156.25 300 l 1
 125 300 l 1
 125 268.75 l 1
 125 237.5 l 1
 250 237.5 l 1
 375 237.5 l 1
 375 206.25 l 1
 375 175 l 1
 500 175 l 1
 625 175 l 1
 625 268.75 l 1
 625 362.5 l 1
 531.25 362.5 l 1
 437.5 362.5 l 1
 437.5 393.75 l 1
 437.5 425 l 1
 531.25 425 l 1
 625 425 l 1
 625 612.5 l 1
 625 800 l 1
 656.25 800 l 1
 687.5 800 l 1
 687.5 675 l 1
 687.5 550 l 1
 718.75 550 l 1
 750 550 l 1
 750 581.25 l 1
 750 612.5 l 1
 781.25 612.5 l 1
 812.5 612.5 l 1
 812.5 643.75 l 1
 812.5 675 l 1
 843.75 675 l 1
 875 675 l 1
 875 612.5 l 1
 875 550 l 1
 812.5 550 l 1
 750 550 l 1
 750 518.75 l 1
 750 487.5 l 1
 781.25 487.5 l 1
 812.5 487.5 l 1
 812.5 456.25 l 1
 812.5 425 l 1
 843.75 425 l 1
 875 425 l 1
 875 393.75 l 1
 875 362.5 l 1
 781.25 362.5 l 1
 687.5 362.5 l 1
 687.5 268.75 l 1
 687.5 175 l 1
 750 175 l 1
 812.5 175 l 1
 812.5 206.25 l 1
 812.5 237.5 l 1
 843.75 237.5 l 1
 875 237.5 l 1
 875 206.25 l 1
 875 175 l 1
 906.25 175 l 1
 937.5 175 l 1
 937.5 143.75 l 1
 937.5 112.5 l 1
 812.5 112.5 l 1
 687.5 112.5 l 1
 687.5 -43.75 l 1
 687.5 -200 l 1
 656.25 -200 l 1
 625 -200 l 1
 625 -43.75 l 1
 625 112.5 l 1
 500 112.5 l 1
 375 112.5 l 1
 375 143.75 l 1
 375 175 l 1
 187.5 175 l 1
 0 175 l 1
 0 206.25 l 1
 0 237.5 l 1
 31.25 237.5 l 1
 62.5 237.5 l 1
 62.5 268.75 l 1
 62.5 300 l 1
 93.75 300 l 1
 125 300 l 1
 125 331.25 l 1
 125 362.5 l 1
 156.25 362.5 l 1
 187.5 362.5 l 1
 187.5 393.75 l 1
 187.5 425 l 1
 93.75 425 l 1
 0 425 l 1
 0 456.25 l 1
 0 487.5 l 1
 31.25 487.5 l 1
 62.5 487.5 l 1
 62.5 518.75 l 1
 62.5 550 l 1
 93.75 550 l 1
 125 550 l 1
 125 612.5 l 1
 125 675 l 1
 156.25 675 l 1
 187.5 675 l 1
 187.5 737.5 l 1
750 456.25 m 1
 750 487.5 l 1
 718.75 487.5 l 1
 687.5 487.5 l 1
 687.5 456.25 l 1
 687.5 425 l 1
 718.75 425 l 1
 750 425 l 1
 750 456.25 l 1
437.5 643.75 m 1
 437.5 675 l 1
 468.75 675 l 1
 500 675 l 1
 500 643.75 l 1
 500 612.5 l 1
 531.25 612.5 l 1
 562.5 612.5 l 1
 562.5 550 l 1
 562.5 487.5 l 1
 531.25 487.5 l 1
 500 487.5 l 1
 500 550 l 1
 500 612.5 l 1
 468.75 612.5 l 1
 437.5 612.5 l 1
 437.5 643.75 l 1
187.5 18.75 m 1
 187.5 50 l 1
 281.25 50 l 1
 375 50 l 1
 375 18.75 l 1
 375 -12.5 l 1
 281.25 -12.5 l 1
 187.5 -12.5 l 1
 187.5 -43.75 l 1
 187.5 -75 l 1
 156.25 -75 l 1
 125 -75 l 1
 125 -106.25 l 1
 125 -137.5 l 1
 93.75 -137.5 l 1
 62.5 -137.5 l 1
 62.5 -106.25 l 1
 62.5 -75 l 1
 31.25 -75 l 1
 0 -75 l 1
 0 -43.75 l 1
 0 -12.5 l 1
 93.75 -12.5 l 1
 187.5 -12.5 l 1
 187.5 18.75 l 1
EndSplineSet
EndChar

StartChar: uni90A6
Encoding: 37030 37030 43
Width: 1000
VWidth: 0
Flags: H
LayerCount: 2
Fore
SplineSet
250 706.25 m 1
 250 800 l 1
 281.25 800 l 1
 312.5 800 l 1
 312.5 706.25 l 1
 312.5 612.5 l 1
 343.75 612.5 l 1
 375 612.5 l 1
 375 643.75 l 1
 375 675 l 1
 406.25 675 l 1
 437.5 675 l 1
 437.5 643.75 l 1
 437.5 612.5 l 1
 468.75 612.5 l 1
 500 612.5 l 1
 500 581.25 l 1
 500 550 l 1
 406.25 550 l 1
 312.5 550 l 1
 312.5 487.5 l 1
 312.5 425 l 1
 375 425 l 1
 437.5 425 l 1
 437.5 393.75 l 1
 437.5 362.5 l 1
 375 362.5 l 1
 312.5 362.5 l 1
 312.5 300 l 1
 312.5 237.5 l 1
 343.75 237.5 l 1
 375 237.5 l 1
 375 268.75 l 1
 375 300 l 1
 406.25 300 l 1
 437.5 300 l 1
 437.5 268.75 l 1
 437.5 237.5 l 1
 468.75 237.5 l 1
 500 237.5 l 1
 500 206.25 l 1
 500 175 l 1
 406.25 175 l 1
 312.5 175 l 1
 312.5 143.75 l 1
 312.5 112.5 l 1
 281.25 112.5 l 1
 250 112.5 l 1
 250 50 l 1
 250 -12.5 l 1
 218.75 -12.5 l 1
 187.5 -12.5 l 1
 187.5 -43.75 l 1
 187.5 -75 l 1
 156.25 -75 l 1
 125 -75 l 1
 125 -106.25 l 1
 125 -137.5 l 1
 93.75 -137.5 l 1
 62.5 -137.5 l 1
 62.5 -106.25 l 1
 62.5 -75 l 1
 93.75 -75 l 1
 125 -75 l 1
 125 -43.75 l 1
 125 -12.5 l 1
 156.25 -12.5 l 1
 187.5 -12.5 l 1
 187.5 50 l 1
 187.5 112.5 l 1
 218.75 112.5 l 1
 250 112.5 l 1
 250 143.75 l 1
 250 175 l 1
 125 175 l 1
 0 175 l 1
 0 206.25 l 1
 0 237.5 l 1
 125 237.5 l 1
 250 237.5 l 1
 250 300 l 1
 250 362.5 l 1
 156.25 362.5 l 1
 62.5 362.5 l 1
 62.5 393.75 l 1
 62.5 425 l 1
 156.25 425 l 1
 250 425 l 1
 250 487.5 l 1
 250 550 l 1
 125 550 l 1
 0 550 l 1
 0 581.25 l 1
 0 612.5 l 1
 125 612.5 l 1
 250 612.5 l 1
 250 706.25 l 1
562.5 268.75 m 1
 562.5 737.5 l 1
 718.75 737.5 l 1
 875 737.5 l 1
 875 643.75 l 1
 875 550 l 1
 843.75 550 l 1
 812.5 550 l 1
 812.5 487.5 l 1
 812.5 425 l 1
 781.25 425 l 1
 750 425 l 1
 750 393.75 l 1
 750 362.5 l 1
 781.25 362.5 l 1
 812.5 362.5 l 1
 812.5 331.25 l 1
 812.5 300 l 1
 843.75 300 l 1
 875 300 l 1
 875 268.75 l 1
 875 237.5 l 1
 906.25 237.5 l 1
 937.5 237.5 l 1
 937.5 143.75 l 1
 937.5 50 l 1
 906.25 50 l 1
 875 50 l 1
 875 18.75 l 1
 875 -12.5 l 1
 843.75 -12.5 l 1
 812.5 -12.5 l 1
 812.5 -43.75 l 1
 812.5 -75 l 1
 781.25 -75 l 1
 750 -75 l 1
 750 -43.75 l 1
 750 -12.5 l 1
 718.75 -12.5 l 1
 687.5 -12.5 l 1
 687.5 18.75 l 1
 687.5 50 l 1
 656.25 50 l 1
 625 50 l 1
 625 -75 l 1
 625 -200 l 1
 593.75 -200 l 1
 562.5 -200 l 1
 562.5 268.75 l 1
812.5 612.5 m 1
 812.5 675 l 1
 718.75 675 l 1
 625 675 l 1
 625 393.75 l 1
 625 112.5 l 1
 656.25 112.5 l 1
 687.5 112.5 l 1
 687.5 81.25 l 1
 687.5 50 l 1
 718.75 50 l 1
 750 50 l 1
 750 18.75 l 1
 750 -12.5 l 1
 781.25 -12.5 l 1
 812.5 -12.5 l 1
 812.5 18.75 l 1
 812.5 50 l 1
 843.75 50 l 1
 875 50 l 1
 875 143.75 l 1
 875 237.5 l 1
 843.75 237.5 l 1
 812.5 237.5 l 1
 812.5 268.75 l 1
 812.5 300 l 1
 781.25 300 l 1
 750 300 l 1
 750 331.25 l 1
 750 362.5 l 1
 718.75 362.5 l 1
 687.5 362.5 l 1
 687.5 393.75 l 1
 687.5 425 l 1
 718.75 425 l 1
 750 425 l 1
 750 487.5 l 1
 750 550 l 1
 781.25 550 l 1
 812.5 550 l 1
 812.5 612.5 l 1
EndSplineSet
EndChar

StartChar: uni5E2E
Encoding: 24110 24110 44
Width: 1000
VWidth: 0
Flags: H
LayerCount: 2
Fore
SplineSet
250 737.5 m 1
 250 800 l 1
 281.25 800 l 1
 312.5 800 l 1
 312.5 737.5 l 1
 312.5 675 l 1
 343.75 675 l 1
 375 675 l 1
 375 706.25 l 1
 375 737.5 l 1
 406.25 737.5 l 1
 437.5 737.5 l 1
 437.5 706.25 l 1
 437.5 675 l 1
 468.75 675 l 1
 500 675 l 1
 500 643.75 l 1
 500 612.5 l 1
 406.25 612.5 l 1
 312.5 612.5 l 1
 312.5 581.25 l 1
 312.5 550 l 1
 375 550 l 1
 437.5 550 l 1
 437.5 518.75 l 1
 437.5 487.5 l 1
 375 487.5 l 1
 312.5 487.5 l 1
 312.5 456.25 l 1
 312.5 425 l 1
 406.25 425 l 1
 500 425 l 1
 500 393.75 l 1
 500 362.5 l 1
 406.25 362.5 l 1
 312.5 362.5 l 1
 312.5 331.25 l 1
 312.5 300 l 1
 281.25 300 l 1
 250 300 l 1
 250 268.75 l 1
 250 237.5 l 1
 343.75 237.5 l 1
 437.5 237.5 l 1
 437.5 268.75 l 1
 437.5 300 l 1
 468.75 300 l 1
 500 300 l 1
 500 268.75 l 1
 500 237.5 l 1
 531.25 237.5 l 1
 562.5 237.5 l 1
 562.5 487.5 l 1
 562.5 737.5 l 1
 718.75 737.5 l 1
 875 737.5 l 1
 875 706.25 l 1
 875 675 l 1
 843.75 675 l 1
 812.5 675 l 1
 812.5 643.75 l 1
 812.5 612.5 l 1
 781.25 612.5 l 1
 750 612.5 l 1
 750 581.25 l 1
 750 550 l 1
 781.25 550 l 1
 812.5 550 l 1
 812.5 518.75 l 1
 812.5 487.5 l 1
 843.75 487.5 l 1
 875 487.5 l 1
 875 425 l 1
 875 362.5 l 1
 843.75 362.5 l 1
 812.5 362.5 l 1
 812.5 331.25 l 1
 812.5 300 l 1
 781.25 300 l 1
 750 300 l 1
 750 112.5 l 1
 750 -75 l 1
 718.75 -75 l 1
 687.5 -75 l 1
 687.5 -106.25 l 1
 687.5 -137.5 l 1
 656.25 -137.5 l 1
 625 -137.5 l 1
 625 -106.25 l 1
 625 -75 l 1
 593.75 -75 l 1
 562.5 -75 l 1
 562.5 -43.75 l 1
 562.5 -12.5 l 1
 593.75 -12.5 l 1
 625 -12.5 l 1
 625 -43.75 l 1
 625 -75 l 1
 656.25 -75 l 1
 687.5 -75 l 1
 687.5 50 l 1
 687.5 175 l 1
 593.75 175 l 1
 500 175 l 1
 500 -12.5 l 1
 500 -200 l 1
 468.75 -200 l 1
 437.5 -200 l 1
 437.5 -12.5 l 1
 437.5 175 l 1
 343.75 175 l 1
 250 175 l 1
 250 18.75 l 1
 250 -137.5 l 1
 218.75 -137.5 l 1
 187.5 -137.5 l 1
 187.5 18.75 l 1
 187.5 175 l 1
 156.25 175 l 1
 125 175 l 1
 125 143.75 l 1
 125 112.5 l 1
 62.5 112.5 l 1
 0 112.5 l 1
 0 143.75 l 1
 0 175 l 1
 62.5 175 l 1
 125 175 l 1
 125 206.25 l 1
 125 237.5 l 1
 156.25 237.5 l 1
 187.5 237.5 l 1
 187.5 268.75 l 1
 187.5 300 l 1
 218.75 300 l 1
 250 300 l 1
 250 331.25 l 1
 250 362.5 l 1
 125 362.5 l 1
 0 362.5 l 1
 0 393.75 l 1
 0 425 l 1
 125 425 l 1
 250 425 l 1
 250 456.25 l 1
 250 487.5 l 1
 156.25 487.5 l 1
 62.5 487.5 l 1
 62.5 518.75 l 1
 62.5 550 l 1
 156.25 550 l 1
 250 550 l 1
 250 581.25 l 1
 250 612.5 l 1
 125 612.5 l 1
 0 612.5 l 1
 0 643.75 l 1
 0 675 l 1
 125 675 l 1
 250 675 l 1
 250 737.5 l 1
750 643.75 m 1
 750 675 l 1
 687.5 675 l 1
 625 675 l 1
 625 550 l 1
 625 425 l 1
 656.25 425 l 1
 687.5 425 l 1
 687.5 393.75 l 1
 687.5 362.5 l 1
 656.25 362.5 l 1
 625 362.5 l 1
 625 300 l 1
 625 237.5 l 1
 656.25 237.5 l 1
 687.5 237.5 l 1
 687.5 300 l 1
 687.5 362.5 l 1
 750 362.5 l 1
 812.5 362.5 l 1
 812.5 425 l 1
 812.5 487.5 l 1
 750 487.5 l 1
 687.5 487.5 l 1
 687.5 550 l 1
 687.5 612.5 l 1
 718.75 612.5 l 1
 750 612.5 l 1
 750 643.75 l 1
EndSplineSet
EndChar

StartChar: uni6886
Encoding: 26758 26758 45
Width: 1000
VWidth: 0
Flags: H
LayerCount: 2
Fore
SplineSet
187.5 675 m 1
 187.5 800 l 1
 218.75 800 l 1
 250 800 l 1
 250 675 l 1
 250 550 l 1
 281.25 550 l 1
 312.5 550 l 1
 312.5 581.25 l 1
 312.5 612.5 l 1
 375 612.5 l 1
 437.5 612.5 l 1
 437.5 706.25 l 1
 437.5 800 l 1
 468.75 800 l 1
 500 800 l 1
 500 706.25 l 1
 500 612.5 l 1
 562.5 612.5 l 1
 625 612.5 l 1
 625 675 l 1
 625 737.5 l 1
 781.25 737.5 l 1
 937.5 737.5 l 1
 937.5 675 l 1
 937.5 612.5 l 1
 906.25 612.5 l 1
 875 612.5 l 1
 875 550 l 1
 875 487.5 l 1
 843.75 487.5 l 1
 812.5 487.5 l 1
 812.5 456.25 l 1
 812.5 425 l 1
 843.75 425 l 1
 875 425 l 1
 875 362.5 l 1
 875 300 l 1
 906.25 300 l 1
 937.5 300 l 1
 937.5 206.25 l 1
 937.5 112.5 l 1
 906.25 112.5 l 1
 875 112.5 l 1
 875 81.25 l 1
 875 50 l 1
 843.75 50 l 1
 812.5 50 l 1
 812.5 18.75 l 1
 812.5 -12.5 l 1
 781.25 -12.5 l 1
 750 -12.5 l 1
 750 18.75 l 1
 750 50 l 1
 718.75 50 l 1
 687.5 50 l 1
 687.5 -75 l 1
 687.5 -200 l 1
 656.25 -200 l 1
 625 -200 l 1
 625 -12.5 l 1
 625 175 l 1
 562.5 175 l 1
 500 175 l 1
 500 112.5 l 1
 500 50 l 1
 468.75 50 l 1
 437.5 50 l 1
 437.5 -12.5 l 1
 437.5 -75 l 1
 406.25 -75 l 1
 375 -75 l 1
 375 -106.25 l 1
 375 -137.5 l 1
 343.75 -137.5 l 1
 312.5 -137.5 l 1
 312.5 -106.25 l 1
 312.5 -75 l 1
 343.75 -75 l 1
 375 -75 l 1
 375 -12.5 l 1
 375 50 l 1
 406.25 50 l 1
 437.5 50 l 1
 437.5 112.5 l 1
 437.5 175 l 1
 375 175 l 1
 312.5 175 l 1
 312.5 237.5 l 1
 312.5 300 l 1
 281.25 300 l 1
 250 300 l 1
 250 50 l 1
 250 -200 l 1
 218.75 -200 l 1
 187.5 -200 l 1
 187.5 50 l 1
 187.5 300 l 1
 156.25 300 l 1
 125 300 l 1
 125 237.5 l 1
 125 175 l 1
 93.75 175 l 1
 62.5 175 l 1
 62.5 143.75 l 1
 62.5 112.5 l 1
 31.25 112.5 l 1
 0 112.5 l 1
 0 143.75 l 1
 0 175 l 1
 31.25 175 l 1
 62.5 175 l 1
 62.5 237.5 l 1
 62.5 300 l 1
 93.75 300 l 1
 125 300 l 1
 125 362.5 l 1
 125 425 l 1
 156.25 425 l 1
 187.5 425 l 1
 187.5 456.25 l 1
 187.5 487.5 l 1
 93.75 487.5 l 1
 0 487.5 l 1
 0 518.75 l 1
 0 550 l 1
 93.75 550 l 1
 187.5 550 l 1
 187.5 675 l 1
875 643.75 m 1
 875 675 l 1
 781.25 675 l 1
 687.5 675 l 1
 687.5 393.75 l 1
 687.5 112.5 l 1
 718.75 112.5 l 1
 750 112.5 l 1
 750 81.25 l 1
 750 50 l 1
 781.25 50 l 1
 812.5 50 l 1
 812.5 81.25 l 1
 812.5 112.5 l 1
 843.75 112.5 l 1
 875 112.5 l 1
 875 206.25 l 1
 875 300 l 1
 843.75 300 l 1
 812.5 300 l 1
 812.5 362.5 l 1
 812.5 425 l 1
 781.25 425 l 1
 750 425 l 1
 750 456.25 l 1
 750 487.5 l 1
 781.25 487.5 l 1
 812.5 487.5 l 1
 812.5 550 l 1
 812.5 612.5 l 1
 843.75 612.5 l 1
 875 612.5 l 1
 875 643.75 l 1
437.5 487.5 m 1
 437.5 550 l 1
 375 550 l 1
 312.5 550 l 1
 312.5 518.75 l 1
 312.5 487.5 l 1
 281.25 487.5 l 1
 250 487.5 l 1
 250 425 l 1
 250 362.5 l 1
 281.25 362.5 l 1
 312.5 362.5 l 1
 312.5 331.25 l 1
 312.5 300 l 1
 343.75 300 l 1
 375 300 l 1
 375 268.75 l 1
 375 237.5 l 1
 406.25 237.5 l 1
 437.5 237.5 l 1
 437.5 300 l 1
 437.5 362.5 l 1
 375 362.5 l 1
 312.5 362.5 l 1
 312.5 393.75 l 1
 312.5 425 l 1
 375 425 l 1
 437.5 425 l 1
 437.5 487.5 l 1
625 487.5 m 1
 625 550 l 1
 562.5 550 l 1
 500 550 l 1
 500 487.5 l 1
 500 425 l 1
 562.5 425 l 1
 625 425 l 1
 625 487.5 l 1
625 300 m 1
 625 362.5 l 1
 562.5 362.5 l 1
 500 362.5 l 1
 500 300 l 1
 500 237.5 l 1
 562.5 237.5 l 1
 625 237.5 l 1
 625 300 l 1
EndSplineSet
EndChar

StartChar: uni699C
Encoding: 27036 27036 46
Width: 1000
VWidth: 0
Flags: H
LayerCount: 2
Fore
SplineSet
187.5 675 m 1
 187.5 800 l 1
 218.75 800 l 1
 250 800 l 1
 250 675 l 1
 250 550 l 1
 312.5 550 l 1
 375 550 l 1
 375 518.75 l 1
 375 487.5 l 1
 468.75 487.5 l 1
 562.5 487.5 l 1
 562.5 518.75 l 1
 562.5 550 l 1
 531.25 550 l 1
 500 550 l 1
 500 581.25 l 1
 500 612.5 l 1
 468.75 612.5 l 1
 437.5 612.5 l 1
 437.5 643.75 l 1
 437.5 675 l 1
 531.25 675 l 1
 625 675 l 1
 625 706.25 l 1
 625 737.5 l 1
 593.75 737.5 l 1
 562.5 737.5 l 1
 562.5 768.75 l 1
 562.5 800 l 1
 593.75 800 l 1
 625 800 l 1
 625 768.75 l 1
 625 737.5 l 1
 656.25 737.5 l 1
 687.5 737.5 l 1
 687.5 706.25 l 1
 687.5 675 l 1
 718.75 675 l 1
 750 675 l 1
 750 706.25 l 1
 750 737.5 l 1
 781.25 737.5 l 1
 812.5 737.5 l 1
 812.5 706.25 l 1
 812.5 675 l 1
 843.75 675 l 1
 875 675 l 1
 875 643.75 l 1
 875 612.5 l 1
 843.75 612.5 l 1
 812.5 612.5 l 1
 812.5 581.25 l 1
 812.5 550 l 1
 781.25 550 l 1
 750 550 l 1
 750 518.75 l 1
 750 487.5 l 1
 843.75 487.5 l 1
 937.5 487.5 l 1
 937.5 456.25 l 1
 937.5 425 l 1
 906.25 425 l 1
 875 425 l 1
 875 393.75 l 1
 875 362.5 l 1
 843.75 362.5 l 1
 812.5 362.5 l 1
 812.5 393.75 l 1
 812.5 425 l 1
 718.75 425 l 1
 625 425 l 1
 625 393.75 l 1
 625 362.5 l 1
 656.25 362.5 l 1
 687.5 362.5 l 1
 687.5 331.25 l 1
 687.5 300 l 1
 812.5 300 l 1
 937.5 300 l 1
 937.5 268.75 l 1
 937.5 237.5 l 1
 750 237.5 l 1
 562.5 237.5 l 1
 562.5 206.25 l 1
 562.5 175 l 1
 687.5 175 l 1
 812.5 175 l 1
 812.5 18.75 l 1
 812.5 -137.5 l 1
 781.25 -137.5 l 1
 750 -137.5 l 1
 750 -168.75 l 1
 750 -200 l 1
 718.75 -200 l 1
 687.5 -200 l 1
 687.5 -168.75 l 1
 687.5 -137.5 l 1
 656.25 -137.5 l 1
 625 -137.5 l 1
 625 -106.25 l 1
 625 -75 l 1
 656.25 -75 l 1
 687.5 -75 l 1
 687.5 -106.25 l 1
 687.5 -137.5 l 1
 718.75 -137.5 l 1
 750 -137.5 l 1
 750 -12.5 l 1
 750 112.5 l 1
 656.25 112.5 l 1
 562.5 112.5 l 1
 562.5 50 l 1
 562.5 -12.5 l 1
 531.25 -12.5 l 1
 500 -12.5 l 1
 500 -43.75 l 1
 500 -75 l 1
 468.75 -75 l 1
 437.5 -75 l 1
 437.5 -106.25 l 1
 437.5 -137.5 l 1
 406.25 -137.5 l 1
 375 -137.5 l 1
 375 -168.75 l 1
 375 -200 l 1
 343.75 -200 l 1
 312.5 -200 l 1
 312.5 -168.75 l 1
 312.5 -137.5 l 1
 343.75 -137.5 l 1
 375 -137.5 l 1
 375 -106.25 l 1
 375 -75 l 1
 406.25 -75 l 1
 437.5 -75 l 1
 437.5 -43.75 l 1
 437.5 -12.5 l 1
 468.75 -12.5 l 1
 500 -12.5 l 1
 500 112.5 l 1
 500 237.5 l 1
 406.25 237.5 l 1
 312.5 237.5 l 1
 312.5 268.75 l 1
 312.5 300 l 1
 281.25 300 l 1
 250 300 l 1
 250 50 l 1
 250 -200 l 1
 218.75 -200 l 1
 187.5 -200 l 1
 187.5 50 l 1
 187.5 300 l 1
 156.25 300 l 1
 125 300 l 1
 125 237.5 l 1
 125 175 l 1
 93.75 175 l 1
 62.5 175 l 1
 62.5 143.75 l 1
 62.5 112.5 l 1
 31.25 112.5 l 1
 0 112.5 l 1
 0 143.75 l 1
 0 175 l 1
 31.25 175 l 1
 62.5 175 l 1
 62.5 237.5 l 1
 62.5 300 l 1
 93.75 300 l 1
 125 300 l 1
 125 362.5 l 1
 125 425 l 1
 156.25 425 l 1
 187.5 425 l 1
 187.5 456.25 l 1
 187.5 487.5 l 1
 93.75 487.5 l 1
 0 487.5 l 1
 0 518.75 l 1
 0 550 l 1
 93.75 550 l 1
 187.5 550 l 1
 187.5 675 l 1
750 581.25 m 1
 750 612.5 l 1
 656.25 612.5 l 1
 562.5 612.5 l 1
 562.5 581.25 l 1
 562.5 550 l 1
 593.75 550 l 1
 625 550 l 1
 625 518.75 l 1
 625 487.5 l 1
 656.25 487.5 l 1
 687.5 487.5 l 1
 687.5 518.75 l 1
 687.5 550 l 1
 718.75 550 l 1
 750 550 l 1
 750 581.25 l 1
375 425 m 1
 375 487.5 l 1
 312.5 487.5 l 1
 250 487.5 l 1
 250 425 l 1
 250 362.5 l 1
 281.25 362.5 l 1
 312.5 362.5 l 1
 312.5 331.25 l 1
 312.5 300 l 1
 468.75 300 l 1
 625 300 l 1
 625 331.25 l 1
 625 362.5 l 1
 593.75 362.5 l 1
 562.5 362.5 l 1
 562.5 393.75 l 1
 562.5 425 l 1
 500 425 l 1
 437.5 425 l 1
 437.5 393.75 l 1
 437.5 362.5 l 1
 406.25 362.5 l 1
 375 362.5 l 1
 375 425 l 1
EndSplineSet
EndChar

StartChar: uni8180
Encoding: 33152 33152 47
Width: 1000
VWidth: 0
Flags: H
LayerCount: 2
Fore
SplineSet
250 768.75 m 1
 250 800 l 1
 281.25 800 l 1
 312.5 800 l 1
 312.5 768.75 l 1
 312.5 737.5 l 1
 343.75 737.5 l 1
 375 737.5 l 1
 375 706.25 l 1
 375 675 l 1
 343.75 675 l 1
 312.5 675 l 1
 312.5 487.5 l 1
 312.5 300 l 1
 468.75 300 l 1
 625 300 l 1
 625 331.25 l 1
 625 362.5 l 1
 593.75 362.5 l 1
 562.5 362.5 l 1
 562.5 393.75 l 1
 562.5 425 l 1
 500 425 l 1
 437.5 425 l 1
 437.5 393.75 l 1
 437.5 362.5 l 1
 406.25 362.5 l 1
 375 362.5 l 1
 375 425 l 1
 375 487.5 l 1
 468.75 487.5 l 1
 562.5 487.5 l 1
 562.5 518.75 l 1
 562.5 550 l 1
 531.25 550 l 1
 500 550 l 1
 500 581.25 l 1
 500 612.5 l 1
 468.75 612.5 l 1
 437.5 612.5 l 1
 437.5 643.75 l 1
 437.5 675 l 1
 531.25 675 l 1
 625 675 l 1
 625 706.25 l 1
 625 737.5 l 1
 593.75 737.5 l 1
 562.5 737.5 l 1
 562.5 768.75 l 1
 562.5 800 l 1
 593.75 800 l 1
 625 800 l 1
 625 768.75 l 1
 625 737.5 l 1
 656.25 737.5 l 1
 687.5 737.5 l 1
 687.5 706.25 l 1
 687.5 675 l 1
 718.75 675 l 1
 750 675 l 1
 750 706.25 l 1
 750 737.5 l 1
 781.25 737.5 l 1
 812.5 737.5 l 1
 812.5 706.25 l 1
 812.5 675 l 1
 843.75 675 l 1
 875 675 l 1
 875 643.75 l 1
 875 612.5 l 1
 843.75 612.5 l 1
 812.5 612.5 l 1
 812.5 581.25 l 1
 812.5 550 l 1
 781.25 550 l 1
 750 550 l 1
 750 518.75 l 1
 750 487.5 l 1
 843.75 487.5 l 1
 937.5 487.5 l 1
 937.5 456.25 l 1
 937.5 425 l 1
 906.25 425 l 1
 875 425 l 1
 875 393.75 l 1
 875 362.5 l 1
 843.75 362.5 l 1
 812.5 362.5 l 1
 812.5 393.75 l 1
 812.5 425 l 1
 718.75 425 l 1
 625 425 l 1
 625 393.75 l 1
 625 362.5 l 1
 656.25 362.5 l 1
 687.5 362.5 l 1
 687.5 331.25 l 1
 687.5 300 l 1
 812.5 300 l 1
 937.5 300 l 1
 937.5 268.75 l 1
 937.5 237.5 l 1
 750 237.5 l 1
 562.5 237.5 l 1
 562.5 206.25 l 1
 562.5 175 l 1
 687.5 175 l 1
 812.5 175 l 1
 812.5 18.75 l 1
 812.5 -137.5 l 1
 781.25 -137.5 l 1
 750 -137.5 l 1
 750 -168.75 l 1
 750 -200 l 1
 718.75 -200 l 1
 687.5 -200 l 1
 687.5 -168.75 l 1
 687.5 -137.5 l 1
 656.25 -137.5 l 1
 625 -137.5 l 1
 625 -106.25 l 1
 625 -75 l 1
 656.25 -75 l 1
 687.5 -75 l 1
 687.5 -106.25 l 1
 687.5 -137.5 l 1
 718.75 -137.5 l 1
 750 -137.5 l 1
 750 -12.5 l 1
 750 112.5 l 1
 656.25 112.5 l 1
 562.5 112.5 l 1
 562.5 18.75 l 1
 562.5 -75 l 1
 531.25 -75 l 1
 500 -75 l 1
 500 -106.25 l 1
 500 -137.5 l 1
 468.75 -137.5 l 1
 437.5 -137.5 l 1
 437.5 -168.75 l 1
 437.5 -200 l 1
 406.25 -200 l 1
 375 -200 l 1
 375 -168.75 l 1
 375 -137.5 l 1
 406.25 -137.5 l 1
 437.5 -137.5 l 1
 437.5 -106.25 l 1
 437.5 -75 l 1
 468.75 -75 l 1
 500 -75 l 1
 500 81.25 l 1
 500 237.5 l 1
 406.25 237.5 l 1
 312.5 237.5 l 1
 312.5 18.75 l 1
 312.5 -200 l 1
 250 -200 l 1
 187.5 -200 l 1
 187.5 -168.75 l 1
 187.5 -137.5 l 1
 218.75 -137.5 l 1
 250 -137.5 l 1
 250 18.75 l 1
 250 175 l 1
 187.5 175 l 1
 125 175 l 1
 125 50 l 1
 125 -75 l 1
 93.75 -75 l 1
 62.5 -75 l 1
 62.5 -106.25 l 1
 62.5 -137.5 l 1
 31.25 -137.5 l 1
 0 -137.5 l 1
 0 -106.25 l 1
 0 -75 l 1
 31.25 -75 l 1
 62.5 -75 l 1
 62.5 331.25 l 1
 62.5 737.5 l 1
 156.25 737.5 l 1
 250 737.5 l 1
 250 768.75 l 1
250 581.25 m 1
 250 675 l 1
 187.5 675 l 1
 125 675 l 1
 125 581.25 l 1
 125 487.5 l 1
 187.5 487.5 l 1
 250 487.5 l 1
 250 581.25 l 1
750 581.25 m 1
 750 612.5 l 1
 656.25 612.5 l 1
 562.5 612.5 l 1
 562.5 581.25 l 1
 562.5 550 l 1
 593.75 550 l 1
 625 550 l 1
 625 518.75 l 1
 625 487.5 l 1
 656.25 487.5 l 1
 687.5 487.5 l 1
 687.5 518.75 l 1
 687.5 550 l 1
 718.75 550 l 1
 750 550 l 1
 750 581.25 l 1
250 331.25 m 1
 250 425 l 1
 187.5 425 l 1
 125 425 l 1
 125 331.25 l 1
 125 237.5 l 1
 187.5 237.5 l 1
 250 237.5 l 1
 250 331.25 l 1
EndSplineSet
EndChar

StartChar: uni7ED1
Encoding: 32465 32465 48
Width: 1000
VWidth: 0
Flags: H
LayerCount: 2
Fore
SplineSet
187.5 737.5 m 1
 187.5 800 l 1
 218.75 800 l 1
 250 800 l 1
 250 737.5 l 1
 250 675 l 1
 218.75 675 l 1
 187.5 675 l 1
 187.5 612.5 l 1
 187.5 550 l 1
 156.25 550 l 1
 125 550 l 1
 125 518.75 l 1
 125 487.5 l 1
 187.5 487.5 l 1
 250 487.5 l 1
 250 518.75 l 1
 250 550 l 1
 281.25 550 l 1
 312.5 550 l 1
 312.5 581.25 l 1
 312.5 612.5 l 1
 375 612.5 l 1
 437.5 612.5 l 1
 437.5 706.25 l 1
 437.5 800 l 1
 468.75 800 l 1
 500 800 l 1
 500 706.25 l 1
 500 612.5 l 1
 562.5 612.5 l 1
 625 612.5 l 1
 625 675 l 1
 625 737.5 l 1
 781.25 737.5 l 1
 937.5 737.5 l 1
 937.5 675 l 1
 937.5 612.5 l 1
 906.25 612.5 l 1
 875 612.5 l 1
 875 550 l 1
 875 487.5 l 1
 843.75 487.5 l 1
 812.5 487.5 l 1
 812.5 456.25 l 1
 812.5 425 l 1
 843.75 425 l 1
 875 425 l 1
 875 362.5 l 1
 875 300 l 1
 906.25 300 l 1
 937.5 300 l 1
 937.5 206.25 l 1
 937.5 112.5 l 1
 906.25 112.5 l 1
 875 112.5 l 1
 875 81.25 l 1
 875 50 l 1
 843.75 50 l 1
 812.5 50 l 1
 812.5 18.75 l 1
 812.5 -12.5 l 1
 781.25 -12.5 l 1
 750 -12.5 l 1
 750 18.75 l 1
 750 50 l 1
 718.75 50 l 1
 687.5 50 l 1
 687.5 -75 l 1
 687.5 -200 l 1
 656.25 -200 l 1
 625 -200 l 1
 625 -12.5 l 1
 625 175 l 1
 562.5 175 l 1
 500 175 l 1
 500 112.5 l 1
 500 50 l 1
 468.75 50 l 1
 437.5 50 l 1
 437.5 -12.5 l 1
 437.5 -75 l 1
 406.25 -75 l 1
 375 -75 l 1
 375 -106.25 l 1
 375 -137.5 l 1
 343.75 -137.5 l 1
 312.5 -137.5 l 1
 312.5 -106.25 l 1
 312.5 -75 l 1
 343.75 -75 l 1
 375 -75 l 1
 375 -12.5 l 1
 375 50 l 1
 406.25 50 l 1
 437.5 50 l 1
 437.5 112.5 l 1
 437.5 175 l 1
 375 175 l 1
 312.5 175 l 1
 312.5 206.25 l 1
 312.5 237.5 l 1
 218.75 237.5 l 1
 125 237.5 l 1
 125 206.25 l 1
 125 175 l 1
 93.75 175 l 1
 62.5 175 l 1
 62.5 206.25 l 1
 62.5 237.5 l 1
 31.25 237.5 l 1
 0 237.5 l 1
 0 268.75 l 1
 0 300 l 1
 31.25 300 l 1
 62.5 300 l 1
 62.5 331.25 l 1
 62.5 362.5 l 1
 93.75 362.5 l 1
 125 362.5 l 1
 125 393.75 l 1
 125 425 l 1
 62.5 425 l 1
 0 425 l 1
 0 456.25 l 1
 0 487.5 l 1
 31.25 487.5 l 1
 62.5 487.5 l 1
 62.5 518.75 l 1
 62.5 550 l 1
 93.75 550 l 1
 125 550 l 1
 125 612.5 l 1
 125 675 l 1
 156.25 675 l 1
 187.5 675 l 1
 187.5 737.5 l 1
875 643.75 m 1
 875 675 l 1
 781.25 675 l 1
 687.5 675 l 1
 687.5 393.75 l 1
 687.5 112.5 l 1
 718.75 112.5 l 1
 750 112.5 l 1
 750 81.25 l 1
 750 50 l 1
 781.25 50 l 1
 812.5 50 l 1
 812.5 81.25 l 1
 812.5 112.5 l 1
 843.75 112.5 l 1
 875 112.5 l 1
 875 206.25 l 1
 875 300 l 1
 843.75 300 l 1
 812.5 300 l 1
 812.5 362.5 l 1
 812.5 425 l 1
 781.25 425 l 1
 750 425 l 1
 750 456.25 l 1
 750 487.5 l 1
 781.25 487.5 l 1
 812.5 487.5 l 1
 812.5 550 l 1
 812.5 612.5 l 1
 843.75 612.5 l 1
 875 612.5 l 1
 875 643.75 l 1
437.5 487.5 m 1
 437.5 550 l 1
 375 550 l 1
 312.5 550 l 1
 312.5 518.75 l 1
 312.5 487.5 l 1
 281.25 487.5 l 1
 250 487.5 l 1
 250 456.25 l 1
 250 425 l 1
 218.75 425 l 1
 187.5 425 l 1
 187.5 393.75 l 1
 187.5 362.5 l 1
 156.25 362.5 l 1
 125 362.5 l 1
 125 331.25 l 1
 125 300 l 1
 218.75 300 l 1
 312.5 300 l 1
 312.5 268.75 l 1
 312.5 237.5 l 1
 375 237.5 l 1
 437.5 237.5 l 1
 437.5 300 l 1
 437.5 362.5 l 1
 375 362.5 l 1
 312.5 362.5 l 1
 312.5 393.75 l 1
 312.5 425 l 1
 375 425 l 1
 437.5 425 l 1
 437.5 487.5 l 1
625 487.5 m 1
 625 550 l 1
 562.5 550 l 1
 500 550 l 1
 500 487.5 l 1
 500 425 l 1
 562.5 425 l 1
 625 425 l 1
 625 487.5 l 1
625 300 m 1
 625 362.5 l 1
 562.5 362.5 l 1
 500 362.5 l 1
 500 300 l 1
 500 237.5 l 1
 562.5 237.5 l 1
 625 237.5 l 1
 625 300 l 1
187.5 81.25 m 1
 187.5 112.5 l 1
 250 112.5 l 1
 312.5 112.5 l 1
 312.5 81.25 l 1
 312.5 50 l 1
 250 50 l 1
 187.5 50 l 1
 187.5 18.75 l 1
 187.5 -12.5 l 1
 156.25 -12.5 l 1
 125 -12.5 l 1
 125 -43.75 l 1
 125 -75 l 1
 93.75 -75 l 1
 62.5 -75 l 1
 62.5 -43.75 l 1
 62.5 -12.5 l 1
 31.25 -12.5 l 1
 0 -12.5 l 1
 0 18.75 l 1
 0 50 l 1
 93.75 50 l 1
 187.5 50 l 1
 187.5 81.25 l 1
EndSplineSet
EndChar

StartChar: uni68D2
Encoding: 26834 26834 49
Width: 1000
VWidth: 0
Flags: H
LayerCount: 2
Fore
SplineSet
187.5 675 m 1
 187.5 800 l 1
 218.75 800 l 1
 250 800 l 1
 250 675 l 1
 250 550 l 1
 312.5 550 l 1
 375 550 l 1
 375 518.75 l 1
 375 487.5 l 1
 312.5 487.5 l 1
 250 487.5 l 1
 250 425 l 1
 250 362.5 l 1
 281.25 362.5 l 1
 312.5 362.5 l 1
 312.5 393.75 l 1
 312.5 425 l 1
 406.25 425 l 1
 500 425 l 1
 500 456.25 l 1
 500 487.5 l 1
 468.75 487.5 l 1
 437.5 487.5 l 1
 437.5 518.75 l 1
 437.5 550 l 1
 500 550 l 1
 562.5 550 l 1
 562.5 581.25 l 1
 562.5 612.5 l 1
 437.5 612.5 l 1
 312.5 612.5 l 1
 312.5 643.75 l 1
 312.5 675 l 1
 437.5 675 l 1
 562.5 675 l 1
 562.5 737.5 l 1
 562.5 800 l 1
 593.75 800 l 1
 625 800 l 1
 625 737.5 l 1
 625 675 l 1
 687.5 675 l 1
 750 675 l 1
 750 706.25 l 1
 750 737.5 l 1
 781.25 737.5 l 1
 812.5 737.5 l 1
 812.5 706.25 l 1
 812.5 675 l 1
 843.75 675 l 1
 875 675 l 1
 875 643.75 l 1
 875 612.5 l 1
 750 612.5 l 1
 625 612.5 l 1
 625 581.25 l 1
 625 550 l 1
 718.75 550 l 1
 812.5 550 l 1
 812.5 518.75 l 1
 812.5 487.5 l 1
 687.5 487.5 l 1
 562.5 487.5 l 1
 562.5 456.25 l 1
 562.5 425 l 1
 750 425 l 1
 937.5 425 l 1
 937.5 393.75 l 1
 937.5 362.5 l 1
 812.5 362.5 l 1
 687.5 362.5 l 1
 687.5 331.25 l 1
 687.5 300 l 1
 718.75 300 l 1
 750 300 l 1
 750 268.75 l 1
 750 237.5 l 1
 843.75 237.5 l 1
 937.5 237.5 l 1
 937.5 206.25 l 1
 937.5 175 l 1
 906.25 175 l 1
 875 175 l 1
 875 143.75 l 1
 875 112.5 l 1
 843.75 112.5 l 1
 812.5 112.5 l 1
 812.5 143.75 l 1
 812.5 175 l 1
 781.25 175 l 1
 750 175 l 1
 750 143.75 l 1
 750 112.5 l 1
 687.5 112.5 l 1
 625 112.5 l 1
 625 81.25 l 1
 625 50 l 1
 718.75 50 l 1
 812.5 50 l 1
 812.5 18.75 l 1
 812.5 -12.5 l 1
 718.75 -12.5 l 1
 625 -12.5 l 1
 625 -106.25 l 1
 625 -200 l 1
 593.75 -200 l 1
 562.5 -200 l 1
 562.5 -106.25 l 1
 562.5 -12.5 l 1
 468.75 -12.5 l 1
 375 -12.5 l 1
 375 18.75 l 1
 375 50 l 1
 468.75 50 l 1
 562.5 50 l 1
 562.5 81.25 l 1
 562.5 112.5 l 1
 500 112.5 l 1
 437.5 112.5 l 1
 437.5 143.75 l 1
 437.5 175 l 1
 406.25 175 l 1
 375 175 l 1
 375 143.75 l 1
 375 112.5 l 1
 343.75 112.5 l 1
 312.5 112.5 l 1
 312.5 143.75 l 1
 312.5 175 l 1
 343.75 175 l 1
 375 175 l 1
 375 206.25 l 1
 375 237.5 l 1
 343.75 237.5 l 1
 312.5 237.5 l 1
 312.5 268.75 l 1
 312.5 300 l 1
 281.25 300 l 1
 250 300 l 1
 250 50 l 1
 250 -200 l 1
 218.75 -200 l 1
 187.5 -200 l 1
 187.5 50 l 1
 187.5 300 l 1
 156.25 300 l 1
 125 300 l 1
 125 237.5 l 1
 125 175 l 1
 93.75 175 l 1
 62.5 175 l 1
 62.5 143.75 l 1
 62.5 112.5 l 1
 31.25 112.5 l 1
 0 112.5 l 1
 0 143.75 l 1
 0 175 l 1
 31.25 175 l 1
 62.5 175 l 1
 62.5 237.5 l 1
 62.5 300 l 1
 93.75 300 l 1
 125 300 l 1
 125 362.5 l 1
 125 425 l 1
 156.25 425 l 1
 187.5 425 l 1
 187.5 456.25 l 1
 187.5 487.5 l 1
 93.75 487.5 l 1
 0 487.5 l 1
 0 518.75 l 1
 0 550 l 1
 93.75 550 l 1
 187.5 550 l 1
 187.5 675 l 1
437.5 300 m 1
 437.5 362.5 l 1
 375 362.5 l 1
 312.5 362.5 l 1
 312.5 331.25 l 1
 312.5 300 l 1
 343.75 300 l 1
 375 300 l 1
 375 268.75 l 1
 375 237.5 l 1
 406.25 237.5 l 1
 437.5 237.5 l 1
 437.5 206.25 l 1
 437.5 175 l 1
 500 175 l 1
 562.5 175 l 1
 562.5 237.5 l 1
 562.5 300 l 1
 593.75 300 l 1
 625 300 l 1
 625 237.5 l 1
 625 175 l 1
 687.5 175 l 1
 750 175 l 1
 750 206.25 l 1
 750 237.5 l 1
 718.75 237.5 l 1
 687.5 237.5 l 1
 687.5 268.75 l 1
 687.5 300 l 1
 656.25 300 l 1
 625 300 l 1
 625 331.25 l 1
 625 362.5 l 1
 562.5 362.5 l 1
 500 362.5 l 1
 500 300 l 1
 500 237.5 l 1
 468.75 237.5 l 1
 437.5 237.5 l 1
 437.5 300 l 1
EndSplineSet
EndChar

StartChar: uni78C5
Encoding: 30917 30917 50
Width: 1000
VWidth: 0
Flags: H
LayerCount: 2
Fore
SplineSet
562.5 768.75 m 1
 562.5 800 l 1
 593.75 800 l 1
 625 800 l 1
 625 768.75 l 1
 625 737.5 l 1
 656.25 737.5 l 1
 687.5 737.5 l 1
 687.5 706.25 l 1
 687.5 675 l 1
 718.75 675 l 1
 750 675 l 1
 750 706.25 l 1
 750 737.5 l 1
 781.25 737.5 l 1
 812.5 737.5 l 1
 812.5 706.25 l 1
 812.5 675 l 1
 843.75 675 l 1
 875 675 l 1
 875 643.75 l 1
 875 612.5 l 1
 843.75 612.5 l 1
 812.5 612.5 l 1
 812.5 581.25 l 1
 812.5 550 l 1
 781.25 550 l 1
 750 550 l 1
 750 518.75 l 1
 750 487.5 l 1
 843.75 487.5 l 1
 937.5 487.5 l 1
 937.5 456.25 l 1
 937.5 425 l 1
 906.25 425 l 1
 875 425 l 1
 875 393.75 l 1
 875 362.5 l 1
 843.75 362.5 l 1
 812.5 362.5 l 1
 812.5 393.75 l 1
 812.5 425 l 1
 718.75 425 l 1
 625 425 l 1
 625 393.75 l 1
 625 362.5 l 1
 656.25 362.5 l 1
 687.5 362.5 l 1
 687.5 331.25 l 1
 687.5 300 l 1
 812.5 300 l 1
 937.5 300 l 1
 937.5 268.75 l 1
 937.5 237.5 l 1
 750 237.5 l 1
 562.5 237.5 l 1
 562.5 206.25 l 1
 562.5 175 l 1
 687.5 175 l 1
 812.5 175 l 1
 812.5 18.75 l 1
 812.5 -137.5 l 1
 781.25 -137.5 l 1
 750 -137.5 l 1
 750 -168.75 l 1
 750 -200 l 1
 718.75 -200 l 1
 687.5 -200 l 1
 687.5 -168.75 l 1
 687.5 -137.5 l 1
 656.25 -137.5 l 1
 625 -137.5 l 1
 625 -106.25 l 1
 625 -75 l 1
 656.25 -75 l 1
 687.5 -75 l 1
 687.5 -106.25 l 1
 687.5 -137.5 l 1
 718.75 -137.5 l 1
 750 -137.5 l 1
 750 -12.5 l 1
 750 112.5 l 1
 656.25 112.5 l 1
 562.5 112.5 l 1
 562.5 18.75 l 1
 562.5 -75 l 1
 531.25 -75 l 1
 500 -75 l 1
 500 -106.25 l 1
 500 -137.5 l 1
 468.75 -137.5 l 1
 437.5 -137.5 l 1
 437.5 -168.75 l 1
 437.5 -200 l 1
 406.25 -200 l 1
 375 -200 l 1
 375 -168.75 l 1
 375 -137.5 l 1
 343.75 -137.5 l 1
 312.5 -137.5 l 1
 312.5 -106.25 l 1
 312.5 -75 l 1
 250 -75 l 1
 187.5 -75 l 1
 187.5 -106.25 l 1
 187.5 -137.5 l 1
 156.25 -137.5 l 1
 125 -137.5 l 1
 125 50 l 1
 125 237.5 l 1
 93.75 237.5 l 1
 62.5 237.5 l 1
 62.5 206.25 l 1
 62.5 175 l 1
 31.25 175 l 1
 0 175 l 1
 0 206.25 l 1
 0 237.5 l 1
 31.25 237.5 l 1
 62.5 237.5 l 1
 62.5 268.75 l 1
 62.5 300 l 1
 93.75 300 l 1
 125 300 l 1
 125 393.75 l 1
 125 487.5 l 1
 156.25 487.5 l 1
 187.5 487.5 l 1
 187.5 550 l 1
 187.5 612.5 l 1
 93.75 612.5 l 1
 0 612.5 l 1
 0 643.75 l 1
 0 675 l 1
 125 675 l 1
 250 675 l 1
 250 706.25 l 1
 250 737.5 l 1
 281.25 737.5 l 1
 312.5 737.5 l 1
 312.5 706.25 l 1
 312.5 675 l 1
 343.75 675 l 1
 375 675 l 1
 375 643.75 l 1
 375 612.5 l 1
 312.5 612.5 l 1
 250 612.5 l 1
 250 550 l 1
 250 487.5 l 1
 218.75 487.5 l 1
 187.5 487.5 l 1
 187.5 425 l 1
 187.5 362.5 l 1
 281.25 362.5 l 1
 375 362.5 l 1
 375 425 l 1
 375 487.5 l 1
 468.75 487.5 l 1
 562.5 487.5 l 1
 562.5 518.75 l 1
 562.5 550 l 1
 531.25 550 l 1
 500 550 l 1
 500 581.25 l 1
 500 612.5 l 1
 468.75 612.5 l 1
 437.5 612.5 l 1
 437.5 643.75 l 1
 437.5 675 l 1
 531.25 675 l 1
 625 675 l 1
 625 706.25 l 1
 625 737.5 l 1
 593.75 737.5 l 1
 562.5 737.5 l 1
 562.5 768.75 l 1
750 581.25 m 1
 750 612.5 l 1
 656.25 612.5 l 1
 562.5 612.5 l 1
 562.5 581.25 l 1
 562.5 550 l 1
 593.75 550 l 1
 625 550 l 1
 625 518.75 l 1
 625 487.5 l 1
 656.25 487.5 l 1
 687.5 487.5 l 1
 687.5 518.75 l 1
 687.5 550 l 1
 718.75 550 l 1
 750 550 l 1
 750 581.25 l 1
562.5 393.75 m 1
 562.5 425 l 1
 500 425 l 1
 437.5 425 l 1
 437.5 393.75 l 1
 437.5 362.5 l 1
 406.25 362.5 l 1
 375 362.5 l 1
 375 331.25 l 1
 375 300 l 1
 500 300 l 1
 625 300 l 1
 625 331.25 l 1
 625 362.5 l 1
 593.75 362.5 l 1
 562.5 362.5 l 1
 562.5 393.75 l 1
312.5 143.75 m 1
 312.5 300 l 1
 250 300 l 1
 187.5 300 l 1
 187.5 143.75 l 1
 187.5 -12.5 l 1
 250 -12.5 l 1
 312.5 -12.5 l 1
 312.5 143.75 l 1
500 81.25 m 1
 500 237.5 l 1
 437.5 237.5 l 1
 375 237.5 l 1
 375 50 l 1
 375 -137.5 l 1
 406.25 -137.5 l 1
 437.5 -137.5 l 1
 437.5 -106.25 l 1
 437.5 -75 l 1
 468.75 -75 l 1
 500 -75 l 1
 500 81.25 l 1
EndSplineSet
EndChar

StartChar: uni868C
Encoding: 34444 34444 51
Width: 1000
VWidth: 0
Flags: H
LayerCount: 2
Fore
SplineSet
187.5 675 m 1
 187.5 800 l 1
 218.75 800 l 1
 250 800 l 1
 250 675 l 1
 250 550 l 1
 281.25 550 l 1
 312.5 550 l 1
 312.5 581.25 l 1
 312.5 612.5 l 1
 343.75 612.5 l 1
 375 612.5 l 1
 375 581.25 l 1
 375 550 l 1
 500 550 l 1
 625 550 l 1
 625 675 l 1
 625 800 l 1
 656.25 800 l 1
 687.5 800 l 1
 687.5 675 l 1
 687.5 550 l 1
 718.75 550 l 1
 750 550 l 1
 750 581.25 l 1
 750 612.5 l 1
 781.25 612.5 l 1
 812.5 612.5 l 1
 812.5 581.25 l 1
 812.5 550 l 1
 843.75 550 l 1
 875 550 l 1
 875 518.75 l 1
 875 487.5 l 1
 781.25 487.5 l 1
 687.5 487.5 l 1
 687.5 425 l 1
 687.5 362.5 l 1
 718.75 362.5 l 1
 750 362.5 l 1
 750 393.75 l 1
 750 425 l 1
 781.25 425 l 1
 812.5 425 l 1
 812.5 393.75 l 1
 812.5 362.5 l 1
 843.75 362.5 l 1
 875 362.5 l 1
 875 331.25 l 1
 875 300 l 1
 781.25 300 l 1
 687.5 300 l 1
 687.5 237.5 l 1
 687.5 175 l 1
 750 175 l 1
 812.5 175 l 1
 812.5 206.25 l 1
 812.5 237.5 l 1
 843.75 237.5 l 1
 875 237.5 l 1
 875 206.25 l 1
 875 175 l 1
 906.25 175 l 1
 937.5 175 l 1
 937.5 143.75 l 1
 937.5 112.5 l 1
 812.5 112.5 l 1
 687.5 112.5 l 1
 687.5 -43.75 l 1
 687.5 -200 l 1
 656.25 -200 l 1
 625 -200 l 1
 625 -43.75 l 1
 625 112.5 l 1
 500 112.5 l 1
 375 112.5 l 1
 375 18.75 l 1
 375 -75 l 1
 343.75 -75 l 1
 312.5 -75 l 1
 312.5 -43.75 l 1
 312.5 -12.5 l 1
 250 -12.5 l 1
 187.5 -12.5 l 1
 187.5 -43.75 l 1
 187.5 -75 l 1
 156.25 -75 l 1
 125 -75 l 1
 125 -106.25 l 1
 125 -137.5 l 1
 93.75 -137.5 l 1
 62.5 -137.5 l 1
 62.5 -106.25 l 1
 62.5 -75 l 1
 31.25 -75 l 1
 0 -75 l 1
 0 -43.75 l 1
 0 -12.5 l 1
 93.75 -12.5 l 1
 187.5 -12.5 l 1
 187.5 81.25 l 1
 187.5 175 l 1
 125 175 l 1
 62.5 175 l 1
 62.5 362.5 l 1
 62.5 550 l 1
 125 550 l 1
 187.5 550 l 1
 187.5 675 l 1
187.5 362.5 m 1
 187.5 487.5 l 1
 156.25 487.5 l 1
 125 487.5 l 1
 125 362.5 l 1
 125 237.5 l 1
 156.25 237.5 l 1
 187.5 237.5 l 1
 187.5 362.5 l 1
312.5 362.5 m 1
 312.5 487.5 l 1
 281.25 487.5 l 1
 250 487.5 l 1
 250 362.5 l 1
 250 237.5 l 1
 281.25 237.5 l 1
 312.5 237.5 l 1
 312.5 362.5 l 1
625 425 m 1
 625 487.5 l 1
 500 487.5 l 1
 375 487.5 l 1
 375 331.25 l 1
 375 175 l 1
 312.5 175 l 1
 250 175 l 1
 250 112.5 l 1
 250 50 l 1
 281.25 50 l 1
 312.5 50 l 1
 312.5 81.25 l 1
 312.5 112.5 l 1
 343.75 112.5 l 1
 375 112.5 l 1
 375 143.75 l 1
 375 175 l 1
 500 175 l 1
 625 175 l 1
 625 237.5 l 1
 625 300 l 1
 531.25 300 l 1
 437.5 300 l 1
 437.5 331.25 l 1
 437.5 362.5 l 1
 531.25 362.5 l 1
 625 362.5 l 1
 625 425 l 1
EndSplineSet
EndChar

StartChar: uni9551
Encoding: 38225 38225 52
Width: 1000
VWidth: 0
Flags: H
LayerCount: 2
Fore
SplineSet
187.5 675 m 1
 187.5 800 l 1
 218.75 800 l 1
 250 800 l 1
 250 706.25 l 1
 250 612.5 l 1
 312.5 612.5 l 1
 375 612.5 l 1
 375 581.25 l 1
 375 550 l 1
 281.25 550 l 1
 187.5 550 l 1
 187.5 487.5 l 1
 187.5 425 l 1
 281.25 425 l 1
 375 425 l 1
 375 456.25 l 1
 375 487.5 l 1
 468.75 487.5 l 1
 562.5 487.5 l 1
 562.5 518.75 l 1
 562.5 550 l 1
 531.25 550 l 1
 500 550 l 1
 500 581.25 l 1
 500 612.5 l 1
 468.75 612.5 l 1
 437.5 612.5 l 1
 437.5 643.75 l 1
 437.5 675 l 1
 531.25 675 l 1
 625 675 l 1
 625 706.25 l 1
 625 737.5 l 1
 593.75 737.5 l 1
 562.5 737.5 l 1
 562.5 768.75 l 1
 562.5 800 l 1
 593.75 800 l 1
 625 800 l 1
 625 768.75 l 1
 625 737.5 l 1
 656.25 737.5 l 1
 687.5 737.5 l 1
 687.5 706.25 l 1
 687.5 675 l 1
 718.75 675 l 1
 750 675 l 1
 750 706.25 l 1
 750 737.5 l 1
 781.25 737.5 l 1
 812.5 737.5 l 1
 812.5 706.25 l 1
 812.5 675 l 1
 843.75 675 l 1
 875 675 l 1
 875 643.75 l 1
 875 612.5 l 1
 843.75 612.5 l 1
 812.5 612.5 l 1
 812.5 581.25 l 1
 812.5 550 l 1
 781.25 550 l 1
 750 550 l 1
 750 518.75 l 1
 750 487.5 l 1
 843.75 487.5 l 1
 937.5 487.5 l 1
 937.5 456.25 l 1
 937.5 425 l 1
 906.25 425 l 1
 875 425 l 1
 875 393.75 l 1
 875 362.5 l 1
 843.75 362.5 l 1
 812.5 362.5 l 1
 812.5 393.75 l 1
 812.5 425 l 1
 718.75 425 l 1
 625 425 l 1
 625 393.75 l 1
 625 362.5 l 1
 656.25 362.5 l 1
 687.5 362.5 l 1
 687.5 331.25 l 1
 687.5 300 l 1
 812.5 300 l 1
 937.5 300 l 1
 937.5 268.75 l 1
 937.5 237.5 l 1
 750 237.5 l 1
 562.5 237.5 l 1
 562.5 206.25 l 1
 562.5 175 l 1
 687.5 175 l 1
 812.5 175 l 1
 812.5 18.75 l 1
 812.5 -137.5 l 1
 781.25 -137.5 l 1
 750 -137.5 l 1
 750 -168.75 l 1
 750 -200 l 1
 718.75 -200 l 1
 687.5 -200 l 1
 687.5 -168.75 l 1
 687.5 -137.5 l 1
 656.25 -137.5 l 1
 625 -137.5 l 1
 625 -106.25 l 1
 625 -75 l 1
 656.25 -75 l 1
 687.5 -75 l 1
 687.5 -106.25 l 1
 687.5 -137.5 l 1
 718.75 -137.5 l 1
 750 -137.5 l 1
 750 -12.5 l 1
 750 112.5 l 1
 656.25 112.5 l 1
 562.5 112.5 l 1
 562.5 18.75 l 1
 562.5 -75 l 1
 531.25 -75 l 1
 500 -75 l 1
 500 -106.25 l 1
 500 -137.5 l 1
 468.75 -137.5 l 1
 437.5 -137.5 l 1
 437.5 -168.75 l 1
 437.5 -200 l 1
 406.25 -200 l 1
 375 -200 l 1
 375 -168.75 l 1
 375 -137.5 l 1
 406.25 -137.5 l 1
 437.5 -137.5 l 1
 437.5 -106.25 l 1
 437.5 -75 l 1
 468.75 -75 l 1
 500 -75 l 1
 500 81.25 l 1
 500 237.5 l 1
 437.5 237.5 l 1
 375 237.5 l 1
 375 206.25 l 1
 375 175 l 1
 312.5 175 l 1
 250 175 l 1
 250 81.25 l 1
 250 -12.5 l 1
 281.25 -12.5 l 1
 312.5 -12.5 l 1
 312.5 18.75 l 1
 312.5 50 l 1
 343.75 50 l 1
 375 50 l 1
 375 18.75 l 1
 375 -12.5 l 1
 343.75 -12.5 l 1
 312.5 -12.5 l 1
 312.5 -43.75 l 1
 312.5 -75 l 1
 281.25 -75 l 1
 250 -75 l 1
 250 -106.25 l 1
 250 -137.5 l 1
 218.75 -137.5 l 1
 187.5 -137.5 l 1
 187.5 18.75 l 1
 187.5 175 l 1
 125 175 l 1
 62.5 175 l 1
 62.5 206.25 l 1
 62.5 237.5 l 1
 125 237.5 l 1
 187.5 237.5 l 1
 187.5 300 l 1
 187.5 362.5 l 1
 125 362.5 l 1
 62.5 362.5 l 1
 62.5 331.25 l 1
 62.5 300 l 1
 31.25 300 l 1
 0 300 l 1
 0 331.25 l 1
 0 362.5 l 1
 31.25 362.5 l 1
 62.5 362.5 l 1
 62.5 393.75 l 1
 62.5 425 l 1
 93.75 425 l 1
 125 425 l 1
 125 487.5 l 1
 125 550 l 1
 156.25 550 l 1
 187.5 550 l 1
 187.5 675 l 1
750 581.25 m 1
 750 612.5 l 1
 656.25 612.5 l 1
 562.5 612.5 l 1
 562.5 581.25 l 1
 562.5 550 l 1
 593.75 550 l 1
 625 550 l 1
 625 518.75 l 1
 625 487.5 l 1
 656.25 487.5 l 1
 687.5 487.5 l 1
 687.5 518.75 l 1
 687.5 550 l 1
 718.75 550 l 1
 750 550 l 1
 750 581.25 l 1
562.5 393.75 m 1
 562.5 425 l 1
 500 425 l 1
 437.5 425 l 1
 437.5 393.75 l 1
 437.5 362.5 l 1
 343.75 362.5 l 1
 250 362.5 l 1
 250 300 l 1
 250 237.5 l 1
 312.5 237.5 l 1
 375 237.5 l 1
 375 268.75 l 1
 375 300 l 1
 500 300 l 1
 625 300 l 1
 625 331.25 l 1
 625 362.5 l 1
 593.75 362.5 l 1
 562.5 362.5 l 1
 562.5 393.75 l 1
EndSplineSet
EndChar

StartChar: uni508D
Encoding: 20621 20621 53
Width: 1000
VWidth: 0
Flags: H
LayerCount: 2
Fore
SplineSet
250 706.25 m 1
 250 800 l 1
 281.25 800 l 1
 312.5 800 l 1
 312.5 706.25 l 1
 312.5 612.5 l 1
 281.25 612.5 l 1
 250 612.5 l 1
 250 456.25 l 1
 250 300 l 1
 406.25 300 l 1
 562.5 300 l 1
 562.5 331.25 l 1
 562.5 362.5 l 1
 531.25 362.5 l 1
 500 362.5 l 1
 500 393.75 l 1
 500 425 l 1
 437.5 425 l 1
 375 425 l 1
 375 393.75 l 1
 375 362.5 l 1
 343.75 362.5 l 1
 312.5 362.5 l 1
 312.5 425 l 1
 312.5 487.5 l 1
 406.25 487.5 l 1
 500 487.5 l 1
 500 518.75 l 1
 500 550 l 1
 468.75 550 l 1
 437.5 550 l 1
 437.5 581.25 l 1
 437.5 612.5 l 1
 406.25 612.5 l 1
 375 612.5 l 1
 375 643.75 l 1
 375 675 l 1
 468.75 675 l 1
 562.5 675 l 1
 562.5 706.25 l 1
 562.5 737.5 l 1
 531.25 737.5 l 1
 500 737.5 l 1
 500 768.75 l 1
 500 800 l 1
 531.25 800 l 1
 562.5 800 l 1
 562.5 768.75 l 1
 562.5 737.5 l 1
 593.75 737.5 l 1
 625 737.5 l 1
 625 706.25 l 1
 625 675 l 1
 656.25 675 l 1
 687.5 675 l 1
 687.5 706.25 l 1
 687.5 737.5 l 1
 718.75 737.5 l 1
 750 737.5 l 1
 750 706.25 l 1
 750 675 l 1
 781.25 675 l 1
 812.5 675 l 1
 812.5 643.75 l 1
 812.5 612.5 l 1
 781.25 612.5 l 1
 750 612.5 l 1
 750 581.25 l 1
 750 550 l 1
 718.75 550 l 1
 687.5 550 l 1
 687.5 518.75 l 1
 687.5 487.5 l 1
 781.25 487.5 l 1
 875 487.5 l 1
 875 456.25 l 1
 875 425 l 1
 843.75 425 l 1
 812.5 425 l 1
 812.5 393.75 l 1
 812.5 362.5 l 1
 781.25 362.5 l 1
 750 362.5 l 1
 750 393.75 l 1
 750 425 l 1
 656.25 425 l 1
 562.5 425 l 1
 562.5 393.75 l 1
 562.5 362.5 l 1
 593.75 362.5 l 1
 625 362.5 l 1
 625 331.25 l 1
 625 300 l 1
 781.25 300 l 1
 937.5 300 l 1
 937.5 268.75 l 1
 937.5 237.5 l 1
 718.75 237.5 l 1
 500 237.5 l 1
 500 206.25 l 1
 500 175 l 1
 625 175 l 1
 750 175 l 1
 750 18.75 l 1
 750 -137.5 l 1
 718.75 -137.5 l 1
 687.5 -137.5 l 1
 687.5 -168.75 l 1
 687.5 -200 l 1
 656.25 -200 l 1
 625 -200 l 1
 625 -168.75 l 1
 625 -137.5 l 1
 593.75 -137.5 l 1
 562.5 -137.5 l 1
 562.5 -106.25 l 1
 562.5 -75 l 1
 593.75 -75 l 1
 625 -75 l 1
 625 -106.25 l 1
 625 -137.5 l 1
 656.25 -137.5 l 1
 687.5 -137.5 l 1
 687.5 -12.5 l 1
 687.5 112.5 l 1
 593.75 112.5 l 1
 500 112.5 l 1
 500 18.75 l 1
 500 -75 l 1
 468.75 -75 l 1
 437.5 -75 l 1
 437.5 -106.25 l 1
 437.5 -137.5 l 1
 406.25 -137.5 l 1
 375 -137.5 l 1
 375 -168.75 l 1
 375 -200 l 1
 343.75 -200 l 1
 312.5 -200 l 1
 312.5 -168.75 l 1
 312.5 -137.5 l 1
 343.75 -137.5 l 1
 375 -137.5 l 1
 375 -106.25 l 1
 375 -75 l 1
 406.25 -75 l 1
 437.5 -75 l 1
 437.5 81.25 l 1
 437.5 237.5 l 1
 343.75 237.5 l 1
 250 237.5 l 1
 250 18.75 l 1
 250 -200 l 1
 218.75 -200 l 1
 187.5 -200 l 1
 187.5 112.5 l 1
 187.5 425 l 1
 156.25 425 l 1
 125 425 l 1
 125 393.75 l 1
 125 362.5 l 1
 93.75 362.5 l 1
 62.5 362.5 l 1
 62.5 331.25 l 1
 62.5 300 l 1
 31.25 300 l 1
 0 300 l 1
 0 331.25 l 1
 0 362.5 l 1
 31.25 362.5 l 1
 62.5 362.5 l 1
 62.5 393.75 l 1
 62.5 425 l 1
 93.75 425 l 1
 125 425 l 1
 125 456.25 l 1
 125 487.5 l 1
 156.25 487.5 l 1
 187.5 487.5 l 1
 187.5 550 l 1
 187.5 612.5 l 1
 218.75 612.5 l 1
 250 612.5 l 1
 250 706.25 l 1
687.5 581.25 m 1
 687.5 612.5 l 1
 593.75 612.5 l 1
 500 612.5 l 1
 500 581.25 l 1
 500 550 l 1
 531.25 550 l 1
 562.5 550 l 1
 562.5 518.75 l 1
 562.5 487.5 l 1
 593.75 487.5 l 1
 625 487.5 l 1
 625 518.75 l 1
 625 550 l 1
 656.25 550 l 1
 687.5 550 l 1
 687.5 581.25 l 1
EndSplineSet
EndChar

StartChar: uni8C24
Encoding: 35876 35876 54
Width: 1000
VWidth: 0
Flags: H
LayerCount: 2
Fore
SplineSet
500 768.75 m 1
 500 800 l 1
 531.25 800 l 1
 562.5 800 l 1
 562.5 768.75 l 1
 562.5 737.5 l 1
 593.75 737.5 l 1
 625 737.5 l 1
 625 706.25 l 1
 625 675 l 1
 687.5 675 l 1
 750 675 l 1
 750 706.25 l 1
 750 737.5 l 1
 781.25 737.5 l 1
 812.5 737.5 l 1
 812.5 706.25 l 1
 812.5 675 l 1
 843.75 675 l 1
 875 675 l 1
 875 643.75 l 1
 875 612.5 l 1
 812.5 612.5 l 1
 750 612.5 l 1
 750 581.25 l 1
 750 550 l 1
 718.75 550 l 1
 687.5 550 l 1
 687.5 518.75 l 1
 687.5 487.5 l 1
 812.5 487.5 l 1
 937.5 487.5 l 1
 937.5 456.25 l 1
 937.5 425 l 1
 906.25 425 l 1
 875 425 l 1
 875 393.75 l 1
 875 362.5 l 1
 843.75 362.5 l 1
 812.5 362.5 l 1
 812.5 393.75 l 1
 812.5 425 l 1
 687.5 425 l 1
 562.5 425 l 1
 562.5 393.75 l 1
 562.5 362.5 l 1
 593.75 362.5 l 1
 625 362.5 l 1
 625 331.25 l 1
 625 300 l 1
 781.25 300 l 1
 937.5 300 l 1
 937.5 268.75 l 1
 937.5 237.5 l 1
 718.75 237.5 l 1
 500 237.5 l 1
 500 206.25 l 1
 500 175 l 1
 625 175 l 1
 750 175 l 1
 750 18.75 l 1
 750 -137.5 l 1
 718.75 -137.5 l 1
 687.5 -137.5 l 1
 687.5 -168.75 l 1
 687.5 -200 l 1
 656.25 -200 l 1
 625 -200 l 1
 625 -168.75 l 1
 625 -137.5 l 1
 593.75 -137.5 l 1
 562.5 -137.5 l 1
 562.5 -106.25 l 1
 562.5 -75 l 1
 593.75 -75 l 1
 625 -75 l 1
 625 -106.25 l 1
 625 -137.5 l 1
 656.25 -137.5 l 1
 687.5 -137.5 l 1
 687.5 -12.5 l 1
 687.5 112.5 l 1
 593.75 112.5 l 1
 500 112.5 l 1
 500 18.75 l 1
 500 -75 l 1
 468.75 -75 l 1
 437.5 -75 l 1
 437.5 -106.25 l 1
 437.5 -137.5 l 1
 406.25 -137.5 l 1
 375 -137.5 l 1
 375 -168.75 l 1
 375 -200 l 1
 343.75 -200 l 1
 312.5 -200 l 1
 312.5 -168.75 l 1
 312.5 -137.5 l 1
 343.75 -137.5 l 1
 375 -137.5 l 1
 375 -106.25 l 1
 375 -75 l 1
 406.25 -75 l 1
 437.5 -75 l 1
 437.5 81.25 l 1
 437.5 237.5 l 1
 343.75 237.5 l 1
 250 237.5 l 1
 250 268.75 l 1
 250 300 l 1
 406.25 300 l 1
 562.5 300 l 1
 562.5 331.25 l 1
 562.5 362.5 l 1
 531.25 362.5 l 1
 500 362.5 l 1
 500 393.75 l 1
 500 425 l 1
 406.25 425 l 1
 312.5 425 l 1
 312.5 393.75 l 1
 312.5 362.5 l 1
 281.25 362.5 l 1
 250 362.5 l 1
 250 425 l 1
 250 487.5 l 1
 375 487.5 l 1
 500 487.5 l 1
 500 518.75 l 1
 500 550 l 1
 468.75 550 l 1
 437.5 550 l 1
 437.5 581.25 l 1
 437.5 612.5 l 1
 375 612.5 l 1
 312.5 612.5 l 1
 312.5 643.75 l 1
 312.5 675 l 1
 437.5 675 l 1
 562.5 675 l 1
 562.5 706.25 l 1
 562.5 737.5 l 1
 531.25 737.5 l 1
 500 737.5 l 1
 500 768.75 l 1
687.5 581.25 m 1
 687.5 612.5 l 1
 593.75 612.5 l 1
 500 612.5 l 1
 500 581.25 l 1
 500 550 l 1
 531.25 550 l 1
 562.5 550 l 1
 562.5 518.75 l 1
 562.5 487.5 l 1
 593.75 487.5 l 1
 625 487.5 l 1
 625 518.75 l 1
 625 550 l 1
 656.25 550 l 1
 687.5 550 l 1
 687.5 581.25 l 1
62.5 706.25 m 1
 62.5 737.5 l 1
 93.75 737.5 l 1
 125 737.5 l 1
 125 706.25 l 1
 125 675 l 1
 187.5 675 l 1
 250 675 l 1
 250 612.5 l 1
 250 550 l 1
 218.75 550 l 1
 187.5 550 l 1
 187.5 581.25 l 1
 187.5 612.5 l 1
 156.25 612.5 l 1
 125 612.5 l 1
 125 643.75 l 1
 125 675 l 1
 93.75 675 l 1
 62.5 675 l 1
 62.5 706.25 l 1
0 393.75 m 1
 0 425 l 1
 93.75 425 l 1
 187.5 425 l 1
 187.5 206.25 l 1
 187.5 -12.5 l 1
 218.75 -12.5 l 1
 250 -12.5 l 1
 250 18.75 l 1
 250 50 l 1
 281.25 50 l 1
 312.5 50 l 1
 312.5 18.75 l 1
 312.5 -12.5 l 1
 281.25 -12.5 l 1
 250 -12.5 l 1
 250 -43.75 l 1
 250 -75 l 1
 218.75 -75 l 1
 187.5 -75 l 1
 187.5 -106.25 l 1
 187.5 -137.5 l 1
 156.25 -137.5 l 1
 125 -137.5 l 1
 125 112.5 l 1
 125 362.5 l 1
 62.5 362.5 l 1
 0 362.5 l 1
 0 393.75 l 1
EndSplineSet
EndChar

StartChar: uni82DE
Encoding: 33502 33502 55
Width: 1000
VWidth: 0
Flags: H
LayerCount: 2
Fore
SplineSet
312.5 737.5 m 1
 312.5 800 l 1
 343.75 800 l 1
 375 800 l 1
 375 737.5 l 1
 375 675 l 1
 468.75 675 l 1
 562.5 675 l 1
 562.5 737.5 l 1
 562.5 800 l 1
 593.75 800 l 1
 625 800 l 1
 625 737.5 l 1
 625 675 l 1
 718.75 675 l 1
 812.5 675 l 1
 812.5 706.25 l 1
 812.5 737.5 l 1
 843.75 737.5 l 1
 875 737.5 l 1
 875 706.25 l 1
 875 675 l 1
 906.25 675 l 1
 937.5 675 l 1
 937.5 643.75 l 1
 937.5 612.5 l 1
 781.25 612.5 l 1
 625 612.5 l 1
 625 581.25 l 1
 625 550 l 1
 593.75 550 l 1
 562.5 550 l 1
 562.5 581.25 l 1
 562.5 612.5 l 1
 468.75 612.5 l 1
 375 612.5 l 1
 375 550 l 1
 375 487.5 l 1
 531.25 487.5 l 1
 687.5 487.5 l 1
 687.5 518.75 l 1
 687.5 550 l 1
 718.75 550 l 1
 750 550 l 1
 750 518.75 l 1
 750 487.5 l 1
 781.25 487.5 l 1
 812.5 487.5 l 1
 812.5 456.25 l 1
 812.5 425 l 1
 781.25 425 l 1
 750 425 l 1
 750 237.5 l 1
 750 50 l 1
 687.5 50 l 1
 625 50 l 1
 625 81.25 l 1
 625 112.5 l 1
 656.25 112.5 l 1
 687.5 112.5 l 1
 687.5 268.75 l 1
 687.5 425 l 1
 468.75 425 l 1
 250 425 l 1
 250 393.75 l 1
 250 362.5 l 1
 406.25 362.5 l 1
 562.5 362.5 l 1
 562.5 237.5 l 1
 562.5 112.5 l 1
 437.5 112.5 l 1
 312.5 112.5 l 1
 312.5 18.75 l 1
 312.5 -75 l 1
 562.5 -75 l 1
 812.5 -75 l 1
 812.5 -12.5 l 1
 812.5 50 l 1
 843.75 50 l 1
 875 50 l 1
 875 -43.75 l 1
 875 -137.5 l 1
 593.75 -137.5 l 1
 312.5 -137.5 l 1
 312.5 -106.25 l 1
 312.5 -75 l 1
 281.25 -75 l 1
 250 -75 l 1
 250 143.75 l 1
 250 362.5 l 1
 218.75 362.5 l 1
 187.5 362.5 l 1
 187.5 331.25 l 1
 187.5 300 l 1
 156.25 300 l 1
 125 300 l 1
 125 268.75 l 1
 125 237.5 l 1
 93.75 237.5 l 1
 62.5 237.5 l 1
 62.5 268.75 l 1
 62.5 300 l 1
 93.75 300 l 1
 125 300 l 1
 125 331.25 l 1
 125 362.5 l 1
 156.25 362.5 l 1
 187.5 362.5 l 1
 187.5 393.75 l 1
 187.5 425 l 1
 218.75 425 l 1
 250 425 l 1
 250 456.25 l 1
 250 487.5 l 1
 281.25 487.5 l 1
 312.5 487.5 l 1
 312.5 550 l 1
 312.5 612.5 l 1
 156.25 612.5 l 1
 0 612.5 l 1
 0 643.75 l 1
 0 675 l 1
 156.25 675 l 1
 312.5 675 l 1
 312.5 737.5 l 1
500 237.5 m 1
 500 300 l 1
 406.25 300 l 1
 312.5 300 l 1
 312.5 237.5 l 1
 312.5 175 l 1
 406.25 175 l 1
 500 175 l 1
 500 237.5 l 1
EndSplineSet
EndChar

StartChar: uni80DE
Encoding: 32990 32990 56
Width: 1000
VWidth: 0
Flags: H
LayerCount: 2
Fore
SplineSet
312.5 768.75 m 1
 312.5 800 l 1
 343.75 800 l 1
 375 800 l 1
 375 768.75 l 1
 375 737.5 l 1
 406.25 737.5 l 1
 437.5 737.5 l 1
 437.5 706.25 l 1
 437.5 675 l 1
 406.25 675 l 1
 375 675 l 1
 375 612.5 l 1
 375 550 l 1
 406.25 550 l 1
 437.5 550 l 1
 437.5 581.25 l 1
 437.5 612.5 l 1
 468.75 612.5 l 1
 500 612.5 l 1
 500 706.25 l 1
 500 800 l 1
 531.25 800 l 1
 562.5 800 l 1
 562.5 737.5 l 1
 562.5 675 l 1
 656.25 675 l 1
 750 675 l 1
 750 706.25 l 1
 750 737.5 l 1
 781.25 737.5 l 1
 812.5 737.5 l 1
 812.5 706.25 l 1
 812.5 675 l 1
 843.75 675 l 1
 875 675 l 1
 875 643.75 l 1
 875 612.5 l 1
 843.75 612.5 l 1
 812.5 612.5 l 1
 812.5 362.5 l 1
 812.5 112.5 l 1
 781.25 112.5 l 1
 750 112.5 l 1
 750 81.25 l 1
 750 50 l 1
 718.75 50 l 1
 687.5 50 l 1
 687.5 81.25 l 1
 687.5 112.5 l 1
 656.25 112.5 l 1
 625 112.5 l 1
 625 143.75 l 1
 625 175 l 1
 562.5 175 l 1
 500 175 l 1
 500 50 l 1
 500 -75 l 1
 687.5 -75 l 1
 875 -75 l 1
 875 -12.5 l 1
 875 50 l 1
 906.25 50 l 1
 937.5 50 l 1
 937.5 -43.75 l 1
 937.5 -137.5 l 1
 718.75 -137.5 l 1
 500 -137.5 l 1
 500 -106.25 l 1
 500 -75 l 1
 468.75 -75 l 1
 437.5 -75 l 1
 437.5 206.25 l 1
 437.5 487.5 l 1
 406.25 487.5 l 1
 375 487.5 l 1
 375 175 l 1
 375 -137.5 l 1
 343.75 -137.5 l 1
 312.5 -137.5 l 1
 312.5 -168.75 l 1
 312.5 -200 l 1
 281.25 -200 l 1
 250 -200 l 1
 250 -168.75 l 1
 250 -137.5 l 1
 218.75 -137.5 l 1
 187.5 -137.5 l 1
 187.5 -106.25 l 1
 187.5 -75 l 1
 218.75 -75 l 1
 250 -75 l 1
 250 -106.25 l 1
 250 -137.5 l 1
 281.25 -137.5 l 1
 312.5 -137.5 l 1
 312.5 18.75 l 1
 312.5 175 l 1
 250 175 l 1
 187.5 175 l 1
 187.5 81.25 l 1
 187.5 -12.5 l 1
 156.25 -12.5 l 1
 125 -12.5 l 1
 125 -43.75 l 1
 125 -75 l 1
 93.75 -75 l 1
 62.5 -75 l 1
 62.5 -106.25 l 1
 62.5 -137.5 l 1
 31.25 -137.5 l 1
 0 -137.5 l 1
 0 -106.25 l 1
 0 -75 l 1
 31.25 -75 l 1
 62.5 -75 l 1
 62.5 -43.75 l 1
 62.5 -12.5 l 1
 93.75 -12.5 l 1
 125 -12.5 l 1
 125 362.5 l 1
 125 737.5 l 1
 218.75 737.5 l 1
 312.5 737.5 l 1
 312.5 768.75 l 1
312.5 581.25 m 1
 312.5 675 l 1
 250 675 l 1
 187.5 675 l 1
 187.5 581.25 l 1
 187.5 487.5 l 1
 250 487.5 l 1
 312.5 487.5 l 1
 312.5 581.25 l 1
750 550 m 1
 750 612.5 l 1
 625 612.5 l 1
 500 612.5 l 1
 500 581.25 l 1
 500 550 l 1
 468.75 550 l 1
 437.5 550 l 1
 437.5 518.75 l 1
 437.5 487.5 l 1
 531.25 487.5 l 1
 625 487.5 l 1
 625 518.75 l 1
 625 550 l 1
 656.25 550 l 1
 687.5 550 l 1
 687.5 518.75 l 1
 687.5 487.5 l 1
 718.75 487.5 l 1
 750 487.5 l 1
 750 550 l 1
312.5 331.25 m 1
 312.5 425 l 1
 250 425 l 1
 187.5 425 l 1
 187.5 331.25 l 1
 187.5 237.5 l 1
 250 237.5 l 1
 312.5 237.5 l 1
 312.5 331.25 l 1
625 331.25 m 1
 625 425 l 1
 562.5 425 l 1
 500 425 l 1
 500 331.25 l 1
 500 237.5 l 1
 562.5 237.5 l 1
 625 237.5 l 1
 625 331.25 l 1
750 268.75 m 1
 750 425 l 1
 718.75 425 l 1
 687.5 425 l 1
 687.5 268.75 l 1
 687.5 112.5 l 1
 718.75 112.5 l 1
 750 112.5 l 1
 750 268.75 l 1
EndSplineSet
EndChar

StartChar: uni5305
Encoding: 21253 21253 57
Width: 1000
VWidth: 0
Flags: H
LayerCount: 2
Fore
SplineSet
312.5 706.25 m 1
 312.5 800 l 1
 343.75 800 l 1
 375 800 l 1
 375 706.25 l 1
 375 612.5 l 1
 531.25 612.5 l 1
 687.5 612.5 l 1
 687.5 643.75 l 1
 687.5 675 l 1
 718.75 675 l 1
 750 675 l 1
 750 643.75 l 1
 750 612.5 l 1
 781.25 612.5 l 1
 812.5 612.5 l 1
 812.5 581.25 l 1
 812.5 550 l 1
 781.25 550 l 1
 750 550 l 1
 750 300 l 1
 750 50 l 1
 687.5 50 l 1
 625 50 l 1
 625 81.25 l 1
 625 112.5 l 1
 656.25 112.5 l 1
 687.5 112.5 l 1
 687.5 331.25 l 1
 687.5 550 l 1
 468.75 550 l 1
 250 550 l 1
 250 518.75 l 1
 250 487.5 l 1
 218.75 487.5 l 1
 187.5 487.5 l 1
 187.5 456.25 l 1
 187.5 425 l 1
 343.75 425 l 1
 500 425 l 1
 500 456.25 l 1
 500 487.5 l 1
 531.25 487.5 l 1
 562.5 487.5 l 1
 562.5 456.25 l 1
 562.5 425 l 1
 593.75 425 l 1
 625 425 l 1
 625 393.75 l 1
 625 362.5 l 1
 593.75 362.5 l 1
 562.5 362.5 l 1
 562.5 237.5 l 1
 562.5 112.5 l 1
 531.25 112.5 l 1
 500 112.5 l 1
 500 143.75 l 1
 500 175 l 1
 375 175 l 1
 250 175 l 1
 250 50 l 1
 250 -75 l 1
 531.25 -75 l 1
 812.5 -75 l 1
 812.5 -12.5 l 1
 812.5 50 l 1
 843.75 50 l 1
 875 50 l 1
 875 -43.75 l 1
 875 -137.5 l 1
 562.5 -137.5 l 1
 250 -137.5 l 1
 250 -106.25 l 1
 250 -75 l 1
 218.75 -75 l 1
 187.5 -75 l 1
 187.5 175 l 1
 187.5 425 l 1
 156.25 425 l 1
 125 425 l 1
 125 393.75 l 1
 125 362.5 l 1
 93.75 362.5 l 1
 62.5 362.5 l 1
 62.5 393.75 l 1
 62.5 425 l 1
 93.75 425 l 1
 125 425 l 1
 125 456.25 l 1
 125 487.5 l 1
 156.25 487.5 l 1
 187.5 487.5 l 1
 187.5 518.75 l 1
 187.5 550 l 1
 218.75 550 l 1
 250 550 l 1
 250 581.25 l 1
 250 612.5 l 1
 281.25 612.5 l 1
 312.5 612.5 l 1
 312.5 706.25 l 1
500 300 m 1
 500 362.5 l 1
 375 362.5 l 1
 250 362.5 l 1
 250 300 l 1
 250 237.5 l 1
 375 237.5 l 1
 500 237.5 l 1
 500 300 l 1
EndSplineSet
EndChar

StartChar: uni8912
Encoding: 35090 35090 58
Width: 1000
VWidth: 0
Flags: H
LayerCount: 2
Fore
SplineSet
375 768.75 m 1
 375 800 l 1
 406.25 800 l 1
 437.5 800 l 1
 437.5 768.75 l 1
 437.5 737.5 l 1
 468.75 737.5 l 1
 500 737.5 l 1
 500 706.25 l 1
 500 675 l 1
 625 675 l 1
 750 675 l 1
 750 706.25 l 1
 750 737.5 l 1
 781.25 737.5 l 1
 812.5 737.5 l 1
 812.5 706.25 l 1
 812.5 675 l 1
 843.75 675 l 1
 875 675 l 1
 875 643.75 l 1
 875 612.5 l 1
 593.75 612.5 l 1
 312.5 612.5 l 1
 312.5 581.25 l 1
 312.5 550 l 1
 531.25 550 l 1
 750 550 l 1
 750 456.25 l 1
 750 362.5 l 1
 656.25 362.5 l 1
 562.5 362.5 l 1
 562.5 331.25 l 1
 562.5 300 l 1
 718.75 300 l 1
 875 300 l 1
 875 268.75 l 1
 875 237.5 l 1
 781.25 237.5 l 1
 687.5 237.5 l 1
 687.5 206.25 l 1
 687.5 175 l 1
 718.75 175 l 1
 750 175 l 1
 750 143.75 l 1
 750 112.5 l 1
 781.25 112.5 l 1
 812.5 112.5 l 1
 812.5 81.25 l 1
 812.5 50 l 1
 781.25 50 l 1
 750 50 l 1
 750 18.75 l 1
 750 -12.5 l 1
 718.75 -12.5 l 1
 687.5 -12.5 l 1
 687.5 -43.75 l 1
 687.5 -75 l 1
 781.25 -75 l 1
 875 -75 l 1
 875 -106.25 l 1
 875 -137.5 l 1
 843.75 -137.5 l 1
 812.5 -137.5 l 1
 812.5 -168.75 l 1
 812.5 -200 l 1
 781.25 -200 l 1
 750 -200 l 1
 750 -168.75 l 1
 750 -137.5 l 1
 718.75 -137.5 l 1
 687.5 -137.5 l 1
 687.5 -106.25 l 1
 687.5 -75 l 1
 656.25 -75 l 1
 625 -75 l 1
 625 -106.25 l 1
 625 -137.5 l 1
 593.75 -137.5 l 1
 562.5 -137.5 l 1
 562.5 -106.25 l 1
 562.5 -75 l 1
 593.75 -75 l 1
 625 -75 l 1
 625 -43.75 l 1
 625 -12.5 l 1
 562.5 -12.5 l 1
 500 -12.5 l 1
 500 18.75 l 1
 500 50 l 1
 468.75 50 l 1
 437.5 50 l 1
 437.5 81.25 l 1
 437.5 112.5 l 1
 468.75 112.5 l 1
 500 112.5 l 1
 500 175 l 1
 500 237.5 l 1
 468.75 237.5 l 1
 437.5 237.5 l 1
 437.5 206.25 l 1
 437.5 175 l 1
 406.25 175 l 1
 375 175 l 1
 375 50 l 1
 375 -75 l 1
 406.25 -75 l 1
 437.5 -75 l 1
 437.5 -106.25 l 1
 437.5 -137.5 l 1
 406.25 -137.5 l 1
 375 -137.5 l 1
 375 -168.75 l 1
 375 -200 l 1
 343.75 -200 l 1
 312.5 -200 l 1
 312.5 -106.25 l 1
 312.5 -12.5 l 1
 281.25 -12.5 l 1
 250 -12.5 l 1
 250 -43.75 l 1
 250 -75 l 1
 218.75 -75 l 1
 187.5 -75 l 1
 187.5 -106.25 l 1
 187.5 -137.5 l 1
 125 -137.5 l 1
 62.5 -137.5 l 1
 62.5 -106.25 l 1
 62.5 -75 l 1
 125 -75 l 1
 187.5 -75 l 1
 187.5 -43.75 l 1
 187.5 -12.5 l 1
 218.75 -12.5 l 1
 250 -12.5 l 1
 250 18.75 l 1
 250 50 l 1
 281.25 50 l 1
 312.5 50 l 1
 312.5 112.5 l 1
 312.5 175 l 1
 343.75 175 l 1
 375 175 l 1
 375 206.25 l 1
 375 237.5 l 1
 312.5 237.5 l 1
 250 237.5 l 1
 250 175 l 1
 250 112.5 l 1
 218.75 112.5 l 1
 187.5 112.5 l 1
 187.5 237.5 l 1
 187.5 362.5 l 1
 156.25 362.5 l 1
 125 362.5 l 1
 125 331.25 l 1
 125 300 l 1
 93.75 300 l 1
 62.5 300 l 1
 62.5 268.75 l 1
 62.5 237.5 l 1
 31.25 237.5 l 1
 0 237.5 l 1
 0 268.75 l 1
 0 300 l 1
 31.25 300 l 1
 62.5 300 l 1
 62.5 331.25 l 1
 62.5 362.5 l 1
 93.75 362.5 l 1
 125 362.5 l 1
 125 393.75 l 1
 125 425 l 1
 156.25 425 l 1
 187.5 425 l 1
 187.5 487.5 l 1
 187.5 550 l 1
 218.75 550 l 1
 250 550 l 1
 250 581.25 l 1
 250 612.5 l 1
 156.25 612.5 l 1
 62.5 612.5 l 1
 62.5 643.75 l 1
 62.5 675 l 1
 250 675 l 1
 437.5 675 l 1
 437.5 706.25 l 1
 437.5 737.5 l 1
 406.25 737.5 l 1
 375 737.5 l 1
 375 768.75 l 1
312.5 456.25 m 1
 312.5 550 l 1
 281.25 550 l 1
 250 550 l 1
 250 425 l 1
 250 300 l 1
 375 300 l 1
 500 300 l 1
 500 331.25 l 1
 500 362.5 l 1
 406.25 362.5 l 1
 312.5 362.5 l 1
 312.5 456.25 l 1
687.5 456.25 m 1
 687.5 487.5 l 1
 531.25 487.5 l 1
 375 487.5 l 1
 375 456.25 l 1
 375 425 l 1
 531.25 425 l 1
 687.5 425 l 1
 687.5 456.25 l 1
625 206.25 m 1
 625 237.5 l 1
 593.75 237.5 l 1
 562.5 237.5 l 1
 562.5 175 l 1
 562.5 112.5 l 1
 531.25 112.5 l 1
 500 112.5 l 1
 500 81.25 l 1
 500 50 l 1
 562.5 50 l 1
 625 50 l 1
 625 18.75 l 1
 625 -12.5 l 1
 656.25 -12.5 l 1
 687.5 -12.5 l 1
 687.5 18.75 l 1
 687.5 50 l 1
 718.75 50 l 1
 750 50 l 1
 750 81.25 l 1
 750 112.5 l 1
 718.75 112.5 l 1
 687.5 112.5 l 1
 687.5 143.75 l 1
 687.5 175 l 1
 656.25 175 l 1
 625 175 l 1
 625 206.25 l 1
EndSplineSet
EndChar

StartChar: uni5265
Encoding: 21093 21093 59
Width: 1000
VWidth: 0
Flags: H
LayerCount: 2
Fore
SplineSet
437.5 768.75 m 1
 437.5 800 l 1
 468.75 800 l 1
 500 800 l 1
 500 768.75 l 1
 500 737.5 l 1
 531.25 737.5 l 1
 562.5 737.5 l 1
 562.5 706.25 l 1
 562.5 675 l 1
 531.25 675 l 1
 500 675 l 1
 500 581.25 l 1
 500 487.5 l 1
 531.25 487.5 l 1
 562.5 487.5 l 1
 562.5 456.25 l 1
 562.5 425 l 1
 437.5 425 l 1
 312.5 425 l 1
 312.5 300 l 1
 312.5 175 l 1
 343.75 175 l 1
 375 175 l 1
 375 206.25 l 1
 375 237.5 l 1
 406.25 237.5 l 1
 437.5 237.5 l 1
 437.5 300 l 1
 437.5 362.5 l 1
 468.75 362.5 l 1
 500 362.5 l 1
 500 300 l 1
 500 237.5 l 1
 468.75 237.5 l 1
 437.5 237.5 l 1
 437.5 206.25 l 1
 437.5 175 l 1
 406.25 175 l 1
 375 175 l 1
 375 143.75 l 1
 375 112.5 l 1
 406.25 112.5 l 1
 437.5 112.5 l 1
 437.5 81.25 l 1
 437.5 50 l 1
 500 50 l 1
 562.5 50 l 1
 562.5 -12.5 l 1
 562.5 -75 l 1
 531.25 -75 l 1
 500 -75 l 1
 500 -43.75 l 1
 500 -12.5 l 1
 468.75 -12.5 l 1
 437.5 -12.5 l 1
 437.5 18.75 l 1
 437.5 50 l 1
 406.25 50 l 1
 375 50 l 1
 375 81.25 l 1
 375 112.5 l 1
 343.75 112.5 l 1
 312.5 112.5 l 1
 312.5 -12.5 l 1
 312.5 -137.5 l 1
 281.25 -137.5 l 1
 250 -137.5 l 1
 250 -168.75 l 1
 250 -200 l 1
 218.75 -200 l 1
 187.5 -200 l 1
 187.5 -168.75 l 1
 187.5 -137.5 l 1
 156.25 -137.5 l 1
 125 -137.5 l 1
 125 -106.25 l 1
 125 -75 l 1
 156.25 -75 l 1
 187.5 -75 l 1
 187.5 -106.25 l 1
 187.5 -137.5 l 1
 218.75 -137.5 l 1
 250 -137.5 l 1
 250 -12.5 l 1
 250 112.5 l 1
 218.75 112.5 l 1
 187.5 112.5 l 1
 187.5 81.25 l 1
 187.5 50 l 1
 156.25 50 l 1
 125 50 l 1
 125 18.75 l 1
 125 -12.5 l 1
 62.5 -12.5 l 1
 0 -12.5 l 1
 0 18.75 l 1
 0 50 l 1
 62.5 50 l 1
 125 50 l 1
 125 81.25 l 1
 125 112.5 l 1
 156.25 112.5 l 1
 187.5 112.5 l 1
 187.5 143.75 l 1
 187.5 175 l 1
 156.25 175 l 1
 125 175 l 1
 125 237.5 l 1
 125 300 l 1
 93.75 300 l 1
 62.5 300 l 1
 62.5 331.25 l 1
 62.5 362.5 l 1
 93.75 362.5 l 1
 125 362.5 l 1
 125 331.25 l 1
 125 300 l 1
 156.25 300 l 1
 187.5 300 l 1
 187.5 237.5 l 1
 187.5 175 l 1
 218.75 175 l 1
 250 175 l 1
 250 300 l 1
 250 425 l 1
 125 425 l 1
 0 425 l 1
 0 456.25 l 1
 0 487.5 l 1
 218.75 487.5 l 1
 437.5 487.5 l 1
 437.5 518.75 l 1
 437.5 550 l 1
 281.25 550 l 1
 125 550 l 1
 125 581.25 l 1
 125 612.5 l 1
 281.25 612.5 l 1
 437.5 612.5 l 1
 437.5 643.75 l 1
 437.5 675 l 1
 250 675 l 1
 62.5 675 l 1
 62.5 706.25 l 1
 62.5 737.5 l 1
 250 737.5 l 1
 437.5 737.5 l 1
 437.5 768.75 l 1
812.5 331.25 m 1
 812.5 800 l 1
 843.75 800 l 1
 875 800 l 1
 875 331.25 l 1
 875 -137.5 l 1
 843.75 -137.5 l 1
 812.5 -137.5 l 1
 812.5 -168.75 l 1
 812.5 -200 l 1
 781.25 -200 l 1
 750 -200 l 1
 750 -168.75 l 1
 750 -137.5 l 1
 718.75 -137.5 l 1
 687.5 -137.5 l 1
 687.5 -106.25 l 1
 687.5 -75 l 1
 718.75 -75 l 1
 750 -75 l 1
 750 -106.25 l 1
 750 -137.5 l 1
 781.25 -137.5 l 1
 812.5 -137.5 l 1
 812.5 331.25 l 1
625 331.25 m 1
 625 612.5 l 1
 656.25 612.5 l 1
 687.5 612.5 l 1
 687.5 331.25 l 1
 687.5 50 l 1
 656.25 50 l 1
 625 50 l 1
 625 331.25 l 1
EndSplineSet
EndChar

StartChar: uni8584
Encoding: 34180 34180 60
Width: 1000
VWidth: 0
Flags: H
LayerCount: 2
Fore
SplineSet
250 768.75 m 1
 250 800 l 1
 281.25 800 l 1
 312.5 800 l 1
 312.5 768.75 l 1
 312.5 737.5 l 1
 468.75 737.5 l 1
 625 737.5 l 1
 625 768.75 l 1
 625 800 l 1
 656.25 800 l 1
 687.5 800 l 1
 687.5 768.75 l 1
 687.5 737.5 l 1
 812.5 737.5 l 1
 937.5 737.5 l 1
 937.5 706.25 l 1
 937.5 675 l 1
 843.75 675 l 1
 750 675 l 1
 750 643.75 l 1
 750 612.5 l 1
 812.5 612.5 l 1
 875 612.5 l 1
 875 581.25 l 1
 875 550 l 1
 750 550 l 1
 625 550 l 1
 625 518.75 l 1
 625 487.5 l 1
 750 487.5 l 1
 875 487.5 l 1
 875 300 l 1
 875 112.5 l 1
 843.75 112.5 l 1
 812.5 112.5 l 1
 812.5 143.75 l 1
 812.5 175 l 1
 718.75 175 l 1
 625 175 l 1
 625 143.75 l 1
 625 112.5 l 1
 593.75 112.5 l 1
 562.5 112.5 l 1
 562.5 143.75 l 1
 562.5 175 l 1
 468.75 175 l 1
 375 175 l 1
 375 143.75 l 1
 375 112.5 l 1
 343.75 112.5 l 1
 312.5 112.5 l 1
 312.5 206.25 l 1
 312.5 300 l 1
 281.25 300 l 1
 250 300 l 1
 250 268.75 l 1
 250 237.5 l 1
 218.75 237.5 l 1
 187.5 237.5 l 1
 187.5 18.75 l 1
 187.5 -200 l 1
 156.25 -200 l 1
 125 -200 l 1
 125 -43.75 l 1
 125 112.5 l 1
 62.5 112.5 l 1
 0 112.5 l 1
 0 143.75 l 1
 0 175 l 1
 62.5 175 l 1
 125 175 l 1
 125 206.25 l 1
 125 237.5 l 1
 156.25 237.5 l 1
 187.5 237.5 l 1
 187.5 268.75 l 1
 187.5 300 l 1
 218.75 300 l 1
 250 300 l 1
 250 331.25 l 1
 250 362.5 l 1
 281.25 362.5 l 1
 312.5 362.5 l 1
 312.5 425 l 1
 312.5 487.5 l 1
 437.5 487.5 l 1
 562.5 487.5 l 1
 562.5 518.75 l 1
 562.5 550 l 1
 437.5 550 l 1
 312.5 550 l 1
 312.5 581.25 l 1
 312.5 612.5 l 1
 281.25 612.5 l 1
 250 612.5 l 1
 250 643.75 l 1
 250 675 l 1
 125 675 l 1
 0 675 l 1
 0 706.25 l 1
 0 737.5 l 1
 125 737.5 l 1
 250 737.5 l 1
 250 768.75 l 1
562.5 643.75 m 1
 562.5 675 l 1
 437.5 675 l 1
 312.5 675 l 1
 312.5 643.75 l 1
 312.5 612.5 l 1
 437.5 612.5 l 1
 562.5 612.5 l 1
 562.5 643.75 l 1
687.5 643.75 m 1
 687.5 675 l 1
 656.25 675 l 1
 625 675 l 1
 625 643.75 l 1
 625 612.5 l 1
 656.25 612.5 l 1
 687.5 612.5 l 1
 687.5 643.75 l 1
562.5 393.75 m 1
 562.5 425 l 1
 468.75 425 l 1
 375 425 l 1
 375 393.75 l 1
 375 362.5 l 1
 468.75 362.5 l 1
 562.5 362.5 l 1
 562.5 393.75 l 1
812.5 393.75 m 1
 812.5 425 l 1
 718.75 425 l 1
 625 425 l 1
 625 393.75 l 1
 625 362.5 l 1
 718.75 362.5 l 1
 812.5 362.5 l 1
 812.5 393.75 l 1
562.5 268.75 m 1
 562.5 300 l 1
 468.75 300 l 1
 375 300 l 1
 375 268.75 l 1
 375 237.5 l 1
 468.75 237.5 l 1
 562.5 237.5 l 1
 562.5 268.75 l 1
812.5 268.75 m 1
 812.5 300 l 1
 718.75 300 l 1
 625 300 l 1
 625 268.75 l 1
 625 237.5 l 1
 718.75 237.5 l 1
 812.5 237.5 l 1
 812.5 268.75 l 1
62.5 581.25 m 1
 62.5 612.5 l 1
 93.75 612.5 l 1
 125 612.5 l 1
 125 581.25 l 1
 125 550 l 1
 156.25 550 l 1
 187.5 550 l 1
 187.5 487.5 l 1
 187.5 425 l 1
 156.25 425 l 1
 125 425 l 1
 125 487.5 l 1
 125 550 l 1
 93.75 550 l 1
 62.5 550 l 1
 62.5 581.25 l 1
0 393.75 m 1
 0 425 l 1
 31.25 425 l 1
 62.5 425 l 1
 62.5 393.75 l 1
 62.5 362.5 l 1
 93.75 362.5 l 1
 125 362.5 l 1
 125 331.25 l 1
 125 300 l 1
 93.75 300 l 1
 62.5 300 l 1
 62.5 331.25 l 1
 62.5 362.5 l 1
 31.25 362.5 l 1
 0 362.5 l 1
 0 393.75 l 1
687.5 81.25 m 1
 687.5 112.5 l 1
 718.75 112.5 l 1
 750 112.5 l 1
 750 81.25 l 1
 750 50 l 1
 843.75 50 l 1
 937.5 50 l 1
 937.5 18.75 l 1
 937.5 -12.5 l 1
 843.75 -12.5 l 1
 750 -12.5 l 1
 750 -106.25 l 1
 750 -200 l 1
 687.5 -200 l 1
 625 -200 l 1
 625 -168.75 l 1
 625 -137.5 l 1
 656.25 -137.5 l 1
 687.5 -137.5 l 1
 687.5 -75 l 1
 687.5 -12.5 l 1
 562.5 -12.5 l 1
 437.5 -12.5 l 1
 437.5 -43.75 l 1
 437.5 -75 l 1
 468.75 -75 l 1
 500 -75 l 1
 500 -106.25 l 1
 500 -137.5 l 1
 468.75 -137.5 l 1
 437.5 -137.5 l 1
 437.5 -106.25 l 1
 437.5 -75 l 1
 406.25 -75 l 1
 375 -75 l 1
 375 -43.75 l 1
 375 -12.5 l 1
 312.5 -12.5 l 1
 250 -12.5 l 1
 250 18.75 l 1
 250 50 l 1
 468.75 50 l 1
 687.5 50 l 1
 687.5 81.25 l 1
EndSplineSet
EndChar

StartChar: uni96F9
Encoding: 38649 38649 61
Width: 1000
VWidth: 0
Flags: H
LayerCount: 2
Fore
SplineSet
187.5 768.75 m 1
 187.5 800 l 1
 468.75 800 l 1
 750 800 l 1
 750 768.75 l 1
 750 737.5 l 1
 625 737.5 l 1
 500 737.5 l 1
 500 706.25 l 1
 500 675 l 1
 718.75 675 l 1
 937.5 675 l 1
 937.5 612.5 l 1
 937.5 550 l 1
 906.25 550 l 1
 875 550 l 1
 875 518.75 l 1
 875 487.5 l 1
 843.75 487.5 l 1
 812.5 487.5 l 1
 812.5 518.75 l 1
 812.5 550 l 1
 843.75 550 l 1
 875 550 l 1
 875 581.25 l 1
 875 612.5 l 1
 687.5 612.5 l 1
 500 612.5 l 1
 500 487.5 l 1
 500 362.5 l 1
 468.75 362.5 l 1
 437.5 362.5 l 1
 437.5 487.5 l 1
 437.5 612.5 l 1
 281.25 612.5 l 1
 125 612.5 l 1
 125 581.25 l 1
 125 550 l 1
 93.75 550 l 1
 62.5 550 l 1
 62.5 518.75 l 1
 62.5 487.5 l 1
 31.25 487.5 l 1
 0 487.5 l 1
 0 518.75 l 1
 0 550 l 1
 31.25 550 l 1
 62.5 550 l 1
 62.5 612.5 l 1
 62.5 675 l 1
 250 675 l 1
 437.5 675 l 1
 437.5 706.25 l 1
 437.5 737.5 l 1
 312.5 737.5 l 1
 187.5 737.5 l 1
 187.5 768.75 l 1
187.5 518.75 m 1
 187.5 550 l 1
 281.25 550 l 1
 375 550 l 1
 375 518.75 l 1
 375 487.5 l 1
 281.25 487.5 l 1
 187.5 487.5 l 1
 187.5 518.75 l 1
562.5 518.75 m 1
 562.5 550 l 1
 656.25 550 l 1
 750 550 l 1
 750 518.75 l 1
 750 487.5 l 1
 656.25 487.5 l 1
 562.5 487.5 l 1
 562.5 518.75 l 1
187.5 393.75 m 1
 187.5 425 l 1
 281.25 425 l 1
 375 425 l 1
 375 393.75 l 1
 375 362.5 l 1
 343.75 362.5 l 1
 312.5 362.5 l 1
 312.5 331.25 l 1
 312.5 300 l 1
 531.25 300 l 1
 750 300 l 1
 750 112.5 l 1
 750 -75 l 1
 687.5 -75 l 1
 625 -75 l 1
 625 -43.75 l 1
 625 -12.5 l 1
 656.25 -12.5 l 1
 687.5 -12.5 l 1
 687.5 112.5 l 1
 687.5 237.5 l 1
 625 237.5 l 1
 562.5 237.5 l 1
 562.5 206.25 l 1
 562.5 175 l 1
 593.75 175 l 1
 625 175 l 1
 625 143.75 l 1
 625 112.5 l 1
 593.75 112.5 l 1
 562.5 112.5 l 1
 562.5 18.75 l 1
 562.5 -75 l 1
 531.25 -75 l 1
 500 -75 l 1
 500 -43.75 l 1
 500 -12.5 l 1
 406.25 -12.5 l 1
 312.5 -12.5 l 1
 312.5 -75 l 1
 312.5 -137.5 l 1
 562.5 -137.5 l 1
 812.5 -137.5 l 1
 812.5 -75 l 1
 812.5 -12.5 l 1
 843.75 -12.5 l 1
 875 -12.5 l 1
 875 -106.25 l 1
 875 -200 l 1
 593.75 -200 l 1
 312.5 -200 l 1
 312.5 -168.75 l 1
 312.5 -137.5 l 1
 281.25 -137.5 l 1
 250 -137.5 l 1
 250 18.75 l 1
 250 175 l 1
 218.75 175 l 1
 187.5 175 l 1
 187.5 143.75 l 1
 187.5 112.5 l 1
 156.25 112.5 l 1
 125 112.5 l 1
 125 81.25 l 1
 125 50 l 1
 93.75 50 l 1
 62.5 50 l 1
 62.5 81.25 l 1
 62.5 112.5 l 1
 93.75 112.5 l 1
 125 112.5 l 1
 125 143.75 l 1
 125 175 l 1
 156.25 175 l 1
 187.5 175 l 1
 187.5 206.25 l 1
 187.5 237.5 l 1
 218.75 237.5 l 1
 250 237.5 l 1
 250 300 l 1
 250 362.5 l 1
 218.75 362.5 l 1
 187.5 362.5 l 1
 187.5 393.75 l 1
500 206.25 m 1
 500 237.5 l 1
 375 237.5 l 1
 250 237.5 l 1
 250 206.25 l 1
 250 175 l 1
 375 175 l 1
 500 175 l 1
 500 206.25 l 1
500 81.25 m 1
 500 112.5 l 1
 406.25 112.5 l 1
 312.5 112.5 l 1
 312.5 81.25 l 1
 312.5 50 l 1
 406.25 50 l 1
 500 50 l 1
 500 81.25 l 1
562.5 393.75 m 1
 562.5 425 l 1
 656.25 425 l 1
 750 425 l 1
 750 393.75 l 1
 750 362.5 l 1
 656.25 362.5 l 1
 562.5 362.5 l 1
 562.5 393.75 l 1
EndSplineSet
EndChar

StartChar: uni4FDD
Encoding: 20445 20445 62
Width: 1000
VWidth: 0
Flags: H
LayerCount: 2
Fore
SplineSet
250 706.25 m 1
 250 800 l 1
 281.25 800 l 1
 312.5 800 l 1
 312.5 706.25 l 1
 312.5 612.5 l 1
 281.25 612.5 l 1
 250 612.5 l 1
 250 456.25 l 1
 250 300 l 1
 406.25 300 l 1
 562.5 300 l 1
 562.5 362.5 l 1
 562.5 425 l 1
 500 425 l 1
 437.5 425 l 1
 437.5 393.75 l 1
 437.5 362.5 l 1
 406.25 362.5 l 1
 375 362.5 l 1
 375 550 l 1
 375 737.5 l 1
 562.5 737.5 l 1
 750 737.5 l 1
 750 768.75 l 1
 750 800 l 1
 781.25 800 l 1
 812.5 800 l 1
 812.5 768.75 l 1
 812.5 737.5 l 1
 843.75 737.5 l 1
 875 737.5 l 1
 875 706.25 l 1
 875 675 l 1
 843.75 675 l 1
 812.5 675 l 1
 812.5 550 l 1
 812.5 425 l 1
 718.75 425 l 1
 625 425 l 1
 625 362.5 l 1
 625 300 l 1
 718.75 300 l 1
 812.5 300 l 1
 812.5 331.25 l 1
 812.5 362.5 l 1
 843.75 362.5 l 1
 875 362.5 l 1
 875 331.25 l 1
 875 300 l 1
 906.25 300 l 1
 937.5 300 l 1
 937.5 268.75 l 1
 937.5 237.5 l 1
 781.25 237.5 l 1
 625 237.5 l 1
 625 206.25 l 1
 625 175 l 1
 656.25 175 l 1
 687.5 175 l 1
 687.5 143.75 l 1
 687.5 112.5 l 1
 718.75 112.5 l 1
 750 112.5 l 1
 750 81.25 l 1
 750 50 l 1
 781.25 50 l 1
 812.5 50 l 1
 812.5 18.75 l 1
 812.5 -12.5 l 1
 875 -12.5 l 1
 937.5 -12.5 l 1
 937.5 -43.75 l 1
 937.5 -75 l 1
 906.25 -75 l 1
 875 -75 l 1
 875 -106.25 l 1
 875 -137.5 l 1
 843.75 -137.5 l 1
 812.5 -137.5 l 1
 812.5 -106.25 l 1
 812.5 -75 l 1
 781.25 -75 l 1
 750 -75 l 1
 750 -12.5 l 1
 750 50 l 1
 718.75 50 l 1
 687.5 50 l 1
 687.5 81.25 l 1
 687.5 112.5 l 1
 656.25 112.5 l 1
 625 112.5 l 1
 625 -43.75 l 1
 625 -200 l 1
 593.75 -200 l 1
 562.5 -200 l 1
 562.5 -43.75 l 1
 562.5 112.5 l 1
 531.25 112.5 l 1
 500 112.5 l 1
 500 81.25 l 1
 500 50 l 1
 468.75 50 l 1
 437.5 50 l 1
 437.5 18.75 l 1
 437.5 -12.5 l 1
 406.25 -12.5 l 1
 375 -12.5 l 1
 375 -43.75 l 1
 375 -75 l 1
 343.75 -75 l 1
 312.5 -75 l 1
 312.5 -106.25 l 1
 312.5 -137.5 l 1
 281.25 -137.5 l 1
 250 -137.5 l 1
 250 -168.75 l 1
 250 -200 l 1
 218.75 -200 l 1
 187.5 -200 l 1
 187.5 81.25 l 1
 187.5 362.5 l 1
 156.25 362.5 l 1
 125 362.5 l 1
 125 331.25 l 1
 125 300 l 1
 93.75 300 l 1
 62.5 300 l 1
 62.5 268.75 l 1
 62.5 237.5 l 1
 31.25 237.5 l 1
 0 237.5 l 1
 0 268.75 l 1
 0 300 l 1
 31.25 300 l 1
 62.5 300 l 1
 62.5 331.25 l 1
 62.5 362.5 l 1
 93.75 362.5 l 1
 125 362.5 l 1
 125 425 l 1
 125 487.5 l 1
 156.25 487.5 l 1
 187.5 487.5 l 1
 187.5 550 l 1
 187.5 612.5 l 1
 218.75 612.5 l 1
 250 612.5 l 1
 250 706.25 l 1
750 581.25 m 1
 750 675 l 1
 593.75 675 l 1
 437.5 675 l 1
 437.5 581.25 l 1
 437.5 487.5 l 1
 593.75 487.5 l 1
 750 487.5 l 1
 750 581.25 l 1
562.5 206.25 m 1
 562.5 237.5 l 1
 406.25 237.5 l 1
 250 237.5 l 1
 250 81.25 l 1
 250 -75 l 1
 281.25 -75 l 1
 312.5 -75 l 1
 312.5 -43.75 l 1
 312.5 -12.5 l 1
 343.75 -12.5 l 1
 375 -12.5 l 1
 375 18.75 l 1
 375 50 l 1
 406.25 50 l 1
 437.5 50 l 1
 437.5 81.25 l 1
 437.5 112.5 l 1
 468.75 112.5 l 1
 500 112.5 l 1
 500 143.75 l 1
 500 175 l 1
 531.25 175 l 1
 562.5 175 l 1
 562.5 206.25 l 1
EndSplineSet
EndChar

StartChar: uni5821
Encoding: 22561 22561 63
Width: 1000
VWidth: 0
Flags: H
LayerCount: 2
Fore
SplineSet
187.5 706.25 m 1
 187.5 800 l 1
 218.75 800 l 1
 250 800 l 1
 250 706.25 l 1
 250 612.5 l 1
 218.75 612.5 l 1
 187.5 612.5 l 1
 187.5 518.75 l 1
 187.5 425 l 1
 343.75 425 l 1
 500 425 l 1
 500 456.25 l 1
 500 487.5 l 1
 406.25 487.5 l 1
 312.5 487.5 l 1
 312.5 612.5 l 1
 312.5 737.5 l 1
 500 737.5 l 1
 687.5 737.5 l 1
 687.5 768.75 l 1
 687.5 800 l 1
 718.75 800 l 1
 750 800 l 1
 750 768.75 l 1
 750 737.5 l 1
 781.25 737.5 l 1
 812.5 737.5 l 1
 812.5 706.25 l 1
 812.5 675 l 1
 781.25 675 l 1
 750 675 l 1
 750 581.25 l 1
 750 487.5 l 1
 656.25 487.5 l 1
 562.5 487.5 l 1
 562.5 456.25 l 1
 562.5 425 l 1
 718.75 425 l 1
 875 425 l 1
 875 393.75 l 1
 875 362.5 l 1
 750 362.5 l 1
 625 362.5 l 1
 625 331.25 l 1
 625 300 l 1
 656.25 300 l 1
 687.5 300 l 1
 687.5 268.75 l 1
 687.5 237.5 l 1
 781.25 237.5 l 1
 875 237.5 l 1
 875 206.25 l 1
 875 175 l 1
 781.25 175 l 1
 687.5 175 l 1
 687.5 206.25 l 1
 687.5 237.5 l 1
 656.25 237.5 l 1
 625 237.5 l 1
 625 268.75 l 1
 625 300 l 1
 593.75 300 l 1
 562.5 300 l 1
 562.5 206.25 l 1
 562.5 112.5 l 1
 687.5 112.5 l 1
 812.5 112.5 l 1
 812.5 81.25 l 1
 812.5 50 l 1
 656.25 50 l 1
 500 50 l 1
 500 -12.5 l 1
 500 -75 l 1
 656.25 -75 l 1
 812.5 -75 l 1
 812.5 -43.75 l 1
 812.5 -12.5 l 1
 843.75 -12.5 l 1
 875 -12.5 l 1
 875 -43.75 l 1
 875 -75 l 1
 906.25 -75 l 1
 937.5 -75 l 1
 937.5 -106.25 l 1
 937.5 -137.5 l 1
 468.75 -137.5 l 1
 0 -137.5 l 1
 0 -106.25 l 1
 0 -75 l 1
 218.75 -75 l 1
 437.5 -75 l 1
 437.5 -12.5 l 1
 437.5 50 l 1
 281.25 50 l 1
 125 50 l 1
 125 81.25 l 1
 125 112.5 l 1
 281.25 112.5 l 1
 437.5 112.5 l 1
 437.5 143.75 l 1
 437.5 175 l 1
 468.75 175 l 1
 500 175 l 1
 500 237.5 l 1
 500 300 l 1
 468.75 300 l 1
 437.5 300 l 1
 437.5 268.75 l 1
 437.5 237.5 l 1
 406.25 237.5 l 1
 375 237.5 l 1
 375 206.25 l 1
 375 175 l 1
 312.5 175 l 1
 250 175 l 1
 250 206.25 l 1
 250 237.5 l 1
 312.5 237.5 l 1
 375 237.5 l 1
 375 268.75 l 1
 375 300 l 1
 406.25 300 l 1
 437.5 300 l 1
 437.5 331.25 l 1
 437.5 362.5 l 1
 312.5 362.5 l 1
 187.5 362.5 l 1
 187.5 268.75 l 1
 187.5 175 l 1
 156.25 175 l 1
 125 175 l 1
 125 300 l 1
 125 425 l 1
 93.75 425 l 1
 62.5 425 l 1
 62.5 393.75 l 1
 62.5 362.5 l 1
 31.25 362.5 l 1
 0 362.5 l 1
 0 393.75 l 1
 0 425 l 1
 31.25 425 l 1
 62.5 425 l 1
 62.5 456.25 l 1
 62.5 487.5 l 1
 93.75 487.5 l 1
 125 487.5 l 1
 125 550 l 1
 125 612.5 l 1
 156.25 612.5 l 1
 187.5 612.5 l 1
 187.5 706.25 l 1
687.5 612.5 m 1
 687.5 675 l 1
 531.25 675 l 1
 375 675 l 1
 375 612.5 l 1
 375 550 l 1
 531.25 550 l 1
 687.5 550 l 1
 687.5 612.5 l 1
EndSplineSet
EndChar

StartChar: uni9971
Encoding: 39281 39281 64
Width: 1000
VWidth: 0
Flags: H
LayerCount: 2
Fore
SplineSet
125 643.75 m 1
 125 800 l 1
 156.25 800 l 1
 187.5 800 l 1
 187.5 706.25 l 1
 187.5 612.5 l 1
 281.25 612.5 l 1
 375 612.5 l 1
 375 550 l 1
 375 487.5 l 1
 406.25 487.5 l 1
 437.5 487.5 l 1
 437.5 518.75 l 1
 437.5 550 l 1
 468.75 550 l 1
 500 550 l 1
 500 675 l 1
 500 800 l 1
 531.25 800 l 1
 562.5 800 l 1
 562.5 706.25 l 1
 562.5 612.5 l 1
 687.5 612.5 l 1
 812.5 612.5 l 1
 812.5 643.75 l 1
 812.5 675 l 1
 843.75 675 l 1
 875 675 l 1
 875 643.75 l 1
 875 612.5 l 1
 906.25 612.5 l 1
 937.5 612.5 l 1
 937.5 581.25 l 1
 937.5 550 l 1
 906.25 550 l 1
 875 550 l 1
 875 331.25 l 1
 875 112.5 l 1
 843.75 112.5 l 1
 812.5 112.5 l 1
 812.5 81.25 l 1
 812.5 50 l 1
 781.25 50 l 1
 750 50 l 1
 750 81.25 l 1
 750 112.5 l 1
 718.75 112.5 l 1
 687.5 112.5 l 1
 687.5 143.75 l 1
 687.5 175 l 1
 593.75 175 l 1
 500 175 l 1
 500 50 l 1
 500 -75 l 1
 687.5 -75 l 1
 875 -75 l 1
 875 -12.5 l 1
 875 50 l 1
 906.25 50 l 1
 937.5 50 l 1
 937.5 -43.75 l 1
 937.5 -137.5 l 1
 718.75 -137.5 l 1
 500 -137.5 l 1
 500 -106.25 l 1
 500 -75 l 1
 468.75 -75 l 1
 437.5 -75 l 1
 437.5 175 l 1
 437.5 425 l 1
 406.25 425 l 1
 375 425 l 1
 375 393.75 l 1
 375 362.5 l 1
 343.75 362.5 l 1
 312.5 362.5 l 1
 312.5 393.75 l 1
 312.5 425 l 1
 281.25 425 l 1
 250 425 l 1
 250 456.25 l 1
 250 487.5 l 1
 281.25 487.5 l 1
 312.5 487.5 l 1
 312.5 518.75 l 1
 312.5 550 l 1
 250 550 l 1
 187.5 550 l 1
 187.5 518.75 l 1
 187.5 487.5 l 1
 156.25 487.5 l 1
 125 487.5 l 1
 125 425 l 1
 125 362.5 l 1
 156.25 362.5 l 1
 187.5 362.5 l 1
 187.5 175 l 1
 187.5 -12.5 l 1
 218.75 -12.5 l 1
 250 -12.5 l 1
 250 18.75 l 1
 250 50 l 1
 281.25 50 l 1
 312.5 50 l 1
 312.5 81.25 l 1
 312.5 112.5 l 1
 343.75 112.5 l 1
 375 112.5 l 1
 375 81.25 l 1
 375 50 l 1
 343.75 50 l 1
 312.5 50 l 1
 312.5 18.75 l 1
 312.5 -12.5 l 1
 281.25 -12.5 l 1
 250 -12.5 l 1
 250 -43.75 l 1
 250 -75 l 1
 218.75 -75 l 1
 187.5 -75 l 1
 187.5 -106.25 l 1
 187.5 -137.5 l 1
 156.25 -137.5 l 1
 125 -137.5 l 1
 125 112.5 l 1
 125 362.5 l 1
 93.75 362.5 l 1
 62.5 362.5 l 1
 62.5 331.25 l 1
 62.5 300 l 1
 31.25 300 l 1
 0 300 l 1
 0 331.25 l 1
 0 362.5 l 1
 31.25 362.5 l 1
 62.5 362.5 l 1
 62.5 425 l 1
 62.5 487.5 l 1
 93.75 487.5 l 1
 125 487.5 l 1
 125 643.75 l 1
812.5 487.5 m 1
 812.5 550 l 1
 656.25 550 l 1
 500 550 l 1
 500 518.75 l 1
 500 487.5 l 1
 468.75 487.5 l 1
 437.5 487.5 l 1
 437.5 456.25 l 1
 437.5 425 l 1
 562.5 425 l 1
 687.5 425 l 1
 687.5 456.25 l 1
 687.5 487.5 l 1
 718.75 487.5 l 1
 750 487.5 l 1
 750 456.25 l 1
 750 425 l 1
 781.25 425 l 1
 812.5 425 l 1
 812.5 487.5 l 1
375 456.25 m 1
 375 487.5 l 1
 343.75 487.5 l 1
 312.5 487.5 l 1
 312.5 456.25 l 1
 312.5 425 l 1
 343.75 425 l 1
 375 425 l 1
 375 456.25 l 1
687.5 300 m 1
 687.5 362.5 l 1
 593.75 362.5 l 1
 500 362.5 l 1
 500 300 l 1
 500 237.5 l 1
 593.75 237.5 l 1
 687.5 237.5 l 1
 687.5 300 l 1
812.5 237.5 m 1
 812.5 362.5 l 1
 781.25 362.5 l 1
 750 362.5 l 1
 750 237.5 l 1
 750 112.5 l 1
 781.25 112.5 l 1
 812.5 112.5 l 1
 812.5 237.5 l 1
EndSplineSet
EndChar

